<svg xmlns="http://www.w3.org/2000/svg" xmlns:xlink="http://www.w3.org/1999/xlink" width="127.921" height="70.923" viewBox="0 0 127.921 70.923"><defs><style>.a{fill:#fff;}.b{filter:url(#a);}</style><filter id="a" x="0" y="0" width="127.921" height="70.923" filterUnits="userSpaceOnUse"><feOffset dy="8" input="SourceAlpha"/><feGaussianBlur stdDeviation="8" result="b"/><feFlood flood-color="#707070" flood-opacity="0.161"/><feComposite operator="in" in2="b"/><feComposite in="SourceGraphic"/></filter></defs><g transform="translate(23.462 15.462)"><path class="a" d="M90.6,31.305a2.3,2.3,0,0,1-2.3,2.3H12.985a2.3,2.3,0,0,1-2.3-2.3V12.981a2.3,2.3,0,0,1,2.3-2.3H88.3a2.3,2.3,0,0,1,2.3,2.3V31.305Z" transform="translate(-10.143 -10.142)"/><path d="M78.161,24H2.839A2.839,2.839,0,0,1,0,21.167V2.836A2.841,2.841,0,0,1,2.839,0H78.161A2.842,2.842,0,0,1,81,2.836v18.33A2.839,2.839,0,0,1,78.161,24Z"/><g class="b" transform="matrix(1, 0, 0, 1, -23.46, -15.46)"><path d="M90.6,31.305a2.3,2.3,0,0,1-2.3,2.3H12.985a2.3,2.3,0,0,1-2.3-2.3V12.981a2.3,2.3,0,0,1,2.3-2.3H88.3a2.3,2.3,0,0,1,2.3,2.3V31.305Z" transform="translate(13.32 5.32)"/></g><path class="a" d="M163.985,82.806a3.5,3.5,0,0,1,1.669-2.941,3.589,3.589,0,0,0-2.827-1.528c-1.189-.125-2.343.712-2.948.712s-1.551-.7-2.556-.679a3.764,3.764,0,0,0-3.168,1.932c-1.37,2.372-.348,5.857.964,7.774.657.939,1.424,1.987,2.428,1.95.982-.04,1.349-.626,2.535-.626s1.519.626,2.543.6c1.054-.016,1.718-.943,2.352-1.89a7.751,7.751,0,0,0,1.076-2.19A3.39,3.39,0,0,1,163.985,82.806Zm-1.935-5.73a3.45,3.45,0,0,0,.79-2.472,3.514,3.514,0,0,0-2.272,1.175,3.283,3.283,0,0,0-.81,2.381A2.9,2.9,0,0,0,162.05,77.076Z" transform="translate(-145.771 -70.921)"/><g transform="translate(25.08 10.706)"><path class="a" d="M515.952,224.155h-1.373l-.752-2.363h-2.614l-.716,2.363H509.16l2.591-8.046h1.6ZM513.6,220.8l-.68-2.1q-.108-.322-.406-1.516h-.024q-.12.513-.382,1.516l-.669,2.1Zm9,.383a3.285,3.285,0,0,1-.8,2.339,2.358,2.358,0,0,1-1.788.764,1.79,1.79,0,0,1-1.656-.823v3.044h-1.289V220.26q0-.93-.048-1.907h1.134l.072.92h.024a2.293,2.293,0,0,1,3.67-.228A3.208,3.208,0,0,1,522.6,221.182Zm-1.313.047a2.392,2.392,0,0,0-.382-1.4,1.321,1.321,0,0,0-1.122-.572,1.34,1.34,0,0,0-.865.316,1.466,1.466,0,0,0-.507.83,1.679,1.679,0,0,0-.06.392v.968a1.552,1.552,0,0,0,.388,1.069,1.288,1.288,0,0,0,1.008.436,1.321,1.321,0,0,0,1.134-.561A2.469,2.469,0,0,0,521.288,221.23Zm7.986-.047a3.285,3.285,0,0,1-.8,2.339,2.359,2.359,0,0,1-1.789.764,1.79,1.79,0,0,1-1.656-.823v3.044h-1.289V220.26q0-.93-.048-1.907h1.134l.072.92h.024a2.294,2.294,0,0,1,3.671-.228A3.211,3.211,0,0,1,529.274,221.182Zm-1.314.047a2.391,2.391,0,0,0-.383-1.4,1.318,1.318,0,0,0-1.121-.572,1.346,1.346,0,0,0-.866.316,1.466,1.466,0,0,0-.507.83,1.722,1.722,0,0,0-.06.392v.968a1.557,1.557,0,0,0,.388,1.069,1.291,1.291,0,0,0,1.01.436,1.319,1.319,0,0,0,1.133-.561A2.469,2.469,0,0,0,527.96,221.23Zm8.774.668a2.149,2.149,0,0,1-.715,1.672,3.17,3.17,0,0,1-2.192.7,3.825,3.825,0,0,1-2.083-.5l.3-1.074a3.586,3.586,0,0,0,1.862.5,1.757,1.757,0,0,0,1.134-.328,1.073,1.073,0,0,0,.407-.877,1.123,1.123,0,0,0-.335-.824,3.1,3.1,0,0,0-1.11-.62q-2.113-.788-2.114-2.3a2.035,2.035,0,0,1,.746-1.623,2.95,2.95,0,0,1,1.976-.633,3.9,3.9,0,0,1,1.826.382l-.323,1.051a3.193,3.193,0,0,0-1.546-.37,1.572,1.572,0,0,0-1.066.334.957.957,0,0,0-.323.729.985.985,0,0,0,.371.788,4.176,4.176,0,0,0,1.169.62,3.965,3.965,0,0,1,1.528.978A2.038,2.038,0,0,1,536.734,221.9Zm4.273-2.577h-1.421v2.817q0,1.075.752,1.074a2.267,2.267,0,0,0,.573-.06l.036.979a2.919,2.919,0,0,1-1,.143,1.545,1.545,0,0,1-1.194-.466,2.286,2.286,0,0,1-.43-1.564v-2.924h-.846v-.967h.846v-1.062l1.266-.382v1.444h1.421Zm6.4,1.886a3.182,3.182,0,0,1-.764,2.2,2.724,2.724,0,0,1-2.124.883,2.6,2.6,0,0,1-2.036-.846,3.086,3.086,0,0,1-.758-2.137,3.157,3.157,0,0,1,.782-2.208,2.71,2.71,0,0,1,2.108-.86,2.651,2.651,0,0,1,2.052.848A3.046,3.046,0,0,1,547.4,221.206Zm-1.336.03a2.6,2.6,0,0,0-.345-1.369,1.276,1.276,0,0,0-1.158-.691,1.294,1.294,0,0,0-1.182.691,2.641,2.641,0,0,0-.346,1.393,2.59,2.59,0,0,0,.346,1.369,1.322,1.322,0,0,0,2.329-.011A2.608,2.608,0,0,0,546.068,221.236Zm5.527-1.749a2.238,2.238,0,0,0-.406-.036,1.216,1.216,0,0,0-1.051.514,1.935,1.935,0,0,0-.322,1.146v3.044h-1.289V220.18q0-1-.038-1.826h1.123l.047,1.11h.036a1.99,1.99,0,0,1,.644-.92,1.559,1.559,0,0,1,.932-.311,2.064,2.064,0,0,1,.322.024Zm5.765,1.493a3.023,3.023,0,0,1-.047.585h-3.867a1.683,1.683,0,0,0,.561,1.314,1.918,1.918,0,0,0,1.265.405,4.277,4.277,0,0,0,1.565-.274l.2.894a4.837,4.837,0,0,1-1.945.358,2.82,2.82,0,0,1-2.12-.793,2.933,2.933,0,0,1-.769-2.13,3.323,3.323,0,0,1,.717-2.184,2.47,2.47,0,0,1,2.028-.93,2.162,2.162,0,0,1,1.9.93A3.131,3.131,0,0,1,557.36,220.979Zm-1.229-.334a1.745,1.745,0,0,0-.25-.991,1.126,1.126,0,0,0-1.027-.538,1.222,1.222,0,0,0-1.026.525,1.925,1.925,0,0,0-.381,1Z" transform="translate(-509.16 -215.99)"/></g><g transform="translate(25.56 3.927)"><path class="a" d="M522.027,82.8h-.675l-.369-1.161H519.7l-.352,1.161h-.657l1.273-3.954h.786Zm-1.156-1.649-.334-1.033c-.035-.106-.1-.352-.2-.745h-.012c-.041.17-.1.417-.188.745l-.328,1.033Zm4.34-1.2-1.08,2.851h-.616l-1.045-2.851h.681l.487,1.508c.082.252.152.493.2.721h.018c.047-.2.117-.446.2-.721l.481-1.508Zm2.3,2.851-.047-.328h-.018a.972.972,0,0,1-.833.393.83.83,0,0,1-.874-.839c0-.7.61-1.068,1.666-1.068V80.9c0-.375-.2-.563-.592-.563a1.331,1.331,0,0,0-.745.212l-.129-.417a1.825,1.825,0,0,1,.98-.247c.745,0,1.121.393,1.121,1.18v1.05a4.23,4.23,0,0,0,.041.681Zm-.088-1.42c-.7,0-1.056.17-1.056.575a.4.4,0,0,0,.434.446.606.606,0,0,0,.622-.58Zm2.028-1.9a.379.379,0,1,1,.4-.381A.372.372,0,0,1,529.449,79.475Zm.329,3.321h-.634V79.944h.634Zm1.759,0H530.9V78.636h.634Zm2.693,0-.047-.328h-.017a.972.972,0,0,1-.833.393.83.83,0,0,1-.874-.839c0-.7.61-1.068,1.666-1.068V80.9c0-.375-.2-.563-.593-.563a1.331,1.331,0,0,0-.745.212l-.129-.417a1.825,1.825,0,0,1,.98-.247c.745,0,1.121.393,1.121,1.18v1.05a4.389,4.389,0,0,0,.041.681h-.569Zm-.088-1.42c-.7,0-1.056.17-1.056.575a.4.4,0,0,0,.434.446.606.606,0,0,0,.622-.58Zm3.184,1.485a.968.968,0,0,1-.9-.5h-.013l-.036.44h-.54c.017-.229.024-.487.024-.768V78.636h.634v1.725h.012a.978.978,0,0,1,.909-.475c.687,0,1.168.587,1.168,1.443A1.372,1.372,0,0,1,537.326,82.86Zm-.129-2.476a.729.729,0,0,0-.7.757v.5a.7.7,0,0,0,.687.716c.475,0,.757-.387.757-1C537.942,80.777,537.648,80.384,537.2,80.384Zm2.961,2.412h-.633V78.636h.633Zm3.449-1.273h-1.9a.818.818,0,0,0,.9.845,2.139,2.139,0,0,0,.768-.135l.1.44a2.377,2.377,0,0,1-.956.176,1.324,1.324,0,0,1-1.42-1.437,1.393,1.393,0,0,1,1.349-1.531,1.414,1.414,0,0,1,1.164,1.643Zm-.581-.452c0-.44-.223-.751-.628-.751a.752.752,0,0,0-.693.751Zm4.422,1.79a1.357,1.357,0,0,1-1.373-1.467,1.389,1.389,0,0,1,1.421-1.508,1.347,1.347,0,0,1,1.373,1.461A1.4,1.4,0,0,1,547.447,82.86Zm.024-2.511c-.458,0-.751.428-.751,1.027s.3,1.015.745,1.015.744-.458.744-1.027S547.917,80.349,547.471,80.349Zm4.8,2.447h-.633V81.158c0-.5-.193-.757-.575-.757a.659.659,0,0,0-.634.7v1.7H549.8V80.759c0-.252-.007-.522-.024-.816h.557l.03.44h.018a1.023,1.023,0,0,1,.9-.5c.6,0,.991.458.991,1.2V82.8Zm4.146-2.376h-.7V81.8q0,.529.369.528a1.254,1.254,0,0,0,.282-.03l.018.481a1.411,1.411,0,0,1-.492.071c-.5,0-.8-.276-.8-1V80.419h-.416v-.475h.416v-.522l.622-.188v.71h.7Zm3.355,2.376h-.634V81.17c0-.51-.193-.768-.575-.768a.621.621,0,0,0-.633.675V82.8H557.3V78.636h.634v1.713h.012a.96.96,0,0,1,.857-.464c.6,0,.973.469.973,1.215Zm3.237-1.273h-1.9a.817.817,0,0,0,.9.845,2.137,2.137,0,0,0,.768-.135l.1.44a2.38,2.38,0,0,1-.956.176,1.324,1.324,0,0,1-1.42-1.437,1.393,1.393,0,0,1,1.349-1.531,1.2,1.2,0,0,1,1.186,1.355A1.234,1.234,0,0,1,563.012,81.522Zm-.581-.452c0-.44-.222-.751-.628-.751a.752.752,0,0,0-.693.751Z" transform="translate(-518.688 -78.636)"/></g></g></svg>