<svg xmlns="http://www.w3.org/2000/svg" xmlns:xlink="http://www.w3.org/1999/xlink" width="148" height="102" viewBox="0 0 148 102"><defs><style>.a{fill:url(#a);}.b{fill:url(#b);}.c{fill:url(#c);}.d{fill:url(#d);}.e{fill:url(#e);}.f{fill:url(#f);}.g{fill:url(#g);}.h{fill:url(#h);}.i{fill:url(#i);}.j{fill:url(#j);}.k{fill:url(#k);}.l{fill:url(#l);}.m{fill:url(#m);}.n{fill:url(#n);}.o{fill:url(#o);}.p{fill:url(#p);}.q{fill:url(#q);}.r{fill:url(#r);}.s{fill:url(#s);}.t{fill:url(#t);}.u{fill:url(#u);}.v{fill:url(#w);}.w{fill:url(#x);}.x{fill:url(#y);}.y{fill:url(#z);}.z{fill:url(#aa);}.aa{fill:url(#ab);}.ab{fill:url(#ac);}.ac{fill:url(#ad);}.ad{fill:url(#ae);}.ae{fill:url(#af);}.af{fill:url(#ag);}.ag{fill:url(#ah);}.ah{fill:url(#ai);}.ai{fill:url(#aj);}.aj{fill:url(#ak);}.ak{fill:url(#al);}.al{fill:url(#am);}.am{fill:url(#an);}.an{fill:url(#ao);}.ao{fill:url(#ap);}.ap{fill:url(#aq);}.aq{fill:url(#ar);}.ar{fill:url(#as);}.as{fill:url(#at);}.at{fill:url(#au);}.au{fill:url(#av);}.av{fill:url(#aw);}.aw{fill:url(#ax);}.ax{fill:url(#ay);}.ay{fill:url(#az);}.az{fill:url(#ba);}.ba{fill:url(#bb);}.bb{fill:url(#bc);}.bc{fill:url(#bd);}.bd{fill:url(#be);}.be{fill:url(#bf);}.bf{fill:url(#bg);}.bg{fill:url(#bh);}.bh{fill:url(#bk);}.bi{fill:url(#bl);}.bj{fill:url(#bm);}.bk{fill:url(#bn);}.bl{fill:url(#bo);}.bm{fill:url(#bp);}.bn{fill:url(#bs);}.bo{fill:url(#bt);}.bp{fill:url(#bv);}.bq{fill:url(#bw);}.br{fill:url(#bx);}.bs{fill:url(#by);}.bt{fill:url(#bz);}.bu{fill:url(#ca);}.bv{fill:url(#cb);}.bw{fill:url(#cc);}.bx{fill:url(#cd);}.by{fill:url(#cf);}.bz{fill:url(#cg);}.ca{fill:url(#ch);}.cb{fill:url(#ci);}.cc{fill:url(#cj);}.cd{fill:url(#ck);}.ce{fill:url(#cl);}.cf{fill:url(#cm);}.cg{fill:url(#cn);}.ch{fill:url(#co);}.ci{fill:url(#cp);}.cj{fill:url(#cq);}.ck{fill:url(#cr);}.cl{fill:url(#cs);}.cm{fill:url(#ct);}.cn{fill:url(#cu);}.co{fill:url(#cv);}.cp{fill:url(#cw);}.cq{fill:url(#cx);}.cr{fill:url(#cy);}.cs{fill:url(#cz);}.ct{fill:url(#da);}.cu{fill:url(#db);}.cv{fill:url(#dc);}.cw{fill:url(#dd);}.cx{fill:url(#de);}.cy{fill:url(#df);}.cz{fill:url(#dg);}.da{fill:url(#dh);}.db{fill:url(#di);}.dc{fill:url(#dj);}.dd{fill:url(#dk);}.de{fill:url(#dl);}.df{fill:url(#dm);}.dg{fill:url(#dn);}.dh{fill:url(#do);}.di{fill:url(#dp);}.dj{fill:url(#dq);}.dk{fill:url(#dr);}.dl{fill:url(#ds);}.dm{fill:url(#dt);}.dn{fill:url(#du);}.do{fill:url(#dv);}.dp{fill:url(#dw);}.dq{fill:url(#dx);}.dr{fill:url(#dy);}.ds{fill:url(#dz);}.dt{fill:url(#ea);}.du{fill:url(#eb);}.dv{fill:url(#ec);}.dw{fill:url(#ed);}.dx{fill:url(#ee);}.dy{fill:url(#ef);}.dz{fill:url(#eg);}.ea{fill:url(#eh);}.eb{fill:url(#ei);}.ec{fill:url(#ej);}.ed{fill:url(#ek);}.ee{fill:url(#el);}.ef{fill:url(#em);}.eg{fill:url(#en);}.eh{fill:url(#eo);}.ei{fill:url(#ep);}.ej{fill:url(#eq);}.ek{fill:url(#er);}.el{fill:url(#es);}.em{fill:url(#et);}.en{fill:url(#eu);}.eo{fill:url(#ev);}.ep{fill:url(#ew);}.eq{fill:url(#ex);}.er{fill:url(#ey);}.es{fill:url(#ez);}.et{fill:url(#fa);}.eu{fill:url(#fb);}.ev{fill:url(#fc);}.ew{fill:url(#fd);}.ex{fill:url(#fe);}.ey{fill:url(#ff);}.ez{fill:url(#fg);}.fa{fill:url(#fh);}.fb{fill:url(#fi);}.fc{fill:url(#fj);}.fd{fill:url(#fk);}.fe{fill:url(#fl);}.ff{fill:url(#fm);}.fg{fill:url(#fn);}.fh{fill:url(#fo);}.fi{fill:url(#fp);}.fj{fill:url(#fq);}.fk{fill:url(#fr);}.fl{fill:url(#fs);}.fm{fill:url(#ft);}.fn{fill:url(#fu);}.fo{fill:url(#fv);}.fp{fill:url(#fw);}.fq{fill:url(#fx);}.fr{fill:url(#fy);}.fs{fill:url(#fz);}.ft{fill:url(#ga);}.fu{fill:url(#gb);}.fv{fill:url(#gc);}.fw{fill:url(#gd);}.fx{fill:url(#ge);}.fy{fill:#fff;}.fz{fill:url(#gf);}.ga{fill:url(#gg);}.gb{fill:url(#gh);}.gc{fill:url(#gi);}.gd{fill:url(#gj);}.ge{fill:url(#gk);}.gf{fill:url(#gl);}.gg{fill:url(#gm);}.gh{fill:url(#gn);}.gi{fill:url(#go);}.gj{fill:url(#gp);}.gk{fill:url(#gq);}.gl{fill:url(#gr);}.gm,.gu{fill:none;}.gm{stroke:#000;stroke-miterlimit:10;}.gn{fill:url(#gs);}.go{fill:url(#gt);}.gp{fill:url(#gu);}.gq{fill:url(#gv);}.gr{fill:url(#gw);}.gs{fill:url(#gx);}.gt{fill:url(#gy);}</style><linearGradient id="a" y1="0.5" x2="1" y2="0.5" gradientUnits="objectBoundingBox"><stop offset="0" stop-color="#f8b54a"/><stop offset="1" stop-color="#f8a629"/></linearGradient><linearGradient id="b" y1="0.501" x2="1" y2="0.501" gradientUnits="objectBoundingBox"><stop offset="0" stop-color="#b5188d"/><stop offset="1" stop-color="#4e69ae"/></linearGradient><linearGradient id="c" y1="0.496" x2="1" y2="0.496" gradientUnits="objectBoundingBox"><stop offset="0" stop-color="#f44274"/><stop offset="1" stop-color="#e51f9a"/></linearGradient><linearGradient id="d" x1="44.42" y1="235.372" x2="45.428" y2="235.372" gradientUnits="objectBoundingBox"><stop offset="0" stop-color="#6dd0e7"/><stop offset="1" stop-color="#01a7db"/></linearGradient><linearGradient id="e" x1="-0.004" y1="0.5" x2="1" y2="0.5" gradientUnits="objectBoundingBox"><stop offset="0" stop-color="#f71873"/><stop offset="1" stop-color="#f8a629"/></linearGradient><linearGradient id="f" x1="117.649" y1="-144.021" x2="118.512" y2="-144.021" xlink:href="#c"/><linearGradient id="g" y1="0.501" x2="1" y2="0.501" gradientUnits="objectBoundingBox"><stop offset="0" stop-color="#be1e68"/><stop offset="1" stop-color="#b5188d"/></linearGradient><linearGradient id="h" y1="0.498" x2="0.997" y2="0.498" gradientUnits="objectBoundingBox"><stop offset="0" stop-color="#fbe422"/><stop offset="1" stop-color="#c8d92b"/></linearGradient><linearGradient id="i" x1="0" y1="0.5" x2="1" y2="0.5" xlink:href="#c"/><linearGradient id="j" y1="0.5" x2="1.001" y2="0.5" gradientUnits="objectBoundingBox"><stop offset="0" stop-color="#b4df86"/><stop offset="1" stop-color="#84c743"/></linearGradient><linearGradient id="k" x1="0" y1="0.5" x2="0.999" y2="0.5" xlink:href="#c"/><linearGradient id="l" x1="-0.001" y1="0.501" x2="1" y2="0.501" xlink:href="#b"/><linearGradient id="m" x1="0" y1="0.5" x2="1.001" y2="0.5" xlink:href="#d"/><linearGradient id="n" x1="0.001" y1="0.5" x2="1.001" y2="0.5" xlink:href="#j"/><linearGradient id="o" x1="0.004" y1="0.498" x2="1.004" y2="0.498" xlink:href="#g"/><linearGradient id="p" x1="0.002" y1="0.502" x2="1" y2="0.502" xlink:href="#c"/><linearGradient id="q" x1="0" y1="0.499" x2="1" y2="0.499" xlink:href="#d"/><linearGradient id="r" x1="0" y1="0.5" x2="1.002" y2="0.5" xlink:href="#g"/><linearGradient id="s" x1="0.001" y1="0.5" x2="1" y2="0.5" xlink:href="#b"/><linearGradient id="t" x1="0" y1="0.501" x2="1" y2="0.501" xlink:href="#h"/><linearGradient id="u" x1="0.002" y1="0.501" x2="1" y2="0.501" xlink:href="#b"/><linearGradient id="w" x1="0" y1="0.5" x2="1" y2="0.5" xlink:href="#j"/><linearGradient id="x" x1="0" y1="0.5" x2="1" y2="0.5" xlink:href="#a"/><linearGradient id="y" x1="0" y1="0.501" x2="1" y2="0.501" xlink:href="#d"/><linearGradient id="z" x1="0" y1="0.499" x2="1" y2="0.499" xlink:href="#g"/><linearGradient id="aa" x1="0.001" y1="0.5" x2="1" y2="0.5" xlink:href="#j"/><linearGradient id="ab" x1="0" y1="0.5" x2="1" y2="0.5" xlink:href="#h"/><linearGradient id="ac" x1="0" y1="0.499" x2="1" y2="0.499" xlink:href="#a"/><linearGradient id="ad" x1="0" y1="0.501" x2="1" y2="0.501" xlink:href="#g"/><linearGradient id="ae" x1="0.001" y1="0.5" x2="1.002" y2="0.5" xlink:href="#d"/><linearGradient id="af" x1="0.002" y1="0.5" x2="1.002" y2="0.5" xlink:href="#c"/><linearGradient id="ag" x1="0" y1="0.5" x2="1" y2="0.5" xlink:href="#b"/><linearGradient id="ah" x1="0" y1="0.503" x2="1" y2="0.503" xlink:href="#g"/><linearGradient id="ai" x1="-0.002" y1="0.499" x2="1.004" y2="0.499" xlink:href="#a"/><linearGradient id="aj" x1="-0.002" y1="0.5" x2="1" y2="0.5" xlink:href="#g"/><linearGradient id="ak" x1="0" y1="0.498" x2="1" y2="0.498" xlink:href="#d"/><linearGradient id="al" x1="0" y1="0.496" x2="1" y2="0.496" xlink:href="#e"/><linearGradient id="am" x1="0" y1="0.5" x2="1" y2="0.5" xlink:href="#h"/><linearGradient id="an" x1="-0.002" y1="0.5" x2="1" y2="0.5" xlink:href="#g"/><linearGradient id="ao" x1="0" y1="0.5" x2="0.999" y2="0.5" xlink:href="#d"/><linearGradient id="ap" x1="738.9" y1="478.387" x2="739.866" y2="478.387" xlink:href="#e"/><linearGradient id="aq" x1="446.74" y1="418.746" x2="447.723" y2="418.746" xlink:href="#h"/><linearGradient id="ar" x1="439.355" y1="158.823" x2="440.201" y2="158.823" xlink:href="#g"/><linearGradient id="as" x1="264.218" y1="152.378" x2="265.077" y2="152.378" xlink:href="#d"/><linearGradient id="at" x1="-0.005" y1="0.5" x2="0.997" y2="0.5" xlink:href="#h"/><linearGradient id="au" x1="0" y1="0.5" x2="0.997" y2="0.5" xlink:href="#g"/><linearGradient id="av" x1="-0.002" y1="0.5" x2="0.998" y2="0.5" xlink:href="#j"/><linearGradient id="aw" x1="0" y1="0.499" x2="1" y2="0.499" xlink:href="#b"/><linearGradient id="ax" x1="0" y1="0.5" x2="1" y2="0.5" xlink:href="#d"/><linearGradient id="ay" x1="0" y1="0.5" x2="1" y2="0.5" xlink:href="#e"/><linearGradient id="az" x1="0" y1="0.496" x2="1" y2="0.496" xlink:href="#h"/><linearGradient id="ba" x1="-0.001" y1="0.501" x2="1" y2="0.501" gradientUnits="objectBoundingBox"><stop offset="0" stop-color="#f71873"/><stop offset="1" stop-color="#c6211b"/></linearGradient><linearGradient id="bb" x1="-0.003" y1="0.501" x2="0.997" y2="0.501" xlink:href="#e"/><linearGradient id="bc" x1="0" y1="0.501" x2="1" y2="0.501" xlink:href="#d"/><linearGradient id="bd" x1="0" y1="0.496" x2="1" y2="0.496" xlink:href="#h"/><linearGradient id="be" x1="0.004" y1="0.5" x2="1" y2="0.5" xlink:href="#ba"/><linearGradient id="bf" x1="0" y1="0.501" x2="1" y2="0.501" xlink:href="#e"/><linearGradient id="bg" x1="-0.004" y1="0.499" x2="1" y2="0.499" xlink:href="#ba"/><linearGradient id="bh" x1="0.004" y1="0.5" x2="1" y2="0.5" gradientUnits="objectBoundingBox"><stop offset="0" stop-color="#f87d5e"/><stop offset="1" stop-color="#eb622c"/></linearGradient><linearGradient id="bk" x1="0" y1="0.5" x2="1" y2="0.5" xlink:href="#d"/><linearGradient id="bl" x1="0" y1="0.499" x2="1" y2="0.499" xlink:href="#e"/><linearGradient id="bm" x1="-41.094" y1="179.768" x2="-40.352" y2="179.768" xlink:href="#e"/><linearGradient id="bn" x1="0" y1="0.498" x2="1" y2="0.498" xlink:href="#a"/><linearGradient id="bo" x1="0" y1="0.5" x2="1" y2="0.5" xlink:href="#ba"/><linearGradient id="bp" x1="0.004" y1="0.5" x2="1" y2="0.5" xlink:href="#j"/><linearGradient id="bs" x1="204.243" y1="-356.029" x2="204.913" y2="-356.029" xlink:href="#a"/><linearGradient id="bt" x1="-13.558" y1="0.898" x2="-12.347" y2="0.898" xlink:href="#e"/><linearGradient id="bv" x1="-0.384" y1="0.501" x2="1.386" y2="0.501" xlink:href="#e"/><linearGradient id="bw" x1="-0.003" y1="0.5" x2="0.997" y2="0.5" xlink:href="#e"/><linearGradient id="bx" x1="-0.375" y1="0.499" x2="1.373" y2="0.499" xlink:href="#a"/><linearGradient id="by" x1="0" y1="0.499" x2="1.001" y2="0.499" xlink:href="#a"/><linearGradient id="bz" x1="0" y1="0.501" x2="1" y2="0.501" xlink:href="#c"/><linearGradient id="ca" x1="0.001" y1="0.499" x2="1.001" y2="0.499" xlink:href="#d"/><linearGradient id="cb" x1="0" y1="0.5" x2="1" y2="0.5" xlink:href="#a"/><linearGradient id="cc" x1="0.003" y1="0.5" x2="1.003" y2="0.5" xlink:href="#g"/><linearGradient id="cd" x1="0" y1="0.5" x2="1" y2="0.5" xlink:href="#e"/><linearGradient id="cf" x1="-9.497" y1="52.603" x2="-8.438" y2="52.603" xlink:href="#e"/><linearGradient id="cg" x1="-15.248" y1="56.223" x2="-14.248" y2="56.223" xlink:href="#j"/><linearGradient id="ch" x1="0" y1="0.498" x2="1" y2="0.498" xlink:href="#j"/><linearGradient id="ci" x1="0" y1="0.499" x2="0.999" y2="0.499" xlink:href="#h"/><linearGradient id="cj" x1="0" y1="0.5" x2="1.001" y2="0.5" xlink:href="#c"/><linearGradient id="ck" x1="0" y1="0.5" x2="1" y2="0.5" xlink:href="#b"/><linearGradient id="cl" x1="0" y1="0.5" x2="1" y2="0.5" xlink:href="#c"/><linearGradient id="cm" x1="0" y1="0.5" x2="1" y2="0.5" xlink:href="#d"/><linearGradient id="cn" x1="5.207" y1="-85.569" x2="6.094" y2="-86.214" xlink:href="#j"/><linearGradient id="co" x1="20.794" y1="-90.208" x2="21.72" y2="-90.825" xlink:href="#ba"/><linearGradient id="cp" x1="0.72" y1="-0.26" x2="0.3" y2="0.921" xlink:href="#d"/><linearGradient id="cq" x1="0.003" y1="0.5" x2="1" y2="0.5" xlink:href="#ba"/><linearGradient id="cr" x1="20.944" y1="-7.098" x2="21.554" y2="-5.941" xlink:href="#e"/><linearGradient id="cs" x1="-8.429" y1="18.871" x2="-8.429" y2="19.721" xlink:href="#h"/><linearGradient id="ct" x1="125.735" y1="65.525" x2="125.735" y2="66.411" xlink:href="#g"/><linearGradient id="cu" x1="0.5" y1="1.055" x2="0.5" y2="-0.27" xlink:href="#b"/><linearGradient id="cv" x1="107.782" y1="-36.674" x2="107.782" y2="-37.37" xlink:href="#a"/><linearGradient id="cw" x1="20.337" y1="-6.082" x2="21.687" y2="-6.082" xlink:href="#ba"/><linearGradient id="cx" x1="1888.089" y1="1124.457" x2="1888.906" y2="1124.457" xlink:href="#a"/><linearGradient id="cy" x1="2400.187" y1="2043.315" x2="2401.296" y2="2043.315" xlink:href="#b"/><linearGradient id="cz" x1="1337.54" y1="835.333" x2="1338.505" y2="835.333" xlink:href="#c"/><linearGradient id="da" x1="1452.384" y1="-49.9" x2="1453.511" y2="-49.9" xlink:href="#d"/><linearGradient id="db" x1="1705.042" y1="885.059" x2="1706.191" y2="885.059" xlink:href="#e"/><linearGradient id="dc" x1="1904.34" y1="1578.903" x2="1905.386" y2="1578.903" xlink:href="#c"/><linearGradient id="dd" x1="1229.9" y1="947.087" x2="1230.856" y2="947.087" xlink:href="#g"/><linearGradient id="de" x1="1383.563" y1="1047.849" x2="1384.498" y2="1047.849" xlink:href="#h"/><linearGradient id="df" x1="946.352" y1="1456.946" x2="947.505" y2="1456.946" xlink:href="#c"/><linearGradient id="dg" x1="816.588" y1="926.497" x2="817.561" y2="926.497" xlink:href="#c"/><linearGradient id="dh" x1="750.729" y1="957.086" x2="751.738" y2="957.086" xlink:href="#j"/><linearGradient id="di" x1="1336.363" y1="1489.515" x2="1337.337" y2="1489.515" xlink:href="#c"/><linearGradient id="dj" x1="1440.859" y1="1688.315" x2="1441.538" y2="1688.315" xlink:href="#b"/><linearGradient id="dk" x1="788.004" y1="1044.191" x2="789.034" y2="1044.191" xlink:href="#d"/><linearGradient id="dl" x1="865.03" y1="1204.602" x2="865.975" y2="1204.602" xlink:href="#j"/><linearGradient id="dm" x1="1528.829" y1="1496.462" x2="1529.771" y2="1496.462" xlink:href="#g"/><linearGradient id="dn" x1="1479.154" y1="664.925" x2="1480.437" y2="664.925" xlink:href="#c"/><linearGradient id="do" x1="1493.354" y1="821.96" x2="1494.381" y2="821.96" xlink:href="#d"/><linearGradient id="dp" x1="1345.209" y1="741.548" x2="1345.961" y2="741.548" xlink:href="#g"/><linearGradient id="dq" x1="1763.232" y1="814.779" x2="1764.42" y2="814.779" xlink:href="#b"/><linearGradient id="dr" x1="1266.723" y1="716.878" x2="1267.692" y2="716.878" xlink:href="#h"/><linearGradient id="ds" x1="1208.101" y1="1098.423" x2="1209.092" y2="1098.423" xlink:href="#b"/><linearGradient id="dt" x1="1164.948" y1="1193.616" x2="1166.032" y2="1193.616" xlink:href="#a"/><linearGradient id="du" x1="1056.926" y1="781.571" x2="1057.754" y2="781.571" xlink:href="#j"/><linearGradient id="dv" x1="1267.768" y1="686.97" x2="1269.028" y2="686.97" xlink:href="#a"/><linearGradient id="dw" x1="1969.154" y1="1131.277" x2="1970.331" y2="1131.277" xlink:href="#d"/><linearGradient id="dx" x1="2058.598" y1="971.687" x2="2060.007" y2="971.687" xlink:href="#g"/><linearGradient id="dy" x1="1196.355" y1="1215.456" x2="1197.487" y2="1215.456" xlink:href="#j"/><linearGradient id="dz" x1="1109.978" y1="915.296" x2="1110.92" y2="915.296" xlink:href="#h"/><linearGradient id="ea" x1="1652.475" y1="1220.396" x2="1653.396" y2="1220.396" xlink:href="#a"/><linearGradient id="eb" x1="2061.764" y1="1241.762" x2="2062.871" y2="1241.762" xlink:href="#g"/><linearGradient id="ec" x1="1447.529" y1="657.604" x2="1448.824" y2="657.604" xlink:href="#d"/><linearGradient id="ed" x1="2251.434" y1="927.455" x2="2252.865" y2="927.455" xlink:href="#c"/><linearGradient id="ee" x1="1322.832" y1="1178.874" x2="1323.994" y2="1178.874" xlink:href="#b"/><linearGradient id="ef" x1="2246.058" y1="1225.952" x2="2247.186" y2="1225.952" xlink:href="#g"/><linearGradient id="eg" x1="1963.122" y1="1192.85" x2="1963.883" y2="1192.85" xlink:href="#a"/><linearGradient id="eh" x1="1319.085" y1="802.448" x2="1319.855" y2="802.448" xlink:href="#g"/><linearGradient id="ei" x1="1765.909" y1="841.838" x2="1767.195" y2="841.838" xlink:href="#d"/><linearGradient id="ej" x1="1255.04" y1="987.723" x2="1255.95" y2="987.723" xlink:href="#e"/><linearGradient id="ek" x1="1060.432" y1="821.362" x2="1061.338" y2="821.362" xlink:href="#h"/><linearGradient id="el" x1="1481.392" y1="911.149" x2="1482.148" y2="911.149" xlink:href="#g"/><linearGradient id="em" x1="1164.888" y1="900.512" x2="1165.834" y2="900.512" xlink:href="#d"/><linearGradient id="en" x1="1160.441" y1="742.615" x2="1161.208" y2="742.615" xlink:href="#h"/><linearGradient id="eo" x1="1627.116" y1="1412.779" x2="1628.145" y2="1412.779" xlink:href="#g"/><linearGradient id="ep" x1="1228.731" y1="676.367" x2="1229.902" y2="676.367" xlink:href="#j"/><linearGradient id="eq" x1="1495.313" y1="1024.101" x2="1496.26" y2="1024.101" xlink:href="#b"/><linearGradient id="er" x1="1074.25" y1="919.332" x2="1075.214" y2="919.332" xlink:href="#d"/><linearGradient id="es" x1="1596.008" y1="1423.004" x2="1597.057" y2="1423.004" xlink:href="#e"/><linearGradient id="et" x1="1346.827" y1="922.165" x2="1347.699" y2="922.165" xlink:href="#h"/><linearGradient id="eu" x1="1271.383" y1="750.311" x2="1272.16" y2="750.311" xlink:href="#ba"/><linearGradient id="ev" x1="2019.279" y1="1246.401" x2="2020.251" y2="1246.401" xlink:href="#e"/><linearGradient id="ew" x1="2164.655" y1="1207.528" x2="2165.755" y2="1207.528" xlink:href="#d"/><linearGradient id="ex" x1="2055.971" y1="1107.684" x2="2057.136" y2="1107.684" xlink:href="#bh"/><linearGradient id="ey" x1="1498.691" y1="1116.887" x2="1499.625" y2="1116.887" xlink:href="#h"/><linearGradient id="ez" x1="1523.17" y1="1043.171" x2="1524.086" y2="1043.171" xlink:href="#d"/><linearGradient id="fa" x1="1904.83" y1="864.332" x2="1906.179" y2="864.332" xlink:href="#e"/><linearGradient id="fb" x1="1656.354" y1="1167.515" x2="1657.258" y2="1167.515" xlink:href="#a"/><linearGradient id="fc" x1="2536.937" y1="1126.087" x2="2538.35" y2="1126.087" xlink:href="#ba"/><linearGradient id="fd" x1="1390.08" y1="1019.195" x2="1390.973" y2="1019.195" xlink:href="#a"/><linearGradient id="fe" x1="1341.373" y1="1056.507" x2="1342.314" y2="1056.507" xlink:href="#e"/><linearGradient id="ff" x1="1883.376" y1="1150.685" x2="1884.471" y2="1150.685" xlink:href="#g"/><linearGradient id="fg" x1="2346.181" y1="2115.872" x2="2347.376" y2="2115.872" xlink:href="#e"/><linearGradient id="fh" x1="2346.219" y1="2122.333" x2="2347.381" y2="2122.333" xlink:href="#e"/><linearGradient id="fi" x1="1845.86" y1="1640.84" x2="1847.038" y2="1640.84" xlink:href="#a"/><linearGradient id="fj" x1="1764.046" y1="1533.65" x2="1765.143" y2="1533.65" xlink:href="#a"/><linearGradient id="fk" x1="1882.766" y1="1671.432" x2="1883.953" y2="1671.432" xlink:href="#d"/><linearGradient id="fl" x1="2122.599" y1="988.987" x2="2123.874" y2="988.987" xlink:href="#d"/><linearGradient id="fm" x1="1855.013" y1="1610.398" x2="1856.013" y2="1610.398" xlink:href="#c"/><linearGradient id="fn" x1="1262.271" y1="920.687" x2="1263.184" y2="920.687" xlink:href="#d"/><linearGradient id="fo" x1="1357.545" y1="675.768" x2="1358.833" y2="675.768" xlink:href="#a"/><linearGradient id="fp" x1="1491.8" y1="985.6" x2="1492.638" y2="985.6" xlink:href="#g"/><linearGradient id="fq" x1="1518.11" y1="1300.448" x2="1519.177" y2="1300.448" xlink:href="#e"/><linearGradient id="fr" x1="1587.288" y1="862.961" x2="1587.997" y2="862.961" xlink:href="#j"/><linearGradient id="fs" x1="1501.779" y1="964.139" x2="1502.631" y2="964.139" xlink:href="#j"/><linearGradient id="ft" x1="1986.928" y1="1753.654" x2="1988.029" y2="1753.654" xlink:href="#ba"/><linearGradient id="fu" x1="1618.638" y1="1399.856" x2="1619.698" y2="1399.856" xlink:href="#h"/><linearGradient id="fv" x1="1582.895" y1="1513.954" x2="1584.057" y2="1513.954" xlink:href="#c"/><linearGradient id="fw" x1="1536.651" y1="1059.717" x2="1537.476" y2="1059.717" xlink:href="#b"/><linearGradient id="fx" x1="1659.674" y1="1011.613" x2="1660.757" y2="1011.613" xlink:href="#c"/><linearGradient id="fy" x1="1937.556" y1="920.103" x2="1938.945" y2="920.103" xlink:href="#d"/><linearGradient id="fz" x1="-0.477" y1="12.055" x2="-0.056" y2="12.055" xlink:href="#ba"/><linearGradient id="ga" x1="-5.59" y1="80.799" x2="-5.348" y2="82.482" xlink:href="#c"/><linearGradient id="gb" x1="-1.464" y1="27.04" x2="-1.184" y2="28.009" xlink:href="#c"/><linearGradient id="gc" x1="-4.139" y1="30.015" x2="-3.007" y2="30.751" xlink:href="#c"/><linearGradient id="gd" x1="51.159" y1="-64.034" x2="50.522" y2="-62.655" xlink:href="#c"/><linearGradient id="ge" x1="104.347" y1="-116.776" x2="109.064" y2="-113.533" xlink:href="#b"/><linearGradient id="gf" x1="-4.003" y1="14.732" x2="-3.157" y2="14.732" xlink:href="#ba"/><linearGradient id="gg" x1="-3.994" y1="40.634" x2="-3.168" y2="39.844" xlink:href="#a"/><linearGradient id="gh" x1="-11.177" y1="42.339" x2="-10.259" y2="41.86" xlink:href="#a"/><linearGradient id="gi" x1="399.245" y1="-10.398" x2="403.495" y2="-10.398" xlink:href="#b"/><linearGradient id="gj" x1="142.268" y1="-22.327" x2="143.313" y2="-22.327" xlink:href="#ba"/><linearGradient id="gk" x1="318.249" y1="-18.821" x2="317.273" y2="-21.603" xlink:href="#b"/><linearGradient id="gl" x1="199.011" y1="-18.793" x2="200.256" y2="-19.435" xlink:href="#ba"/><linearGradient id="gm" x1="-0.139" y1="0.5" x2="1.037" y2="0.5" xlink:href="#d"/><linearGradient id="gn" x1="436.965" y1="7.562" x2="441.042" y2="7.562" xlink:href="#d"/><linearGradient id="go" x1="179.75" y1="11.629" x2="180.91" y2="11.629" xlink:href="#j"/><linearGradient id="gp" x1="888.038" y1="11.603" x2="885.656" y2="9.901" xlink:href="#d"/><linearGradient id="gq" x1="228.401" y1="22.006" x2="229.651" y2="21.126" xlink:href="#j"/><linearGradient id="gr" x1="96.642" y1="52.908" x2="97.277" y2="52.908" xlink:href="#h"/><linearGradient id="gs" x1="570.771" y1="144.209" x2="572.252" y2="143.477" xlink:href="#j"/><linearGradient id="gt" x1="315.161" y1="179.81" x2="316.435" y2="179.571" xlink:href="#j"/><linearGradient id="gu" x1="186.565" y1="131.613" x2="187.724" y2="131.328" xlink:href="#j"/><linearGradient id="gv" x1="141.807" y1="-54.869" x2="142.301" y2="-54.869" xlink:href="#e"/><linearGradient id="gw" x1="427.689" y1="-223.538" x2="428.272" y2="-225.17" xlink:href="#ba"/><linearGradient id="gx" x1="563.523" y1="-127.995" x2="564.726" y2="-128.243" xlink:href="#ba"/><linearGradient id="gy" x1="448.776" y1="-73.948" x2="450.256" y2="-74.19" xlink:href="#ba"/></defs><g transform="translate(-3884 5521.93)"><path class="a" d="M462.513,288.073a2.834,2.834,0,0,1-.693-1.652l.978-.412a2.828,2.828,0,0,0,.7,1.652Z" transform="translate(3513.635 -5748.146)"/><path class="b" d="M423.509,342.048a2.418,2.418,0,0,1-1.3-.808l.479-.77a2.418,2.418,0,0,0,1.3.808Z" transform="translate(3545.401 -5791.822)"/><path class="c" d="M354.429,334.162a3.941,3.941,0,0,1-2.43.555l-.329-1.442a3.941,3.941,0,0,0,2.43-.555Z" transform="translate(3601.972 -5785.606)"/><path class="d" d="M326.685,303.734a4.555,4.555,0,0,1-2.5-1.422l.422-.822a4.533,4.533,0,0,0,2.5,1.422Z" transform="translate(3624.01 -5760.561)"/><path class="e" d="M291.553,305.9a3.484,3.484,0,0,1-1.836,1.226L289,306.036a3.5,3.5,0,0,0,1.836-1.226Z" transform="translate(3652.231 -5763.224)"/><path class="f" d="M201.8,250.5c-.709.776-3.418,1.584-3.418,1.584l-.529-.927s2.709-.812,3.418-1.584Z" transform="translate(3725.331 -5718.923)"/><path class="g" d="M169.7,177.916a4.242,4.242,0,0,1-2.654-.432l.255-1.584a4.242,4.242,0,0,0,2.654.432Z" transform="translate(3750.031 -5659.842)"/><path class="h" d="M145.555,107.991a3.737,3.737,0,0,1-2.345-.3l.18-1.386a3.737,3.737,0,0,0,2.353.3Z" transform="translate(3769.15 -5604.025)"/><path class="i" d="M283.424,335.9c-1.491.018-6.594-.875-6.594-.875l.43-.661s5.1.9,6.594.877Z" transform="translate(3661.991 -5786.922)"/><path class="j" d="M263.9,210.734a10.093,10.093,0,0,1-3.549-1.816l.4-.768a10.093,10.093,0,0,0,3.549,1.816Z" transform="translate(3675.208 -5685.705)"/><path class="k" d="M343.354,208.258a2.62,2.62,0,0,1-1.584-.5l.3-.939a2.632,2.632,0,0,0,1.584.5Z" transform="translate(3609.911 -5684.639)"/><path class="l" d="M414.393,278.9a2.474,2.474,0,0,1-.3-1.533l.909-.176a2.468,2.468,0,0,0,.3,1.533Z" transform="translate(3551.925 -5741.073)"/><path class="m" d="M423.756,225.959a4.648,4.648,0,0,1-2.416-1.675l.99-1.434a4.648,4.648,0,0,0,2.416,1.675Z" transform="translate(3546.098 -5697.494)"/><path class="n" d="M460.418,169.846A4.428,4.428,0,0,1,459,167.42l1.44-.84a4.432,4.432,0,0,0,1.414,2.426Z" transform="translate(3515.896 -5652.368)"/><path class="o" d="M541.825,225.461a2.424,2.424,0,0,1-1.525-.176l.1-.9a2.432,2.432,0,0,0,1.527.176Z" transform="translate(3450.696 -5698.722)"/><path class="p" d="M312.388,266.078a4.45,4.45,0,0,1-1.99,1.99l-1.188-1.188a4.45,4.45,0,0,0,1.99-1.99Z" transform="translate(3636.023 -5731.209)"/><path class="q" d="M388.621,203.224a3.491,3.491,0,0,1-2.062.792l-.469-1.224a3.5,3.5,0,0,0,2.063-.792Z" transform="translate(3574.368 -5680.773)"/><path class="r" d="M455.624,215.522a3.909,3.909,0,0,1-.65-2.388l1.416-.384a3.9,3.9,0,0,0,.648,2.388Z" transform="translate(3519.129 -5689.395)"/><path class="s" d="M563.309,176.672A3.453,3.453,0,0,1,561.572,178l-.792-1.03a3.464,3.464,0,0,0,1.737-1.333Z" transform="translate(3434.272 -5659.633)"/><path class="t" d="M637.051,105.075a4.092,4.092,0,0,1-2.519.61l-.362-1.5a4.1,4.1,0,0,0,2.521-.61Z" transform="translate(3375.416 -5601.844)"/><path class="u" d="M284.142,250.786A3.971,3.971,0,0,1,282.36,249l1.057-1.054a3.971,3.971,0,0,0,1.782,1.782Z" transform="translate(3657.556 -5717.624)"/><path class="a" d="M343.828,246.38a4.465,4.465,0,0,1-2.648-1l.594-1.57a4.466,4.466,0,0,0,2.648,1Z" transform="translate(3610.384 -5714.304)"/><path class="v" d="M355.112,223.065a4.533,4.533,0,0,1-1.172-2.62l1.555-.7a4.532,4.532,0,0,0,1.172,2.624Z" transform="translate(3600.151 -5695.008)"/><path class="w" d="M473.3,188.335a4.883,4.883,0,0,1-2.244,2.129l-1.263-1.331A4.892,4.892,0,0,0,472.034,187Z" transform="translate(3507.243 -5668.744)"/><path class="x" d="M501.669,72.327a2.875,2.875,0,0,1-1.461,1.075l-.638-.865a2.864,2.864,0,0,0,1.46-1.077Z" transform="translate(3483.36 -5576.084)"/><path class="y" d="M456.54,25.953a3.612,3.612,0,0,1-1.267,1.907l-1.133-.753a3.612,3.612,0,0,0,1.267-1.907Z" transform="translate(3519.794 -5538.985)"/><path class="z" d="M191.7,379.722a4.65,4.65,0,0,1-2.574-1.446l.857-1.527a4.67,4.67,0,0,0,2.574,1.448Z" transform="translate(3732.323 -5820.917)"/><path class="aa" d="M303.094,383.705a4.521,4.521,0,0,1-1.794-2.232l1.325-1.063a4.521,4.521,0,0,0,1.794,2.23Z" transform="translate(3642.367 -5823.853)"/><path class="ab" d="M340.95,341.351a3.04,3.04,0,0,1-1.907.259l-.152-1.133a3.046,3.046,0,0,0,1.907-.257Z" transform="translate(3612.221 -5791.621)"/><path class="ac" d="M367.534,269.5a2.683,2.683,0,0,1-1.485.828l-.489-.881a2.689,2.689,0,0,0,1.485-.828Z" transform="translate(3590.832 -5734.2)"/><path class="ad" d="M256.169,269.178a4.486,4.486,0,0,1-1.953,2.06L253,270.08a4.487,4.487,0,0,0,1.951-2.06Z" transform="translate(3681.102 -5733.719)"/><path class="ae" d="M251.866,332.455a3.479,3.479,0,0,1-1.139,1.883l-1.117-.675a3.479,3.479,0,0,0,1.139-1.883Z" transform="translate(3683.821 -5784.853)"/><path class="af" d="M216.2,322.008a4.228,4.228,0,0,1-2.4-1.188l.705-1.42a4.22,4.22,0,0,0,2.4,1.188Z" transform="translate(3712.539 -5774.924)"/><path class="ag" d="M154.46,372.234a2.4,2.4,0,0,1-1.287.792l-.473-.764a2.376,2.376,0,0,0,1.285-.792Z" transform="translate(3761.539 -5816.683)"/><path class="ah" d="M71.919,330.584a2.5,2.5,0,0,1-.446-1.519l.9-.265a2.493,2.493,0,0,0,.448,1.519Z" transform="translate(3826.682 -5782.463)"/><path class="ai" d="M239.914,153.329a3.826,3.826,0,0,1-.7-2.323l1.376-.416a3.836,3.836,0,0,0,.7,2.323Z" transform="translate(3692.16 -5639.544)"/><path class="aj" d="M160,86.126a3.622,3.622,0,0,1-1.612,1.63l-.968-.956a3.612,3.612,0,0,0,1.612-1.63Z" transform="translate(3757.754 -5587.08)"/><path class="ak" d="M373.307,250.477a3.929,3.929,0,0,1-2.477-.2l.121-1.469a3.929,3.929,0,0,0,2.477.2Z" transform="translate(3586.606 -5718.313)"/><path class="al" d="M362.488,180.7c-1.667.4-2.018-.349-2.018-.349l.067-.624s.351.751,2.018.349Z" transform="translate(3594.914 -5662.914)"/><path class="am" d="M382.744,146.406a3.446,3.446,0,0,1-.582-2.1l1.246-.345a3.44,3.44,0,0,0,.582,2.1Z" transform="translate(3577.522 -5634.227)"/><path class="an" d="M406.595,104.294a9.654,9.654,0,0,1-2.535-2.852l.594-.182a9.68,9.68,0,0,0,2.535,2.852Z" transform="translate(3559.957 -5599.983)"/><path class="ao" d="M111.34,132.081a1.889,1.889,0,0,1,1.188-.168l.1.7a1.879,1.879,0,0,0-1.188.168Z" transform="translate(3794.709 -5624.541)"/><path class="ap" d="M128.81,169.983c1.537-.762,2.046-.109,2.046-.109l.073.622s-.509-.654-2.046.109Z" transform="translate(3780.698 -5654.8)"/><path class="aq" d="M116.4,202.31a3.45,3.45,0,0,1,1.034,1.919l-1.137.614a3.444,3.444,0,0,0-1.034-1.919Z" transform="translate(3791.565 -5681.022)"/><path class="ar" d="M96.725,248.1a9.658,9.658,0,0,1,3.105,2.218l-.535.309a9.683,9.683,0,0,0-3.105-2.218Z" transform="translate(3806.859 -5717.744)"/><path class="as" d="M295.891,227.668a4.438,4.438,0,0,1-.792-2.693l1.6-.475a4.432,4.432,0,0,0,.8,2.693Z" transform="translate(3647.343 -5698.817)"/><path class="at" d="M379.531,208.364A3.21,3.21,0,0,1,378,207.039l.792-.909a3.2,3.2,0,0,0,1.531,1.325Z" transform="translate(3580.856 -5684.085)"/><path class="au" d="M417.717,288.36a4.832,4.832,0,0,1-2.426,1.854l-1.1-1.44a4.81,4.81,0,0,0,2.426-1.854Z" transform="translate(3551.833 -5748.876)"/><path class="av" d="M522.213,325.186a3.416,3.416,0,0,1-2.119.41l-.244-1.256a3.416,3.416,0,0,0,2.119-.41Z" transform="translate(3467.096 -5778.558)"/><path class="aw" d="M513.014,407.909c-1.782.253-5.394-.909-5.394-.909l.313-1.8s3.612,1.162,5.394.909Z" transform="translate(3476.905 -5843.733)"/><path class="ax" d="M560.015,450.427a3.379,3.379,0,0,1-1.675-1.337l.792-.99a3.39,3.39,0,0,0,1.677,1.337Z" transform="translate(3436.229 -5878.138)"/><path class="ay" d="M548.11,84.554a3.709,3.709,0,0,1-2.351.065l-.04-1.386a3.719,3.719,0,0,0,2.351-.063Z" transform="translate(3446.35 -5585.476)"/><path class="az" d="M450.141,69.545a4.026,4.026,0,0,1-.782-2.43l1.442-.465a4.034,4.034,0,0,0,.782,2.43Z" transform="translate(3523.628 -5572.227)"/><path class="ba" d="M402.919,53.533a2.471,2.471,0,0,1-1.523.382l-.226-.9a2.473,2.473,0,0,0,1.523-.382Z" transform="translate(3562.274 -5560.983)"/><path class="bb" d="M309.37,145.642a2.489,2.489,0,0,1-1.329.844l-.5-.792a2.489,2.489,0,0,0,1.329-.844Z" transform="translate(3637.363 -5634.941)"/><path class="bc" d="M128.228,447.226a3.711,3.711,0,0,1-2.351.065l-.038-1.386a3.71,3.71,0,0,0,2.351-.065Z" transform="translate(3783.08 -5876.325)"/><path class="bd" d="M156.722,20.781a4.026,4.026,0,0,1-.792-2.428l1.442-.463a4.03,4.03,0,0,0,.792,2.428Z" transform="translate(3758.949 -5533.123)"/><path class="be" d="M678.3,361.543a2.482,2.482,0,0,1-1.521.382l-.228-.9a2.487,2.487,0,0,0,1.523-.382Z" transform="translate(3341.428 -5807.998)"/><path class="bf" d="M620.29,43.528a2.488,2.488,0,0,1-1.319.848l-.5-.792a2.487,2.487,0,0,0,1.327-.844Z" transform="translate(3388.006 -5553.052)"/><path class="bg" d="M635.834,220.757a3.04,3.04,0,0,1-1.584,1.111l-.659-.935a3.06,3.06,0,0,0,1.584-1.113Z" transform="translate(3375.881 -5695.064)"/><path class="aa" d="M591.279,259.555c-1.093-.751-1.919-3.584-1.919-3.584l.535-.511s.826,2.834,1.919,3.586Z" transform="translate(3411.352 -5723.646)"/><path class="aw" d="M557.659,148.445a3.507,3.507,0,0,1-2.2.269l-.158-1.307a3.5,3.5,0,0,0,2.2-.267Z" transform="translate(3438.667 -5636.777)"/><path class="bh" d="M96.5,423.506a1.7,1.7,0,0,1-1.071.131L95.35,423a1.7,1.7,0,0,0,1.071-.131Z" transform="translate(3807.532 -5857.904)"/><path class="bi" d="M442.282,167.42a13.441,13.441,0,0,1-2.258,3.178l-.574-.62a13.486,13.486,0,0,0,2.258-3.168Z" transform="translate(3531.575 -5652.552)"/><path class="bj" d="M541.162-1.488a12.182,12.182,0,0,1-3.394.97l-.057-.762a12.234,12.234,0,0,0,3.394-.97Z" transform="translate(3452.773 -5516.971)"/><path class="bk" d="M449.883,116.188a3.19,3.19,0,0,1-2.01.17l-.1-1.188a3.19,3.19,0,0,0,2.01-.17Z" transform="translate(3524.902 -5611.002)"/><path class="bl" d="M387.813,169.353a3.222,3.222,0,0,1-1.137,1.7l-1.006-.673a3.232,3.232,0,0,0,1.137-1.7Z" transform="translate(3574.705 -5654.052)"/><path class="bm" d="M347.1,413.525a3.038,3.038,0,0,1-1.584,1.113l-.659-.935a3.059,3.059,0,0,0,1.584-1.113Z" transform="translate(3607.433 -5849.66)"/><path class="aa" d="M457.169,445.205c-1.093-.753-1.919-3.586-1.919-3.586l.533-.509s.828,2.832,1.921,3.584Z" transform="translate(3518.904 -5872.532)"/><path class="bi" d="M478.952,345.39a13.441,13.441,0,0,1-2.258,3.178l-.574-.62a13.487,13.487,0,0,0,2.258-3.169Z" transform="translate(3502.167 -5795.278)"/><path class="bn" d="M344.8,73.752a9.144,9.144,0,0,1-2.376.638l-.077-.271a11.322,11.322,0,0,0,2.343-.758Z" transform="translate(3609.446 -5577.608)"/><path class="bo" d="M346.184,133.872a2.772,2.772,0,0,1-.774-1.572l.467-.23a2.772,2.772,0,0,0,.772,1.572Z" transform="translate(3606.992 -5624.691)"/><path class="ac" d="M276.438,147.223a2.719,2.719,0,0,1-1.521.8l-.477-.9a2.721,2.721,0,0,0,1.523-.8Z" transform="translate(3663.908 -5636.12)"/><rect class="bp" width="1.036" height="1.539" transform="translate(3949.471 -5487.687) rotate(-64.76)"/><path class="bq" d="M332.3,153.741a2.438,2.438,0,0,1-1.386-.655l.4-.826a2.438,2.438,0,0,0,1.386.655Z" transform="translate(3618.621 -5640.883)"/><rect class="br" width="1.327" height="1.97" transform="translate(3967.03 -5499.215) rotate(-68.4)"/><path class="bs" d="M421.422,94.382a3.123,3.123,0,0,1-1.832-.725l.43-1.087a3.109,3.109,0,0,0,1.83.725Z" transform="translate(3547.502 -5593.014)"/><path class="bt" d="M128.318,294.313a2.614,2.614,0,0,1-1.188-1.158l.689-.705a2.622,2.622,0,0,0,1.188,1.16Z" transform="translate(3782.046 -5753.311)"/><path class="bu" d="M176.807,218.242a3.763,3.763,0,0,1-2.364.257l-.152-1.4a3.749,3.749,0,0,0,2.363-.257Z" transform="translate(3744.225 -5692.674)"/><path class="bv" d="M169.249,141.546a4.65,4.65,0,0,1-2.065,2.1l-1.244-1.228a4.648,4.648,0,0,0,2.067-2.093Z" transform="translate(3750.921 -5631.308)"/><path class="bw" d="M419.183,363.971a3.434,3.434,0,0,1-.943-1.962l1.166-.558a3.438,3.438,0,0,0,.941,1.963Z" transform="translate(3548.584 -5808.647)"/><path class="bx" d="M560.739,368.725a3.648,3.648,0,0,1-1.869-1.355l.8-1.111a3.636,3.636,0,0,0,1.869,1.355Z" transform="translate(3435.804 -5812.504)"/><path class="v" d="M613.84,309.74a3.606,3.606,0,0,1-.293-2.265l1.343-.174a3.624,3.624,0,0,0,.293,2.265Z" transform="translate(3392.008 -5765.221)"/><path class="by" d="M310,80.652a3.644,3.644,0,0,1-1.465-1.782L309.587,78a3.65,3.65,0,0,0,1.467,1.782Z" transform="translate(3636.569 -5581.329)"/><path class="bz" d="M363.434,46.265A3.6,3.6,0,0,1,363.726,44l1.345.172a3.6,3.6,0,0,0-.291,2.263Z" transform="translate(3592.592 -5554.062)"/><path class="ca" d="M372.515,111.12a3.329,3.329,0,0,1-.935-1.885l1.119-.554a3.329,3.329,0,0,0,.935,1.885Z" transform="translate(3586.005 -5605.934)"/><path class="cb" d="M247.365,84.15a3.246,3.246,0,0,1-1.945-.665l.4-1.155a3.246,3.246,0,0,0,1.945.665Z" transform="translate(3687.181 -5584.802)"/><path class="cc" d="M439.351,402.642a3.666,3.666,0,0,1-2.091-1.01l.594-1.242a3.665,3.665,0,0,0,2.093,1.01Z" transform="translate(3533.331 -5839.876)"/><path class="cd" d="M384.86,429.212a3.264,3.264,0,0,1-.85-1.887l1.119-.5a3.28,3.28,0,0,0,.85,1.887Z" transform="translate(3576.036 -5861.072)"/><path class="ce" d="M307.74,480.137a3.222,3.222,0,0,1-1.82.929l-.551-1.079a3.228,3.228,0,0,0,1.82-.927Z" transform="translate(3639.103 -5902.967)"/><path class="cf" d="M284.24,461.048A3.818,3.818,0,0,1,282.81,463l-1.16-.848a3.822,3.822,0,0,0,1.428-1.957Z" transform="translate(3658.125 -5887.842)"/><path class="cg" d="M467.333,29.58a17.1,17.1,0,0,0-2.293-1.614c.051.03-.555-.3-.553-.22.014,1.37-1.188,2.475-2.275,3.129a4.612,4.612,0,0,1-2.018.64,3.834,3.834,0,0,1-.915-.063,3.749,3.749,0,0,1-.416-.1c-.049-.014-.1-.034-.147-.051l-.176-.111a3.353,3.353,0,0,0-.808-.43c-.248-.067.091.255.075.24a8.831,8.831,0,0,0,.915.751c1.665,1.265,3.46,2.458,5.618,1.881,1.509-.4,3.4-1.9,3.384-3.608C467.723,29.871,467.416,29.653,467.333,29.58Z" transform="translate(3516.986 -5541.016)"/><path class="ch" d="M155.668,287.806a11.876,11.876,0,0,0-1.287-.552c-.436-.156-.877-.321-1.327-.444.055.016-.614-.154-.594-.075.354,1.323-.541,2.693-1.428,3.594a4.61,4.61,0,0,1-1.8,1.119,3.783,3.783,0,0,1-.9.166,3.9,3.9,0,0,1-.43,0,.582.582,0,0,1-.154-.014l-.2-.063a3.291,3.291,0,0,0-.9-.212c-.257,0,.151.224.131.214a8.98,8.98,0,0,0,1.073.5c1.929.814,3.961,1.525,5.909.432,1.362-.764,2.826-2.687,2.376-4.335C156.12,287.992,155.763,287.855,155.668,287.806Z" transform="translate(3766.457 -5748.711)"/><path class="ci" d="M372.306,377.149a3.645,3.645,0,0,0,2.315-2.41,4.239,4.239,0,0,1-1.608-.269,3.1,3.1,0,0,1-2.693,1.4c.04.022.792.7.9.735A3.581,3.581,0,0,0,372.306,377.149Z" transform="translate(3587.015 -5819.088)"/><path class="cj" d="M429.186,194.86l-.4,3.666c.014-.137,2.178-.061,2.2-.23l.4-3.666C431.376,194.765,429.212,194.689,429.186,194.86Z" transform="translate(3540.124 -5674.863)"/><path class="ck" d="M365.344,83.658l3.315,1.893c-.123-.069.848-2.1.7-2.178l-3.315-1.883c.123.069-.848,2.1-.7,2.178Z" transform="translate(3591.019 -5584.128)"/><path class="cl" d="M499.106,288.213a11.65,11.65,0,0,0-1.311-1.879,18.091,18.091,0,0,1-1.351-1.854,10.309,10.309,0,0,1-4.584,3.816c.265-.115,2.333,3.875,2.662,3.735A10.313,10.313,0,0,0,499.106,288.213Z" transform="translate(3489.543 -5746.919)"/><path class="cm" d="M187.94,101.678a7.809,7.809,0,0,0,1.275-.929,12.219,12.219,0,0,1,1.259-.955,7.129,7.129,0,0,1-2.691-3.105c.081.18-2.638,1.66-2.535,1.883A7.1,7.1,0,0,0,187.94,101.678Z" transform="translate(3735.439 -5596.318)"/><path class="cn" d="M508.59,233.284a10.136,10.136,0,0,0,3.105,3.741,2.662,2.662,0,0,0,.671.018h1.622c.541,0,.337.3.877.3a3.709,3.709,0,0,1,.671-.016,10.157,10.157,0,0,1-3.1-3.737c-.085-.174-1.358-.327-1.549-.327a13.977,13.977,0,0,1-2.293.024Z" transform="translate(3476.127 -5705.843)"/><path class="co" d="M260.33,386.065a13.024,13.024,0,0,0,5.137-3.543,3.3,3.3,0,0,0,.1-.855q.1-1.038.2-2.073t.176-2.071a4.762,4.762,0,0,1,.055-.861,13.011,13.011,0,0,1-5.135,3.543c-.234.089-.267,2.685-.289,2.929a17.994,17.994,0,0,1-.232,2.933Z" transform="translate(3675.224 -5820.845)"/><path class="cp" d="M274.243,113.234c-.107-.091-.739-.493-.754-.634.133,1.188-.822,1.937-1.713,2.521a3.009,3.009,0,0,1-2.446.527l1.048,1.1a2.835,2.835,0,0,0,2.9-.343c.893-.541,1.842-1.366,1.711-2.523C274.966,113.719,274.358,113.333,274.243,113.234Z" transform="translate(3668.006 -5609.077)"/><path class="cq" d="M229.884,302a.664.664,0,0,1,.323.277l-.164.2a.663.663,0,0,0-.323-.277Z" transform="translate(3699.772 -5760.97)"/><path class="cr" d="M232.7,287.01a.582.582,0,0,1,.362.034l-.02.216a.564.564,0,0,0-.362-.034Z" transform="translate(3697.398 -5748.937)"/><path class="cs" d="M247.13,280.616a.935.935,0,0,1,.457-.376l.224.271a.935.935,0,0,0-.457.376Z" transform="translate(3685.81 -5743.519)"/><path class="ct" d="M257.7,284.043a1.073,1.073,0,0,1,.683.038l-.022.4a1.081,1.081,0,0,0-.683-.036Z" transform="translate(3677.349 -5746.538)"/><path class="cu" d="M263.84,279.805a.84.84,0,0,1,.259-.455l.271.154a.826.826,0,0,0-.259.455Z" transform="translate(3672.408 -5742.805)"/><path class="cv" d="M283.012,276.81a.671.671,0,0,1,.42.087l-.053.25a.675.675,0,0,0-.418-.089Z" transform="translate(3657.075 -5740.765)"/><path class="cw" d="M302.93,294.338a1.016,1.016,0,0,1,.61-.2l.115.362a1.02,1.02,0,0,0-.612.2Z" transform="translate(3641.06 -5754.667)"/><path class="cx" d="M315.93,306.836a.9.9,0,0,1,.531-.186l.111.317a.886.886,0,0,0-.531.184Z" transform="translate(3630.634 -5764.699)"/><rect class="cy" width="0.648" height="0.436" transform="matrix(0.821, -0.571, 0.571, 0.821, 3991.82, -5466.395)"/><path class="cz" d="M544.62,263.26a1.022,1.022,0,0,1,.531-.37l.22.315a1.03,1.03,0,0,0-.533.37Z" transform="translate(3447.232 -5729.605)"/><path class="da" d="M567.94,281.017a1.109,1.109,0,0,1,.65-.267l.16.386a1.113,1.113,0,0,0-.652.267Z" transform="translate(3428.53 -5743.928)"/><path class="db" d="M557.53,296.16a.63.63,0,0,1,.329-.22l.131.2a.63.63,0,0,0-.329.22Z" transform="translate(3436.878 -5756.11)"/><path class="dc" d="M533.983,298.61a.594.594,0,0,1,.329.172l-.1.2a.578.578,0,0,0-.329-.172Z" transform="translate(3455.845 -5758.251)"/><path class="dd" d="M540.52,308.2a1.109,1.109,0,0,1,.669-.2l.119.4a1.113,1.113,0,0,0-.671.2Z" transform="translate(3450.52 -5765.78)"/><path class="de" d="M545.767,323.216a1.059,1.059,0,0,1,.661.1l-.057.4a1.063,1.063,0,0,0-.661-.1Z" transform="translate(3446.357 -5777.972)"/><path class="df" d="M525.09,330.477a.571.571,0,0,1,.259-.257l.152.154a.57.57,0,0,0-.259.257Z" transform="translate(3462.894 -5783.602)"/><path class="dg" d="M372.26,345.286a1.067,1.067,0,0,1,.212-.636l.376.125a1.068,1.068,0,0,0-.212.636Z" transform="translate(3585.459 -5795.174)"/><path class="dh" d="M363.28,367.456a.84.84,0,0,1,.354-.4l.232.21a.838.838,0,0,0-.356.4Z" transform="translate(3592.661 -5813.146)"/><path class="di" d="M347.609,371.44a.933.933,0,0,1,.4.44l-.259.232a.923.923,0,0,0-.4-.438Z" transform="translate(3605.436 -5816.659)"/><path class="dj" d="M329,391.6a.824.824,0,0,1,.228-.469l.277.135a.837.837,0,0,0-.228.469Z" transform="translate(3620.152 -5832.45)"/><path class="dk" d="M320.47,414.746a.967.967,0,0,1,.471-.4l.236.279a.966.966,0,0,0-.471.4Z" transform="translate(3626.993 -5851.071)"/><path class="dl" d="M442.113,110.63a.947.947,0,0,1,.568.2l-.113.337a.94.94,0,0,0-.568-.2Z" transform="translate(3529.53 -5607.498)"/><path class="dm" d="M429.71,118.147a1.065,1.065,0,0,1,.669-.069l.042.4a1.067,1.067,0,0,0-.669.069Z" transform="translate(3539.386 -5613.45)"/><path class="dn" d="M429.705,123.42a1.071,1.071,0,0,1,.529.432l-.255.315a1.093,1.093,0,0,0-.529-.434Z" transform="translate(3539.594 -5617.755)"/><path class="do" d="M408.14,143.323a1.172,1.172,0,0,1,.252-.693l.41.149a1.162,1.162,0,0,0-.25.693Z" transform="translate(3556.684 -5633.161)"/><path class="dp" d="M415.89,172.074a.675.675,0,0,1,.2-.384l.228.115a.7.7,0,0,0-.2.386Z" transform="translate(3550.469 -5656.465)"/><path class="dq" d="M430.162,176.731a.863.863,0,0,1,.067-.541l.321.038a.871.871,0,0,0-.067.543Z" transform="translate(3539.037 -5660.075)"/><path class="dr" d="M330.92,112.623a1.119,1.119,0,0,1,.7.034l-.02.416a1.119,1.119,0,0,0-.7-.034Z" transform="translate(3618.628 -5609.063)"/><path class="ds" d="M306.768,123.21a1.071,1.071,0,0,1,.62.283l-.168.366a1.085,1.085,0,0,0-.62-.283Z" transform="translate(3638.116 -5617.586)"/><path class="dt" d="M304.62,137.187a.725.725,0,0,1,.378-.257l.152.224a.729.729,0,0,0-.378.259Z" transform="translate(3639.704 -5628.589)"/><path class="du" d="M306.8,155.185a.642.642,0,0,1,.228-.335l.2.135a.641.641,0,0,0-.228.335Z" transform="translate(3637.956 -5642.96)"/><path class="dv" d="M442.1,340.146a1.06,1.06,0,0,1,.2-.646l.384.117a1.06,1.06,0,0,0-.2.646Z" transform="translate(3529.451 -5791.044)"/><path class="dw" d="M437.171,326.743a.826.826,0,0,1,.042-.523l.309.026a.817.817,0,0,0-.042.521Z" transform="translate(3533.422 -5780.394)"/><path class="dx" d="M445,325.462a1.008,1.008,0,0,1,.636,0v.378a.99.99,0,0,0-.636,0Z" transform="translate(3527.124 -5779.745)"/><path class="dy" d="M454.14,308.477a.563.563,0,0,1,.188-.307l.184.111a.568.568,0,0,0-.2.307Z" transform="translate(3519.794 -5765.918)"/><path class="dz" d="M476.174,308.33a.594.594,0,0,1,.257.275l-.164.152a.594.594,0,0,0-.257-.275Z" transform="translate(3502.255 -5766.046)"/><path class="ea" d="M406.99,282.31a.917.917,0,0,1,.4.42l-.25.236a.917.917,0,0,0-.4-.42Z" transform="translate(3557.807 -5745.18)"/><path class="eb" d="M431.34,288.339a.86.86,0,0,1,.168-.519l.309.1a.86.86,0,0,0-.168.519Z" transform="translate(3538.079 -5749.598)"/><path class="ec" d="M389.69,249.75a.929.929,0,0,1,.551-.22l.131.325a.939.939,0,0,0-.551.222Z" transform="translate(3571.481 -5718.891)"/><path class="ed" d="M399.22,264.285a1.111,1.111,0,0,1,.648-.265l.156.384a1.111,1.111,0,0,0-.65.265Z" transform="translate(3563.838 -5730.511)"/><path class="ee" d="M399.15,272.31a.816.816,0,0,1,.347.384l-.228.2a.814.814,0,0,0-.349-.384Z" transform="translate(3564.079 -5737.16)"/><path class="ef" d="M395.69,284.77a.99.99,0,0,1,.584.238l-.141.347a1.006,1.006,0,0,0-.594-.238Z" transform="translate(3566.789 -5747.152)"/><path class="eg" d="M345.525,189.52a1.047,1.047,0,0,1,.451.491l-.289.271a1.047,1.047,0,0,0-.457-.487Z" transform="translate(3607.136 -5670.765)"/><path class="eh" d="M330.469,203.662a.762.762,0,0,1,.467.119l-.069.277a.762.762,0,0,0-.467-.119Z" transform="translate(3619.03 -5682.104)"/><path class="ei" d="M312.73,189.614a1.151,1.151,0,0,1,.319-.653l.4.188a1.151,1.151,0,0,0-.319.654Z" transform="translate(3633.2 -5670.315)"/><path class="ej" d="M287.64,193.955a.82.82,0,0,1,.408-.315l.186.244a.81.81,0,0,0-.408.313Z" transform="translate(3653.322 -5674.068)"/><path class="ek" d="M280.28,174.98a1.16,1.16,0,0,1,.7-.212l.127.416a1.164,1.164,0,0,0-.7.212Z" transform="translate(3659.224 -5658.934)"/><path class="el" d="M266.121,171.367a.792.792,0,0,1,.5.1l-.061.3a.816.816,0,0,0-.5-.107Z" transform="translate(3670.628 -5656.202)"/><path class="em" d="M348.9,330.633a.881.881,0,0,1,.493-.263l.158.293a.883.883,0,0,0-.5.263Z" transform="translate(3604.193 -5783.722)"/><path class="en" d="M371.037,322.46a.949.949,0,0,1,.426.432l-.257.254a.958.958,0,0,0-.426-.434Z" transform="translate(3586.646 -5777.378)"/><path class="eo" d="M383.87,322.014a.594.594,0,0,1,.283-.244l.145.168a.574.574,0,0,0-.283.244Z" transform="translate(3576.148 -5776.825)"/><path class="ep" d="M393.93,292.221a.594.594,0,0,1,.2-.321l.2.113a.594.594,0,0,0-.2.321Z" transform="translate(3568.08 -5752.87)"/><path class="eq" d="M149.34,196.436a.731.731,0,0,1,.218-.406l.24.129a.735.735,0,0,0-.216.4Z" transform="translate(3764.234 -5675.985)"/><path class="er" d="M153.039,182.21a.858.858,0,0,1,.487.236l-.141.289a.834.834,0,0,0-.485-.236Z" transform="translate(3761.379 -5664.902)"/><path class="es" d="M173.43,203.681a.828.828,0,0,1,.44-.291l.172.259a.84.84,0,0,0-.44.293Z" transform="translate(3744.915 -5681.888)"/><path class="et" d="M194.52,183.964a.953.953,0,0,1,.135-.594l.345.079a.943.943,0,0,0-.133.594Z" transform="translate(3728.005 -5665.833)"/><path class="eu" d="M200.07,199.212a.755.755,0,0,1,.408-.252l.149.244a.756.756,0,0,0-.408.25Z" transform="translate(3723.55 -5678.335)"/><path class="ev" d="M207.739,180.8a.757.757,0,0,1,.061-.481l.285.036a.776.776,0,0,0-.061.481Z" transform="translate(3717.412 -5663.386)"/><path class="ew" d="M467.794,249.84a.816.816,0,0,1,.44.261l-.154.261a.8.8,0,0,0-.44-.261Z" transform="translate(3508.967 -5719.14)"/><path class="ex" d="M486.7,243.58a.83.83,0,0,1,.479.222l-.131.283a.834.834,0,0,0-.479-.22Z" transform="translate(3493.786 -5714.119)"/><path class="ey" d="M472.89,211.653a.652.652,0,0,1,.238-.333l.2.143a.64.64,0,0,0-.238.333Z" transform="translate(3504.757 -5688.248)"/><rect class="ez" width="0.366" height="0.248" transform="translate(3960.894 -5460.698) rotate(-1.38)"/><path class="fa" d="M388.27,293.333a.594.594,0,0,1,.366,0v.218a.57.57,0,0,0-.366,0Z" transform="translate(3572.619 -5753.996)"/><rect class="fb" width="0.469" height="0.315" transform="matrix(0.996, -0.087, 0.087, 0.996, 3958.283, -5456.34)"/><path class="fc" d="M375.11,315.251a.743.743,0,0,1,.467-.042l.024.277a.751.751,0,0,0-.467.04Z" transform="translate(3583.174 -5771.547)"/><rect class="fd" width="0.455" height="0.307" transform="translate(3963.126 -5455.266) rotate(-70.86)"/><path class="fe" d="M399.73,319.01a.723.723,0,0,1,.148-.43l.255.089a.723.723,0,0,0-.149.43Z" transform="translate(3563.429 -5774.267)"/><path class="ff" d="M445.541,204.59a.61.61,0,0,1,.376.121l-.071.222a.616.616,0,0,0-.376-.119Z" transform="translate(3526.747 -5682.85)"/><path class="fg" d="M451,226.047a.9.9,0,0,1,.475-.307l.182.281a.891.891,0,0,0-.475.309Z" transform="translate(3522.312 -5699.812)"/><path class="fh" d="M451.86,240.227a1.107,1.107,0,0,1,.216-.667l.4.129a1.117,1.117,0,0,0-.218.667Z" transform="translate(3521.623 -5710.895)"/><path class="fi" d="M288.68,240.13a.808.808,0,0,1,.408.317l-.188.244a.818.818,0,0,0-.41-.319Z" transform="translate(3652.64 -5711.353)"/><path class="fj" d="M257.833,254.606a.873.873,0,0,1,.543.089l-.053.323a.873.873,0,0,0-.543-.089Z" transform="translate(3677.269 -5722.953)"/><path class="fk" d="M253.267,272.24a.867.867,0,0,1,.3.45l-.267.18a.868.868,0,0,0-.3-.45Z" transform="translate(3681.102 -5737.104)"/><path class="fl" d="M383.508,305.79a.792.792,0,0,1,.4.3l-.178.236a.808.808,0,0,0-.4-.3Z" transform="translate(3576.581 -5764.01)"/><path class="fm" d="M405.16,300.787a.643.643,0,0,1,.41-.034l.02.244a.644.644,0,0,0-.41.034Z" transform="translate(3559.074 -5759.955)"/><path class="fn" d="M420.43,316.531a.78.78,0,0,1,.485-.065l.04.287a.78.78,0,0,0-.485.065Z" transform="translate(3546.828 -5772.561)"/><path class="fo" d="M325.2,197.74a.879.879,0,0,1,.552,0v.329a.862.862,0,0,0-.552,0Z" transform="translate(3623.2 -5677.321)"/><path class="fp" d="M334.254,185.8a.792.792,0,0,1,.382.311l-.184.226a.792.792,0,0,0-.382-.311Z" transform="translate(3616.086 -5667.781)"/><path class="fq" d="M345.2,166.926a.778.778,0,0,1,.289-.4l.232.172a.758.758,0,0,0-.287.4Z" transform="translate(3607.16 -5652.327)"/><path class="fr" d="M352.1,168.078a.909.909,0,0,1,.1-.568l.339.055a.909.909,0,0,0-.1.568Z" transform="translate(3601.632 -5653.113)"/><path class="fs" d="M161.509,393.285a17.512,17.512,0,0,1-1.481-2.772,2.222,2.222,0,0,1-.1-1.341,2.307,2.307,0,0,1,.7-1.083,3.23,3.23,0,0,1,.467-.354c.1-.024.2-.046.317-.069.253-.052.507-.1.76-.143a11.152,11.152,0,0,0,3.739-1.269,2.757,2.757,0,0,0,1.467-2,1.906,1.906,0,0,0,0-.3,4.533,4.533,0,0,0-.873.248c-.2.077-.4.158-.594.253-.014,0-.232.1-.226.148a2.339,2.339,0,0,1-1.17,2.085l-.046.028-.226.049c-.485.1-1.054.323-1.541.424a10.567,10.567,0,0,0-2,.5,6.337,6.337,0,0,0-1.555.85,2.245,2.245,0,0,0-.905,2.3,6.027,6.027,0,0,0,.584,1.36c.255.5.533.99.822,1.459.4.65.99,1.557.424,2.285h0c-.479.034-.964,0-1.442,0a17.581,17.581,0,0,0-3.064.069,8.822,8.822,0,0,0-1.929.533,4.887,4.887,0,0,0-1.727.966,3.923,3.923,0,0,0-.889,2.772,11.2,11.2,0,0,1-.182,3.034,4.026,4.026,0,0,1-1.7,2.258l-.1.059c.014,0-.18.1-.061.091a1.66,1.66,0,0,0,.4-.1,6,6,0,0,0,1.145-.471A4.388,4.388,0,0,0,152.405,403a7.6,7.6,0,0,0,.3-2.994,4.517,4.517,0,0,1,.687-2.9,2.18,2.18,0,0,1,.41-.4,8.535,8.535,0,0,1,1.121-.115c1.024-.047,2.05.038,3.073.042a5.514,5.514,0,0,0,1.45-.182,9.753,9.753,0,0,0,1.362-.5,3.039,3.039,0,0,0,.778-.455C162.295,394.869,161.9,393.952,161.509,393.285Z" transform="translate(3764.559 -5826.683)"/><path class="ft" d="M226.5,386.593c-.087.1-.174.2-.267.289l-.1.091a8.8,8.8,0,0,0,1.693-.76,2.757,2.757,0,0,0,1.467-2,1.906,1.906,0,0,0,0-.3,4.542,4.542,0,0,0-.873.248c-.2.077-.4.158-.594.253-.014,0-.232.1-.226.149A2.341,2.341,0,0,1,226.5,386.593Z" transform="translate(3702.651 -5826.651)"/><path class="fu" d="M152.71,450.107a4.535,4.535,0,0,1,.687-2.9,2.176,2.176,0,0,1,.41-.4h.038a2.935,2.935,0,0,1,.453-.386c-.222.071-.444.151-.661.234a4.887,4.887,0,0,0-1.727.966,3.923,3.923,0,0,0-.889,2.772,11.2,11.2,0,0,1-.182,3.034,4.026,4.026,0,0,1-1.7,2.258l-.1.059c.014,0-.18.1-.061.091a1.662,1.662,0,0,0,.4-.1,6,6,0,0,0,1.145-.471,4.388,4.388,0,0,0,1.891-2.153A7.966,7.966,0,0,0,152.71,450.107Z" transform="translate(3764.559 -5876.798)"/><path class="fv" d="M198.966,408.84a17.511,17.511,0,0,1-1.481-2.772,2.222,2.222,0,0,1-.1-1.341,2.307,2.307,0,0,1,.7-1.083,3.067,3.067,0,0,1,.38-.3,1.928,1.928,0,0,0-.648.042,5.745,5.745,0,0,0-1.212.7,2.245,2.245,0,0,0-.905,2.3,6.031,6.031,0,0,0,.584,1.36c.255.5.533.99.822,1.459.372.614.925,1.456.507,2.163a.4.4,0,0,1,.093.358c.188-.073.374-.152.558-.232a3.039,3.039,0,0,0,.778-.455C199.752,410.425,199.362,409.508,198.966,408.84Z" transform="translate(3727.102 -5842.239)"/><path class="fw" d="M497.621,135.556c-.224,2.363,1.1,4.571,3.685,4.335,1.959-.178,4.024-.461,4.786-2.588-.075.212-1.549-.067-1.632.164a3.608,3.608,0,0,1-1.4,1.782,4.072,4.072,0,0,1-1.065.493q-.558.137.216,0a3.3,3.3,0,0,1-.76-.137c-1.8-.479-2.347-2.6-2.192-4.216-.01.093-1.622.048-1.634.164Z" transform="translate(3484.943 -5627.354)"/><path class="fx" d="M524.2,145.05c-.075.212-1.549-.067-1.632.164a3.609,3.609,0,0,1-1.4,1.782,3.921,3.921,0,0,1-.99.467c.1.018.22.036.341.051C522.095,147.29,523.576,146.779,524.2,145.05Z" transform="translate(3466.84 -5635.101)"/><path class="fy" d="M515.24,177.07Z" transform="translate(3470.794 -5664.938)"/><path class="fz" d="M418.707-13.811a4.455,4.455,0,0,0-.049-.836,1.076,1.076,0,0,0-.156-.5.721.721,0,0,0-.356-.22c-.164-.059-.331-.113-.5-.16a5.387,5.387,0,0,0-.99-.182,6.408,6.408,0,0,1-2.39-.222.375.375,0,0,0-.022.05,1.115,1.115,0,0,0,.273.669,1.5,1.5,0,0,0,.848.339,7.723,7.723,0,0,0,1.008.044,5.545,5.545,0,0,1,1.964.4.622.622,0,0,1,.216.143l-.024.069a1.663,1.663,0,0,1-.642.792,3.372,3.372,0,0,1-1.808.5c-.612.028-1.21-.034-1.82-.024a5.065,5.065,0,0,0-.919.1,1.812,1.812,0,0,0-.881.416,1.636,1.636,0,0,0-.507.99,3.543,3.543,0,0,0,.03.792,2.123,2.123,0,0,0,.131.594,1.459,1.459,0,0,0,.5.564c.259.2.523.38.774.594s.525.452.776.7a1.937,1.937,0,0,1,.3.378.51.51,0,0,1,.038.065c-.178.642-.85.81-1.238,1.008a1.386,1.386,0,0,0-.618.582,3.215,3.215,0,0,0-.242,1.157,2.293,2.293,0,0,0,.026.562,2.249,2.249,0,0,0,.04.261c0-.01.02.1.028.034a2.834,2.834,0,0,1,.317-1.263,1.638,1.638,0,0,1,.76-.543,2.05,2.05,0,0,0,.792-.5,1.515,1.515,0,0,0,.277-1.149,2.2,2.2,0,0,0-.345-1.244,5.226,5.226,0,0,0-.7-.687,10.116,10.116,0,0,0-.816-.655,2.738,2.738,0,0,1-.622-.535,1.027,1.027,0,0,1-.067-.1,1.612,1.612,0,0,1,.111-.263,1.584,1.584,0,0,1,.78-.719,2.882,2.882,0,0,1,.913-.2,7.456,7.456,0,0,1,.915-.022,11.444,11.444,0,0,0,1.822-.022,2.544,2.544,0,0,0,1.735-.828,1.675,1.675,0,0,0,.349-.921Z" transform="translate(3553.637 -5506)"/><path class="ga" d="M418.707-8.935a4.455,4.455,0,0,0-.049-.836.218.218,0,0,0-.01-.079,1.847,1.847,0,0,1-.119.426l.016.014-.024.069a1.663,1.663,0,0,1-.642.792,3.372,3.372,0,0,1-1.808.5c-.612.028-1.21-.034-1.82-.024a5.066,5.066,0,0,0-.913.1,1.812,1.812,0,0,0-.881.416,1.636,1.636,0,0,0-.507.99,3.543,3.543,0,0,0,.03.792,1.222,1.222,0,0,0,.022.168V-5.7a.883.883,0,0,1,.109-.341c.026-.067.055-.131.087-.2a1.584,1.584,0,0,1,.78-.719,2.881,2.881,0,0,1,.913-.2,7.456,7.456,0,0,1,.915-.022,11.445,11.445,0,0,0,1.822-.022,2.544,2.544,0,0,0,1.735-.828A1.675,1.675,0,0,0,418.707-8.935Z" transform="translate(3553.637 -5510.876)"/><path class="gb" d="M416.416,23.835a4.852,4.852,0,0,0-.059-.535.363.363,0,0,1-.012.05,1.028,1.028,0,0,1-.067.335h0c-.178.642-.85.81-1.238,1.008a1.386,1.386,0,0,0-.618.582,2.957,2.957,0,0,0-.23,1.059,2.028,2.028,0,0,0-.022.226c0,.339.079.84.1.729a4.021,4.021,0,0,1,.477-1.45,2.018,2.018,0,0,1,.594-.356,2.05,2.05,0,0,0,.792-.5A1.483,1.483,0,0,0,416.416,23.835Z" transform="translate(3551.849 -5537.461)"/><path class="gc" d="M70.315,179.45c.727-.364.628-1.289.572-1.97-.063-.77-.048-1.454.576-1.869-.232.1-.43.158-.725.289a1.636,1.636,0,0,0-.857,1.759c.032.7.263,1.782-.521,2.178.224-.113.667-.248.955-.4Z" transform="translate(3828.375 -5659.609)"/><path class="gd" d="M43.32,187.361a17.149,17.149,0,0,0,3.228,1.584,2.341,2.341,0,0,0,1.456.2,5.87,5.87,0,0,0,1.267-.509c-.293.186-.707.2-1,.376a.934.934,0,0,1-.184.1l.933-.354-.1.036.069-.024a3.932,3.932,0,0,1-2.267-.523,16.831,16.831,0,0,1-2.4-1.265c-.057-.036-.444.16-.5.182a2.418,2.418,0,0,1-.5.2Z" transform="translate(3849.259 -5668.726)"/><path class="ge" d="M93.521,177.154a.947.947,0,0,0,.852-.743c.139-.5.271-.911.81-1.091-.331.111-.729.022-1.061.135a1.147,1.147,0,0,0-.762.885c-.109.44-.252.792-.725.923l.071-.012-.1.014c-.2.028.164-.014.2-.016.242-.03.485-.059.727-.1Z" transform="translate(3809.783 -5659.376)"/><path class="gf" d="M77.659,175.08a1.038,1.038,0,0,1,.792.1h0c.636.339,1.129,1.2,1.683,1.537a1.385,1.385,0,0,0,1.158.051,1.347,1.347,0,0,0,.356-.1l.17-.049a1.735,1.735,0,0,1-.9-.4h0c-.422-.325-.77-.82-1.166-1.158a1.21,1.21,0,0,0-1.1-.293h.012l-.038.012H78.59a5.026,5.026,0,0,0-.99.309Z" transform="translate(3821.767 -5658.909)"/><path class="gg" d="M675.93,234.365a3.814,3.814,0,0,0-.335-1.648,2.61,2.61,0,0,0-1.507-1.527,1.745,1.745,0,0,0-2.178.331c-.56.57-1,1.42-1.925,1.353.038.117.077.234.115.352l-.25-.782c-.024-.077-.107-.315-.111-.335.055.2.119.4.182.594l.25.782a1.96,1.96,0,0,0,.115.351c1.283.093,1.652-1.539,2.745-1.9a2.549,2.549,0,0,1,1.905.5,2.594,2.594,0,0,1,.665.624c.182.236.154.535.042-.113a1.6,1.6,0,0,1,0,.455c-.04.3.339.659.3.958Z" transform="translate(3346.889 -5703.996)"/><path class="gh" d="M442.349,263.233c.25.582-.275,1.081-.65,1.46-.424.426-.758.84-.594,1.4-.087-.176-.176-.309-.285-.535a1.27,1.27,0,0,1,.374-1.477c.39-.42,1.054-.933.792-1.56.077.18.273.483.372.713Z" transform="translate(3530.567 -5729.309)"/><path class="gi" d="M427.58,254.23a13.173,13.173,0,0,1,2.711.683,1.8,1.8,0,0,1,.964.616,4.52,4.52,0,0,1,.5.937c-.081-.257-.325-.465-.4-.727a.832.832,0,0,0-.057-.152l.376.677-.042-.069.03.05a3.045,3.045,0,0,0-1.61-.828,13.067,13.067,0,0,0-2.056-.459c-.053,0-.184-.319-.208-.362s-.156-.358-.2-.364Z" transform="translate(3541.094 -5722.66)"/><path class="gj" d="M455.1,281.725a.739.739,0,0,1,.135.871,1.008,1.008,0,0,0-.067,1.054c-.141-.232-.422-.378-.564-.612a.9.9,0,0,1,0-.911.814.814,0,0,0,.032-.911l.038.044-.053-.061c-.1-.115.089.089.1.107.129.139.257.277.384.42Z" transform="translate(3519.526 -5744.26)"/><path class="gk" d="M441.8,278.864a.806.806,0,0,0,.523.343h0c.547.117,1.275-.149,1.772-.069a1.075,1.075,0,0,1,.715.551,1.045,1.045,0,0,1,.16.24l.077.115a1.368,1.368,0,0,0-.735-.222h0c-.414-.02-.869.1-1.273.1a.941.941,0,0,1-.8-.38v.01l-.016-.026-.018-.022a3.942,3.942,0,0,1-.426-.675A.279.279,0,0,0,441.8,278.864Z" transform="translate(3529.706 -5742.389)"/><path class="gl" d="M551.434,343.451a1.562,1.562,0,0,0,1.129.014c.511-.127,1.016-.273,1.521-.414s1.012-.279,1.523-.4l.075-.018c-.158.145-.327.277-.491.41a22.506,22.506,0,0,0-1.812,1.608c-.139.137-.275.277-.41.418a1.1,1.1,0,0,0-.3.4.3.3,0,0,0,.024.2,4.338,4.338,0,0,0,.37.654,1.653,1.653,0,0,0,.317.4.422.422,0,0,0,.236.057,10.349,10.349,0,0,0,2.19-.216c.452-.079.9-.164,1.357-.232.119-.018.24-.034.36-.048a5.169,5.169,0,0,1-.711.7,4.029,4.029,0,0,0-.756.8.565.565,0,0,0-.1.424,1.791,1.791,0,0,0,.23.461c.083.141.17.281.263.416a1.226,1.226,0,0,0,.208.255.461.461,0,0,0,.4.057c.2-.034.408-.075.608-.127a6.631,6.631,0,0,0,.727-.238c-.107.2-.226.4-.321.594a1.551,1.551,0,0,0-.137,1.1,2.923,2.923,0,0,0,.378.689,3.038,3.038,0,0,0,.222.309s.1.109.073.032a1.788,1.788,0,0,1,.3-1.368,5.69,5.69,0,0,0,.356-.713.875.875,0,0,0-.022-.689.354.354,0,0,0-.055-.117,4.934,4.934,0,0,0-.515-.818.671.671,0,0,0-.291-.25c-.242-.081-.523.1-.747.182l-.1.036a5.743,5.743,0,0,0,.426-.4,2.178,2.178,0,0,0,.543-.81.791.791,0,0,0,.048-.436,1.85,1.85,0,0,0-.23-.465,2.849,2.849,0,0,0-.469-.673.524.524,0,0,0-.4-.111,4.894,4.894,0,0,0-.564.049c-.366.042-.731.1-1.1.166-.541.1-1.081.2-1.626.263q.331-.321.671-.63c.3-.271.616-.535.933-.792a9.312,9.312,0,0,0,.778-.669,2.022,2.022,0,0,0,.527-.826.319.319,0,0,0-.026-.226,4.037,4.037,0,0,0-.37-.655c-.135-.2-.257-.446-.529-.473a1.965,1.965,0,0,0-.511.065c-.2.036-.4.079-.606.123-.4.087-.772.186-1.155.291-.554.148-1.1.309-1.657.457a2.04,2.04,0,0,1-1.4.091c-.061-.032-.014.061,0,.079a2.915,2.915,0,0,0,.178.339c.081.141.168.279.263.414A.562.562,0,0,0,551.434,343.451Z" transform="translate(3442.287 -5792.52)"/><path class="gm" d="M589.89,393.87Z" transform="translate(3410.927 -5834.647)"/><path d="M597.89,393.93Z" transform="translate(3404.511 -5834.695)"/><path class="gn" d="M587.4,375.176l-.03-.036a1.337,1.337,0,0,1-.25,1.01c-.107.2-.226.4-.321.594a1.55,1.55,0,0,0-.137,1.1,2.925,2.925,0,0,0,.378.689,3.043,3.043,0,0,0,.222.309s.1.109.073.032a1.788,1.788,0,0,1,.3-1.368,5.693,5.693,0,0,0,.357-.713.875.875,0,0,0-.022-.689.354.354,0,0,0-.055-.117A4.932,4.932,0,0,0,587.4,375.176Z" transform="translate(3413.551 -5819.626)"/><path class="go" d="M578.1,366.234c.119-.018.24-.034.36-.048a5.169,5.169,0,0,1-.711.7,4.029,4.029,0,0,0-.756.8.564.564,0,0,0-.1.424,1.792,1.792,0,0,0,.23.461c.083.141.17.281.263.416a1.8,1.8,0,0,0,.152.2c0-.463.824-1.174.824-1.174l.143-.1-.046.016a5.743,5.743,0,0,0,.426-.4,2.177,2.177,0,0,0,.543-.81.791.791,0,0,0,.048-.436S579.389,366.014,578.1,366.234Z" transform="translate(3421.355 -5812.415)"/><path class="fy" d="M573.69,348.33Z" transform="translate(3423.918 -5798.125)"/><path class="gp" d="M563.252,347.4c-.152.139-.317.269-.477.4a22.506,22.506,0,0,0-1.812,1.608c-.139.137-.275.277-.41.418a1.1,1.1,0,0,0-.3.4.3.3,0,0,0,.024.2,4.338,4.338,0,0,0,.37.654,1.652,1.652,0,0,0,.317.4h0l-.04-.093s-.028-.36.818-1.008q.331-.321.671-.63c.3-.271.616-.535.933-.792a9.313,9.313,0,0,0,.778-.669,2.021,2.021,0,0,0,.527-.826.308.308,0,0,0,0-.127C564.647,347.293,564.512,347.143,563.252,347.4Z" transform="translate(3434.703 -5797.261)"/><path class="gq" d="M291.628,187.518a.915.915,0,0,0-.154.632c0,.3.022.606.036.909s.024.606.024.907v.044c-.059-.109-.113-.22-.166-.331a13.1,13.1,0,0,0-.667-1.226c-.059-.1-.121-.2-.182-.285a.624.624,0,0,0-.182-.222.155.155,0,0,0-.115-.012,2.284,2.284,0,0,0-.416.123.925.925,0,0,0-.269.125.24.24,0,0,0-.061.125,5.966,5.966,0,0,0-.164,1.259c-.014.263-.026.527-.048.792a1.487,1.487,0,0,1-.02.2,3.019,3.019,0,0,1-.3-.491,2.261,2.261,0,0,0-.352-.529.327.327,0,0,0-.226-.109,1.1,1.1,0,0,0-.289.069c-.089.03-.18.059-.267.1a.674.674,0,0,0-.17.081.267.267,0,0,0-.083.214c0,.119-.01.24,0,.358a4.078,4.078,0,0,0,.038.44c-.1-.087-.2-.178-.293-.257a.881.881,0,0,0-.594-.222,1.781,1.781,0,0,0-.438.123,1.987,1.987,0,0,0-.2.085s-.073.042-.028.038a1.021,1.021,0,0,1,.731.347,3.11,3.11,0,0,0,.354.291.5.5,0,0,0,.4.079.2.2,0,0,0,.073-.018,2.745,2.745,0,0,0,.525-.182.4.4,0,0,0,.18-.131c.077-.125.01-.307,0-.444v-.061c.053.1.1.2.164.289a1.291,1.291,0,0,0,.384.41.45.45,0,0,0,.24.083,1.113,1.113,0,0,0,.291-.067,1.661,1.661,0,0,0,.44-.176.307.307,0,0,0,.113-.2c.022-.1.034-.216.046-.323.024-.212.038-.426.049-.638.018-.317.03-.634.063-.947.091.15.18.3.265.457.115.2.222.416.325.628a5.033,5.033,0,0,0,.273.523,1.188,1.188,0,0,0,.4.406.2.2,0,0,0,.131.014,2.377,2.377,0,0,0,.416-.123c.133-.05.283-.087.335-.236a1.132,1.132,0,0,0,.03-.3c0-.119,0-.238.01-.356,0-.23,0-.459-.012-.687-.014-.331-.032-.661-.042-.99,0-.257-.048-.594.131-.792.026-.03-.034-.016-.044-.014a1.541,1.541,0,0,0-.214.055q-.137.042-.267.1A.444.444,0,0,0,291.628,187.518Z" transform="translate(3654.617 -5668.98)"/><path class="gm" d="M286.14,203.1Z" transform="translate(3654.525 -5681.655)"/><path d="M285.07,207.59Z" transform="translate(3655.383 -5685.256)"/><path class="gr" d="M288.061,202.812l.024-.012a.776.776,0,0,1-.535-.271c-.1-.087-.2-.178-.293-.257a.881.881,0,0,0-.594-.222,1.782,1.782,0,0,0-.438.123,1.979,1.979,0,0,0-.2.085s-.073.042-.028.038a1.021,1.021,0,0,1,.731.347,3.115,3.115,0,0,0,.354.291.5.5,0,0,0,.4.079.2.2,0,0,0,.073-.018A2.746,2.746,0,0,0,288.061,202.812Z" transform="translate(3654.649 -5680.813)"/><path class="gs" d="M295.93,199a1.486,1.486,0,0,1-.02.2,3.021,3.021,0,0,1-.3-.491,2.259,2.259,0,0,0-.352-.529.327.327,0,0,0-.226-.109,1.1,1.1,0,0,0-.289.069c-.089.03-.18.059-.267.1a1.1,1.1,0,0,0-.135.057c.261.061.555.616.555.616l.038.093v-.026c.053.1.1.2.164.289a1.291,1.291,0,0,0,.384.41.449.449,0,0,0,.24.083S295.887,199.757,295.93,199Z" transform="translate(3647.948 -5677.622)"/><path class="fy" d="M313.84,199.92Z" transform="translate(3632.31 -5679.105)"/><path class="gt" d="M305.742,192.611c-.057-.1-.109-.214-.16-.321a13.093,13.093,0,0,0-.667-1.226c-.059-.1-.121-.2-.182-.285a.624.624,0,0,0-.182-.222.155.155,0,0,0-.115-.012,2.288,2.288,0,0,0-.416.123.925.925,0,0,0-.269.125h0l.057-.012s.2.032.459.594c.091.15.18.3.265.457.115.2.222.416.325.628a5.038,5.038,0,0,0,.273.523,1.188,1.188,0,0,0,.4.406.144.144,0,0,0,.069.018C305.617,193.4,305.72,193.344,305.742,192.611Z" transform="translate(3640.402 -5671.582)"/><rect class="gu" width="148" height="99" transform="translate(3884 -5518.93)"/></g></svg>