<svg xmlns="http://www.w3.org/2000/svg" xmlns:xlink="http://www.w3.org/1999/xlink" width="140" height="102" viewBox="0 0 140 102"><defs><style>.a{fill:none;}.b{fill:#fff;}.c,.j{fill:#606060;}.c,.i{opacity:0.1;}.d{fill:#f45b55;}.e{fill:#fff2f1;}.f,.g{fill:#fab0ad;}.g{opacity:0.2;}.h{clip-path:url(#a);}.k{clip-path:url(#b);}.l{fill:#4c4c4c;}.m{fill:#ffaaab;}.n{fill:#ff9a9b;}.o{fill:#ffc6bf;}.p{fill:#ffb5b6;}</style><clipPath id="a"><path class="a" d="M338.221,260.362l-26.112-4.6c-2.917-.514-18.234-1.2-17.723-4.1l-.968-15.139a27.677,27.677,0,0,1,13.058-25.3c2.586-1.6,5.169-3.1,7.393-4.286a8.9,8.9,0,0,1,10.33,1.419l19.833,18.924a5.4,5.4,0,0,1,4.375,6.236l-3.949,22.463a5.4,5.4,0,0,1-6.236,4.375Z" transform="translate(-293.362 -205.902)"/></clipPath><clipPath id="b"><path class="a" d="M341.552,268.7l-26.112-4.592c-2.917-.511-18.234-1.2-17.719-4.1l-.971-15.139a27.68,27.68,0,0,1,13.058-25.3c2.586-1.6,5.17-3.1,7.4-4.286a8.894,8.894,0,0,1,10.326,1.422l19.836,18.924a5.4,5.4,0,0,1,4.372,6.239l-3.946,22.444A5.4,5.4,0,0,1,341.552,268.7Z" transform="translate(-296.692 -214.242)"/></clipPath></defs><g transform="translate(-2684.239 6412.722)"><path class="b" d="M52.957,194.26l41.889-41.889a3.832,3.832,0,0,0,0-5.4h0a3.835,3.835,0,0,0-5.4,0L47.57,188.857a3.819,3.819,0,1,0,5.4,5.4Z" transform="translate(2642.271 -6545.78)"/><path class="b" d="M80.575,212.412a3.829,3.829,0,0,0-5.4,0L33.286,254.3a3.82,3.82,0,0,0,5.4,5.4l41.889-41.873A3.829,3.829,0,0,0,80.575,212.412Z" transform="translate(2652 -6590.677)"/><path class="b" d="M80.566,206.552,108.817,178.3a3.785,3.785,0,0,0,2.091-1.063L152.8,135.352a3.829,3.829,0,0,0,0-5.4h0a3.829,3.829,0,0,0-5.4,0L119.15,158.2a3.785,3.785,0,0,0-2.094,1.063L75.166,201.152a3.82,3.82,0,0,0,5.4,5.4Z" transform="translate(2623.329 -6534.129)"/><path class="b" d="M127.551,273.272h0a3.829,3.829,0,0,0-5.4,0L80.262,315.161a3.829,3.829,0,0,0,0,5.4h0a3.829,3.829,0,0,0,5.4,0l41.889-41.889A3.829,3.829,0,0,0,127.551,273.272Z" transform="translate(2619.886 -6632.396)"/><path class="b" d="M247.142,153.681h0a3.829,3.829,0,0,0,5.4,0l41.889-41.889a3.829,3.829,0,0,0,0-5.4h0a3.829,3.829,0,0,0-5.4,0l-41.889,41.889A3.829,3.829,0,0,0,247.142,153.681Z" transform="translate(2506.101 -6518)"/><path class="b" d="M201.728,181.227l41.889-41.813a3.816,3.816,0,0,0-5.4-5.39l-32.708,32.648a3.786,3.786,0,0,0-1.558.945l-41.889,41.8a3.817,3.817,0,0,0,0,5.39h0a3.834,3.834,0,0,0,5.4,0l32.708-32.648A3.786,3.786,0,0,0,201.728,181.227Z" transform="translate(2564.5 -6536.964)"/><path class="b" d="M299.71,138.46a3.834,3.834,0,0,0-5.4,0l-41.889,41.809a3.826,3.826,0,0,0-.631.828L222.9,209.933a3.816,3.816,0,1,0,5.4,5.393l41.892-41.809a3.745,3.745,0,0,0,.631-.831l28.891-28.836A3.817,3.817,0,0,0,299.71,138.46Z" transform="translate(2522.855 -6539.955)"/><path class="b" d="M338.767,207.16l-41.889,41.889a3.835,3.835,0,0,0,0,5.4h0a3.832,3.832,0,0,0,5.4,0l41.889-41.889a3.819,3.819,0,1,0-5.4-5.4Z" transform="translate(2472.204 -6587.073)"/><circle class="b" cx="2.476" cy="2.476" r="2.476" transform="translate(2776.74 -6407.63) rotate(-45)"/><circle class="b" cx="3.444" cy="3.444" r="3.444" transform="matrix(1, -0.014, 0.014, 1, 2808.449, -6411.788)"/><circle class="b" cx="3.444" cy="3.444" r="3.444" transform="translate(2718.876 -6321.374)"/><circle class="b" cx="2.422" cy="2.422" r="2.422" transform="translate(2762.208 -6330.271)"/><circle class="b" cx="2.422" cy="2.422" r="2.422" transform="matrix(0.973, -0.231, 0.231, 0.973, 2691.807, -6324.076)"/><path class="b" d="M51.742,247.025A2.422,2.422,0,1,0,49.32,244.6a2.422,2.422,0,0,0,2.422,2.422Z" transform="translate(2640.306 -6611.79)"/><circle class="b" cx="2.422" cy="2.422" r="2.422" transform="translate(2759.162 -6406.078) rotate(-9.2)"/><path class="c" d="M185.753,203.378l-10.645-1.864V173.443a8.653,8.653,0,0,0-8.674-8.633H70.581a8.653,8.653,0,0,0-8.671,8.639v45.469a8.65,8.65,0,0,0,8.671,8.633H149.3a5.413,5.413,0,0,0,4.37,4.293l26.238,4.592a5.427,5.427,0,0,0,6.259-4.384l3.965-22.447A5.405,5.405,0,0,0,185.753,203.378Z" transform="translate(2631.688 -6558.906)"/><path class="d" d="M55.087,174.06h7.254v15.455H55.087a7.727,7.727,0,0,1-7.727-7.727h0A7.724,7.724,0,0,1,55.087,174.06Z" transform="translate(2641.648 -6565.125)"/><path class="e" d="M77.138,154.67H178.979a5.693,5.693,0,0,1,5.708,5.677V217.4H77.138a5.693,5.693,0,0,1-5.708-5.677v-51.37a5.662,5.662,0,0,1,1.67-4.019,5.724,5.724,0,0,1,4.039-1.665Z" transform="translate(2625.17 -6551.874)"/><path class="f" d="M109.336,149.849H57.7a11.04,11.04,0,0,0-10.343,7.177h0v-9.4a8.831,8.831,0,0,1,8.831-8.816h53.146a5.52,5.52,0,0,1,5.52,5.52h0A5.523,5.523,0,0,1,109.336,149.849Z" transform="translate(2641.649 -6540.956)"/><path class="b" d="M92.4,145.47l1.053,1.744,1.987.464-1.334,1.542.173,2.034-1.88-.795-1.88.795.173-2.034-1.334-1.542,1.987-.464Z" transform="translate(2612.895 -6545.515)"/><path class="b" d="M124.161,145.47l1.057,1.744,1.987.464-1.334,1.542.17,2.034-1.88-.795-1.877.795.17-2.034-1.334-1.542,1.987-.464Z" transform="translate(2591.281 -6545.515)"/><path class="b" d="M155.924,145.47l1.053,1.744,1.987.464-1.334,1.542.173,2.034-1.88-.795-1.88.795.173-2.034-1.337-1.542,1.987-.464Z" transform="translate(2569.585 -6545.515)"/><path class="b" d="M187.691,145.47l1.053,1.744,1.987.464L189.4,149.22l.173,2.034-1.88-.795-1.88.795.173-2.034-1.334-1.542,1.984-.464Z" transform="translate(2547.881 -6545.515)"/><path class="b" d="M219.451,145.47l1.057,1.744,1.984.464-1.334,1.542.173,2.034-1.88-.795-1.88.795.173-2.034-1.334-1.542,1.987-.464Z" transform="translate(2526.185 -6545.515)"/><path class="d" d="M102.806,240.285h0a.946.946,0,0,1-.946-.946V210.006a.946.946,0,0,1,.946-.946h0a.946.946,0,0,1,.946.946v29.333A.946.946,0,0,1,102.806,240.285Z" transform="translate(2604.338 -6589.119)"/><g transform="translate(2714.603 -6375.417)"><path class="g" d="M175.817,225.918H128.929a1.076,1.076,0,0,1-1.069-1.069h0a1.072,1.072,0,0,1,1.069-1.069h46.888a1.069,1.069,0,0,1,1.069,1.069h0A1.072,1.072,0,0,1,175.817,225.918Z" transform="translate(-127.86 -223.78)"/><path class="g" d="M175.817,242.418H128.929a1.076,1.076,0,0,1-1.069-1.069h0a1.072,1.072,0,0,1,1.069-1.069h46.888a1.069,1.069,0,0,1,1.069,1.069h0a1.072,1.072,0,0,1-1.069,1.069Z" transform="translate(-127.86 -235.076)"/><path class="g" d="M175.817,258.918H128.929a1.076,1.076,0,0,1-1.069-1.069h0a1.072,1.072,0,0,1,1.069-1.069h46.888a1.069,1.069,0,0,1,1.069,1.069h0a1.072,1.072,0,0,1-1.069,1.069Z" transform="translate(-127.86 -246.372)"/><path class="g" d="M175.817,275.418H128.929a1.076,1.076,0,0,1-1.069-1.069h0a1.072,1.072,0,0,1,1.069-1.069h46.888a1.069,1.069,0,0,1,1.069,1.069h0A1.072,1.072,0,0,1,175.817,275.418Z" transform="translate(-127.86 -257.667)"/><rect class="g" width="40.344" height="2.258" rx="1.129" transform="translate(0 20.697)"/></g><g class="h" transform="translate(2767.212 -6381.085)"><g class="i" transform="translate(11.903 21.293)"><path class="j" d="M386.76,309.258s.918-8.516,7.926-10.478l1.763,4.46-5.7,7.384Z" transform="translate(-369.205 -290.778)"/><path class="j" d="M373.743,303.225c-1.792-1.445-20.713-16.593-26.235-17.168q-.237.183-.483.36c-3.952,2.785-10.522.416-10.522.416l-3.034-13.149-.315.672-2.053-.946,3.81,16.527s6.573,2.369,10.522-.416c.167-.117.315-.237.486-.36,5.8.6,26.371,17.278,26.371,17.278Z" transform="translate(-331.1 -273.41)"/><path class="j" d="M396.361,302.23s-1.908,6.624-6.851,9.651c0,0,27.459,20.593,31.339,22.394s12.468-16.335,11.418-17.562S396.361,302.23,396.361,302.23Z" transform="translate(-371.087 -293.14)"/><path class="j" d="M394.342,311.163a16.519,16.519,0,0,0,4.892-7.885l-2.873-1.1s-1.908,6.624-6.851,9.651c0,0,27.459,20.593,31.339,22.394,1.618.751,4.053-1.959,6.264-5.466C420.2,325.709,394.342,311.163,394.342,311.163Z" transform="translate(-371.087 -293.106)"/><path class="j" d="M394.679,298.8s9.462,2.7,9.333,4.044c-.719,7.046-6.74,14.278-8.115,13.638s-9.147-7.2-9.147-7.2S391.349,308.073,394.679,298.8Z" transform="translate(-369.198 -290.792)"/></g></g><rect class="d" width="37.284" height="33.565" rx="16.783" transform="matrix(0.985, 0.173, -0.173, 0.985, 2787.518, -6362.632)"/><g class="k" transform="translate(2768.262 -6378.505)"><path class="l" d="M390.1,317.611s.915-8.516,7.923-10.481l1.763,4.46-5.7,7.384Z" transform="translate(-360.639 -277.833)"/><path class="m" d="M363.283,272.6l6.873-15.2s-2.971-.593-16.452-4.6c-7.57-2.249-10.654-3.917-12.077-5.226a12.9,12.9,0,0,0-3.154-10.225c-3.435-4.16-2.422-9.273-.905-12.326.811-1.634,1.441-3.958-.233-4.681h0c-1.533-.662-4.16.375-5.952,4.018-2.662,5.412-2.454,9.188-2.454,9.188l-9.582-2.041-2.927,20.722s16.067,6.239,20.019,3.454c.164-.117.315-.237.483-.356C342.719,255.927,363.283,272.6,363.283,272.6Z" transform="translate(-310.198 -218.291)"/><path class="n" d="M347.028,287.045a24.09,24.09,0,0,1,7.179,1.088c.315.091.647.2.975.315a12.3,12.3,0,0,1-2.555-2.419,18,18,0,0,1-3.416-6.762c-.1-.183-.211-.372-.315-.558a1.05,1.05,0,0,0-1.435-.379c-2,1.3-2.4,4.46-1.82,6.624A4.312,4.312,0,0,0,347.028,287.045Z" transform="translate(-330.034 -258.019)"/><path class="n" d="M364.794,311.562c-1.795-1.445-20.716-16.594-26.235-17.164-.161.12-.315.24-.486.356-3.949,2.785-10.522.416-10.522.416l-3.015-13.149-.315.675-2.053-.946-5.677,12.657s16.067,6.239,20.019,3.454c.164-.117.315-.237.483-.356,5.8.6,26.374,17.275,26.374,17.275Z" transform="translate(-310.246 -260.458)"/><path class="o" d="M325.066,280.849l-12.654-3.725a2.28,2.28,0,0,1-1.422-2.886l.262-.8a2.284,2.284,0,0,1,2.854-1.489l12.651,3.731a2.284,2.284,0,0,1,1.422,2.889l-.262.8a2.284,2.284,0,0,1-2.851,1.482Z" transform="translate(-306.398 -253.674)"/><path class="p" d="M325.666,282.429,312.8,278.644a2.234,2.234,0,0,1-1.372-2.564,2.522,2.522,0,0,0-.158.379l-.189.577A2.3,2.3,0,0,0,312.356,280l12.869,3.785a2.3,2.3,0,0,0,2.782-1.637l.186-.58a2.61,2.61,0,0,0,.1-.4A2.245,2.245,0,0,1,325.666,282.429Z" transform="translate(-306.449 -256.576)"/><path class="o" d="M321.17,297.613l-12.317-3.706a2.432,2.432,0,0,1-1.492-3.085l.2-.574a2.425,2.425,0,0,1,3.082-1.489l12.317,3.706a2.426,2.426,0,0,1,1.489,3.082l-.2.574A2.429,2.429,0,0,1,321.17,297.613Z" transform="translate(-303.905 -265.164)"/><path class="p" d="M321.706,298.849l-12.3-3.706a2.425,2.425,0,0,1-1.6-2.653,2.476,2.476,0,0,0-.186.4l-.2.574a2.432,2.432,0,0,0,1.492,3.085l12.317,3.706a2.429,2.429,0,0,0,3.082-1.492l.2-.574a2.373,2.373,0,0,0,.107-.429A2.432,2.432,0,0,1,321.706,298.849Z" transform="translate(-303.947 -267.81)"/><path class="o" d="M328.564,264.408l-10.494-3.2a2.347,2.347,0,0,1-1.441-2.981l.192-.555a2.35,2.35,0,0,1,2.984-1.441l10.494,3.2a2.35,2.35,0,0,1,1.441,2.981l-.2.555A2.343,2.343,0,0,1,328.564,264.408Z" transform="translate(-310.253 -242.898)"/><path class="p" d="M329.048,265.626l-10.49-3.192a2.353,2.353,0,0,1-1.546-2.564,2.605,2.605,0,0,0-.18.391l-.192.555a2.347,2.347,0,0,0,1.441,2.981l10.494,3.2a2.343,2.343,0,0,0,2.981-1.441l.2-.555a2.5,2.5,0,0,0,.1-.416A2.347,2.347,0,0,1,329.048,265.626Z" transform="translate(-310.26 -245.479)"/><path class="o" d="M318.43,313.456l-10.658-3.5a2.012,2.012,0,0,1-1.233-2.555l.252-.729a2.015,2.015,0,0,1,2.555-1.236L320,308.949a2.012,2.012,0,0,1,1.233,2.555l-.252.729A2.012,2.012,0,0,1,318.43,313.456Z" transform="translate(-303.358 -276.595)"/><path class="p" d="M318.9,315.144l-10.844-3.58a2,2,0,0,1-1.173-2.394,1.65,1.65,0,0,0-.088.218l-.189.539a2.017,2.017,0,0,0,1.107,2.615l10.847,3.583a2.018,2.018,0,0,0,2.492-1.363l.189-.542c.025-.073.047-.148.066-.221A2,2,0,0,1,318.9,315.144Z" transform="translate(-303.388 -279.229)"/><path d="M399.691,310.56s-1.908,6.639-6.851,9.651c0,0,27.459,20.6,31.342,22.394S436.65,326.27,435.6,325.043,399.691,310.56,399.691,310.56Z" transform="translate(-362.514 -280.181)"/><path d="M397.672,319.53a16.56,16.56,0,0,0,4.9-7.869l-2.876-1.1s-1.908,6.639-6.851,9.651c0,0,27.459,20.6,31.342,22.394,1.618.754,4.05-1.959,6.264-5.463C423.529,334.073,397.672,319.53,397.672,319.53Z" transform="translate(-362.514 -280.181)"/><path class="l" d="M398.009,307.13s9.462,2.7,9.333,4.047c-.719,7.043-6.74,14.275-8.115,13.638s-9.147-7.2-9.147-7.2S394.682,316.4,398.009,307.13Z" transform="translate(-360.625 -277.833)"/></g></g></svg>