<svg xmlns="http://www.w3.org/2000/svg" xmlns:xlink="http://www.w3.org/1999/xlink" width="129" height="72" viewBox="0 0 129 72"><defs><style>.a,.b,.i{fill:#fff;}.a{stroke:#fff;stroke-miterlimit:10;stroke-width:0.2px;}.c{fill:url(#c);}.d{fill:url(#d);}.e{fill:url(#e);}.f{fill:url(#f);}.g{opacity:0.2;}.h{opacity:0.12;}.i{opacity:0.25;}.j{filter:url(#a);}</style><filter id="a" x="0" y="0" width="129" height="72" filterUnits="userSpaceOnUse"><feOffset dy="8" input="SourceAlpha"/><feGaussianBlur stdDeviation="8" result="b"/><feFlood flood-color="#707070" flood-opacity="0.161"/><feComposite operator="in" in2="b"/><feComposite in="SourceGraphic"/></filter><linearGradient id="c" x1="0.908" y1="1.032" x2="-0.383" y2="0.36" gradientUnits="objectBoundingBox"><stop offset="0" stop-color="#00a0ff"/><stop offset="0.007" stop-color="#00a1ff"/><stop offset="0.26" stop-color="#00beff"/><stop offset="0.512" stop-color="#00d2ff"/><stop offset="0.76" stop-color="#00dfff"/><stop offset="1" stop-color="#00e3ff"/></linearGradient><linearGradient id="d" x1="1.077" y1="0.729" x2="-1.307" y2="0.729" gradientUnits="objectBoundingBox"><stop offset="0" stop-color="#ffe000"/><stop offset="0.409" stop-color="#ffbd00"/><stop offset="0.775" stop-color="orange"/><stop offset="1" stop-color="#ff9c00"/></linearGradient><linearGradient id="e" x1="0.864" y1="-0.023" x2="-0.499" y2="-1.789" gradientUnits="objectBoundingBox"><stop offset="0" stop-color="#ff3a44"/><stop offset="1" stop-color="#c31162"/></linearGradient><linearGradient id="f" x1="-0.186" y1="2.701" x2="0.423" y2="1.909" gradientUnits="objectBoundingBox"><stop offset="0" stop-color="#32a071"/><stop offset="0.069" stop-color="#2da771"/><stop offset="0.476" stop-color="#15cf74"/><stop offset="0.801" stop-color="#06e775"/><stop offset="1" stop-color="#00f076"/></linearGradient></defs><g transform="translate(24 16)"><g class="j" transform="matrix(1, 0, 0, 1, -24, -16)"><path d="M78,24H3a2.971,2.971,0,0,1-3-3V3A2.971,2.971,0,0,1,3,0H78a2.971,2.971,0,0,1,3,3V21A2.971,2.971,0,0,1,78,24Z" transform="translate(24 16)"/></g><path d="M78,.48A2.535,2.535,0,0,1,80.52,3V21A2.535,2.535,0,0,1,78,23.52H3A2.535,2.535,0,0,1,.48,21V3A2.535,2.535,0,0,1,3,.48ZM78,0H3A3.009,3.009,0,0,0,0,3V21a2.971,2.971,0,0,0,3,3H78a2.971,2.971,0,0,0,3-3V3A3.009,3.009,0,0,0,78,0Z"/><path class="a" d="M44.992,8.875a1.631,1.631,0,0,1-.419,1.2A1.856,1.856,0,0,1,41.4,8.756,1.84,1.84,0,0,1,43.256,6.9a1.594,1.594,0,0,1,.718.18,1.3,1.3,0,0,1,.539.419l-.3.3a1.116,1.116,0,0,0-.958-.419A1.191,1.191,0,0,0,42.3,7.8a1.233,1.233,0,0,0-.419,1.018A1.233,1.233,0,0,0,42.3,9.833a1.541,1.541,0,0,0,.958.419,1.313,1.313,0,0,0,1.018-.419.991.991,0,0,0,.3-.718H43.256V8.636h1.736Zm2.754-1.5H46.129V8.516h1.5v.419h-1.5v1.137h1.616v.479h-2.1V6.96h2.1Zm1.975,3.173h-.479V7.379H48.224V6.96h2.514v.419H49.721Zm2.754,0V6.96h.479v3.592Zm2.514,0H54.51V7.379H53.492V6.96h2.454v.419H54.929v3.173Zm5.687-.479A1.856,1.856,0,0,1,57.5,8.756a1.856,1.856,0,1,1,3.711,0A1.76,1.76,0,0,1,60.676,10.073Zm-2.275-.3a1.413,1.413,0,0,0,.958.419,1.191,1.191,0,0,0,.958-.419,1.444,1.444,0,0,0,.419-1.018,1.233,1.233,0,0,0-.419-1.018,1.413,1.413,0,0,0-.958-.419,1.191,1.191,0,0,0-.958.419,1.444,1.444,0,0,0-.419,1.018A1.233,1.233,0,0,0,58.4,9.773Zm3.472.778V6.96h.539l1.736,2.814V6.96h.479v3.592h-.479L62.292,7.618v2.933Z" transform="translate(-16.537 -2.758)"/><path class="b" d="M57.263,19.914a2.518,2.518,0,0,0-2.574,2.574,2.555,2.555,0,0,0,2.574,2.574,2.518,2.518,0,0,0,2.574-2.574A2.484,2.484,0,0,0,57.263,19.914Zm0,4.071a1.561,1.561,0,0,1,0-3.113A1.45,1.45,0,0,1,58.7,22.428,1.486,1.486,0,0,1,57.263,23.984ZM51.7,19.914a2.518,2.518,0,0,0-2.574,2.574A2.555,2.555,0,0,0,51.7,25.062a2.518,2.518,0,0,0,2.574-2.574A2.484,2.484,0,0,0,51.7,19.914Zm0,4.071a1.561,1.561,0,0,1,0-3.113,1.45,1.45,0,0,1,1.437,1.556A1.486,1.486,0,0,1,51.7,23.984Zm-6.645-3.292v1.078h2.574a2.264,2.264,0,0,1-.6,1.377,2.65,2.65,0,0,1-1.975.778,2.787,2.787,0,0,1-2.814-2.873,2.824,2.824,0,0,1,2.814-2.873,2.968,2.968,0,0,1,1.975.778l.778-.778A3.836,3.836,0,0,0,45.111,17.1a3.951,3.951,0,1,0,0,7.9,3.445,3.445,0,0,0,2.754-1.137,3.6,3.6,0,0,0,.958-2.514,2.244,2.244,0,0,0-.06-.658Zm27.178.838a2.326,2.326,0,0,0-2.155-1.616,2.411,2.411,0,0,0-2.395,2.574,2.505,2.505,0,0,0,2.514,2.574,2.456,2.456,0,0,0,2.1-1.137l-.838-.6a1.459,1.459,0,0,1-1.257.718,1.3,1.3,0,0,1-1.257-.778l3.412-1.437Zm-3.472.838a1.454,1.454,0,0,1,1.317-1.5,1.059,1.059,0,0,1,.958.539Zm-2.814,2.454H67.08V17.339H65.943Zm-1.8-4.37a1.971,1.971,0,0,0-1.377-.6,2.572,2.572,0,0,0-2.454,2.574,2.479,2.479,0,0,0,2.454,2.514,1.719,1.719,0,0,0,1.317-.6h.06V24.7a1.361,1.361,0,0,1-2.634.6l-.958.419a2.47,2.47,0,0,0,2.275,1.5,2.3,2.3,0,0,0,2.394-2.634v-4.55H64.147ZM62.83,23.984a1.561,1.561,0,0,1,0-3.113,1.44,1.44,0,0,1,1.377,1.556A1.44,1.44,0,0,1,62.83,23.984Zm14.606-6.645H74.743v7.483H75.88V22.009h1.556a2.338,2.338,0,1,0,0-4.669Zm.06,3.592H75.88V18.357H77.5a1.315,1.315,0,0,1,1.317,1.257A1.37,1.37,0,0,1,77.5,20.931Zm6.884-1.078a2.012,2.012,0,0,0-1.975,1.137l1.018.419a1.057,1.057,0,0,1,1.018-.539,1.125,1.125,0,0,1,1.2.958v.06a2.374,2.374,0,0,0-1.137-.3c-1.078,0-2.155.6-2.155,1.676A1.754,1.754,0,0,0,84.2,24.942a1.685,1.685,0,0,0,1.437-.718h.06v.6h1.078V21.949a2.265,2.265,0,0,0-2.394-2.1Zm-.12,4.131c-.359,0-.9-.18-.9-.658,0-.6.658-.778,1.2-.778a2.315,2.315,0,0,1,1.018.239A1.394,1.394,0,0,1,84.261,23.984Zm6.286-3.951-1.257,3.233h-.06l-1.317-3.233h-1.2l1.975,4.55L87.553,27.1h1.137l3.053-7.064ZM80.489,24.822h1.137V17.339H80.489Z" transform="translate(-16.311 -6.808)"/><path class="c" d="M10.239,7.5A1.178,1.178,0,0,0,10,8.341V21.619a1.191,1.191,0,0,0,.3.841l.06.06,7.423-7.45v-.12Z" transform="translate(-4.014 -3.01)"/><path class="d" d="M25.354,20.888,22.9,18.434v-.18L25.354,15.8l.06.06,2.933,1.676a.914.914,0,0,1,0,1.736Z" transform="translate(-9.157 -6.314)"/><path class="e" d="M20.4,22.514,17.883,20,10.4,27.483c.3.3.718.3,1.257.06Z" transform="translate(-4.174 -7.987)"/><path class="f" d="M20.4,12.337l-8.74-4.969a.97.97,0,0,0-1.257.06l7.483,7.423Z" transform="translate(-4.174 -2.864)"/><path class="g" d="M20.337,24.1l-8.68,4.909a.979.979,0,0,1-1.2,0l-.06.06.06.06a.979.979,0,0,0,1.2,0Z" transform="translate(-4.174 -9.631)"/><path class="h" d="M10.239,27.363A1.17,1.17,0,0,1,10,26.525v.06a1.184,1.184,0,0,0,.3.838v-.06Zm12.93-6.585-2.993,1.676.06.06,2.933-1.676a1,1,0,0,0,.6-.838C23.768,20.3,23.529,20.539,23.17,20.778Z" transform="translate(-4.014 -7.988)"/><path class="i" d="M11.5,7.418,23.17,14.063c.359.239.6.479.6.778a1,1,0,0,0-.6-.838L11.5,7.358c-.838-.479-1.5-.12-1.5.838v.06C10,7.358,10.658,6.939,11.5,7.418Z" transform="translate(-4.014 -2.854)"/></g></svg>