<svg xmlns="http://www.w3.org/2000/svg" width="234" height="102" viewBox="0 0 234 102"><defs><style>.a{fill:#fff;}.b{fill:#db6161;}.c{fill:#233862;}.d{fill:#e69d43;}.e{fill:#d57912;}.f{fill:#b65615;}.g{fill:#d36e2a;}.h{fill:#fab0ad;}.i{fill:#f45b55;}.j{fill:#dce7f9;}.k{fill:#d15050;}.l{fill:#b64c41;}.m{fill:#a03c37;}.n{fill:#c44943;}.o{fill:#ffb27d;}.p{fill:#ed985f;}.q{fill:#f99746;}.r{fill:#ed7d2b;}.s{fill:#d3671e;}.t{fill:#f1a34f;}.u{fill:#e78b37;}.v{fill:#d86713;opacity:0.4;}.w{fill:#ed975d;}.x{fill:#ff9136;}</style></defs><g transform="translate(-1966.36 5962.748)"><path class="a" d="M362.292,445.127c-10.03,4.01-19.632-1.192-30.957-8.816a37.509,37.509,0,0,1-3.5-2.385c-2.426-1.669-4.936-3.412-7.548-5.169-28.772-17.833-77.4-29-102.146,6.678-23.181,33.418-8.6,66.852-3.931,75.763.8,1.484,1.286,2.3,1.286,2.3l214.5.061C440.687,430.765,390.017,434.044,362.292,445.127Z" transform="translate(1764.938 -6374.744)"/><path class="b" d="M1033.143,1202.34h-30.3V1228h33.952Z" transform="translate(1037.103 -7096.784)"/><path class="c" d="M975.744,1212.39H941.4v24.781h37.906Z" transform="translate(1093.178 -7105.957)"/><rect class="d" width="4.67" height="4.735" transform="translate(2058.774 -5868.786) rotate(180)"/><rect class="e" width="2.826" height="4.735" transform="translate(2061.404 -5868.786) rotate(180)"/><rect class="d" width="7.744" height="6.015" transform="translate(2061.6 -5873.456) rotate(180)"/><rect class="e" width="2.138" height="4.67" transform="translate(2063.541 -5873.456) rotate(180)"/><rect class="f" width="10.854" height="4.814" rx="2.407" transform="translate(2010.878 -5871.809)"/><path d="M1109,1489.271a4.351,4.351,0,1,1,4.351,4.351,4.351,4.351,0,0,1-4.351-4.351Z" transform="translate(940.218 -7354.675)"/><path d="M1276.46,1489.271a4.351,4.351,0,1,1,4.351,4.351A4.351,4.351,0,0,1,1276.46,1489.271Z" transform="translate(787.38 -7354.675)"/><path d="M686.84,1489.271a4.351,4.351,0,1,1,4.351,4.351A4.351,4.351,0,0,1,686.84,1489.271Z" transform="translate(1325.519 -7354.675)"/><path class="g" d="M711.51,1511.767a2.2,2.2,0,1,1,2.2,2.2A2.2,2.2,0,0,1,711.51,1511.767Z" transform="translate(1303.004 -7377.172)"/><path class="h" d="M711.51,1511.767a2.2,2.2,0,1,1,2.2,2.2A2.2,2.2,0,0,1,711.51,1511.767Z" transform="translate(1303.004 -7377.172)"/><path class="h" d="M717.175,1516a2.2,2.2,0,0,1-3.465,2.534,2.2,2.2,0,1,0,3.465-2.534Z" transform="translate(1300.996 -7383.04)"/><circle class="i" cx="0.681" cy="0.681" r="0.681" transform="translate(2016.028 -5866.084)"/><path class="i" d="M720.37,1545.332a.262.262,0,1,1,.262.262A.262.262,0,0,1,720.37,1545.332Z" transform="translate(1294.918 -7409.57)"/><circle class="i" cx="0.264" cy="0.264" r="0.264" transform="translate(2014.979 -5866.458)"/><path class="i" d="M750,1522.932a.262.262,0,1,1,.262.262A.262.262,0,0,1,750,1522.932Z" transform="translate(1267.875 -7389.127)"/><path class="i" d="M747.51,1545.332a.262.262,0,1,1,.262.262A.262.262,0,0,1,747.51,1545.332Z" transform="translate(1270.147 -7409.57)"/><path class="i" d="M733.62,1512.772a.262.262,0,1,1,.262.262A.262.262,0,0,1,733.62,1512.772Z" transform="translate(1282.825 -7379.855)"/><path class="g" d="M1132.74,1511.786a2.2,2.2,0,1,1,2.2,2.2A2.2,2.2,0,0,1,1132.74,1511.786Z" transform="translate(918.552 -7377.19)"/><path class="h" d="M1132.74,1511.786a2.2,2.2,0,1,1,2.2,2.2A2.2,2.2,0,0,1,1132.74,1511.786Z" transform="translate(918.552 -7377.19)"/><circle class="i" cx="0.681" cy="0.681" r="0.681" transform="translate(2052.807 -5866.084)"/><path class="i" d="M1141.6,1545.332a.262.262,0,1,1,.262.262A.262.262,0,0,1,1141.6,1545.332Z" transform="translate(910.467 -7409.57)"/><path class="i" d="M1140.47,1522.932a.262.262,0,1,1,.262.262A.262.262,0,0,1,1140.47,1522.932Z" transform="translate(911.498 -7389.127)"/><path class="i" d="M1168.74,1545.332a.262.262,0,1,1,.262.262A.262.262,0,0,1,1168.74,1545.332Z" transform="translate(885.696 -7409.57)"/><circle class="f" cx="0.264" cy="0.264" r="0.264" transform="translate(2051.208 -5867.347)"/><path d="M828.34,1489.271a4.351,4.351,0,1,1,4.351,4.351,4.351,4.351,0,0,1-4.351-4.351Z" transform="translate(1196.374 -7354.675)"/><path class="e" d="M736.09,1228.311s2.359-3.561,5.09-3.591l-.244,3.853Z" transform="translate(1280.57 -7116.997)"/><path class="d" d="M697.9,1280.727H679l1.573-12.764a4.14,4.14,0,0,1,4.106-3.633H697.9Z" transform="translate(1332.673 -7153.358)"/><path class="e" d="M714.209,1291.171h-5.3l.7-5.04a2.1,2.1,0,0,1,2.08-1.81h2.681Z" transform="translate(1305.376 -7171.448)"/><path class="j" d="M719.537,1294.889h-3.489a.874.874,0,0,1-.863-.986l.463-3.487a1.808,1.808,0,0,1,1.76-1.607h2.272Z" transform="translate(1299.656 -7175.544)"/><path class="k" d="M809.8,1228H773.45l1.622-25.659h32.576Z" transform="translate(1246.466 -7096.784)"/><path class="l" d="M822.318,1237.192H788.73l1.5-23.712h30.1l1.609,19.221Z" transform="translate(1232.52 -7106.951)"/><path class="e" d="M668.63,1452H657.1c-1.015.067-1.114.57-1.114.57l-.983,4.771a.318.318,0,0,0,.333.3h2.9a.451.451,0,0,0,.393-.3,4.836,4.836,0,0,1,.745-.749,4.694,4.694,0,0,1,2.765-.818,5.375,5.375,0,0,1,3.57,1.188h2.923c.349,0,.641-.184.641-.409v-4.135C669.268,1452.187,668.979,1452,668.63,1452Z" transform="translate(1354.578 -7324.632)"/><path class="k" d="M1117.8,1520.246h-3.654a3.394,3.394,0,0,0-.458-1.176c-1.105-1.771-3.688-2.312-5.16-2.478a10.684,10.684,0,0,0-1.077-.072h6.281a4.609,4.609,0,0,1,3.254,1.976A5.368,5.368,0,0,1,1117.8,1520.246Z" transform="translate(941.632 -7383.514)"/><path class="k" d="M1283.348,1520.246h-3.654a3.408,3.408,0,0,0-.549-1.317c-1.669-2.406-6.145-2.41-6.145-2.41h6.282a4.581,4.581,0,0,1,2.923,1.555A5.426,5.426,0,0,1,1283.348,1520.246Z" transform="translate(790.537 -7383.514)"/><path class="m" d="M1127.316,1518.5s-2.405-.508-3.3.574c-1.105-1.771-3.688-2.312-5.16-2.478l-.087-.072h5.293A4.609,4.609,0,0,1,1127.316,1518.5Z" transform="translate(931.301 -7383.515)"/><path class="m" d="M1282.233,1518.075h0a5.383,5.383,0,0,0-3.058.854c-1.669-2.406-6.145-2.41-6.145-2.41h6.282A4.581,4.581,0,0,1,1282.233,1518.075Z" transform="translate(790.51 -7383.515)"/><rect class="m" width="54.562" height="2.488" rx="1.244" transform="translate(2020.246 -5868.786)"/><rect class="m" width="10.854" height="5.512" rx="2.756" transform="translate(2022.562 -5868.161)"/><path class="n" d="M822.818,1237.192H789.23l1.5-23.712h5.866c1.835,5.417,8.049,18.26,25.848,19.221Z" transform="translate(1232.064 -7106.951)"/><rect class="e" width="1.759" height="3.78" rx="0.879" transform="translate(2012 -5882.973)"/><rect class="j" width="1.43" height="3.385" rx="0.715" transform="translate(2012.195 -5882.759)"/><path class="l" d="M692.167,1314.655a.065.065,0,0,1-.058-.069v-1.075a.676.676,0,0,1,.713-.594c.585.018.836,0,.839,0a.064.064,0,0,1,.062.065.067.067,0,0,1-.055.073c-.01,0-.262.018-.849,0a.539.539,0,0,0-.592.469v1.06a.064.064,0,0,1-.059.072Z" transform="translate(1320.712 -7197.533)"/><path class="e" d="M749.922,1375.844h-1.069a.273.273,0,0,1-.273-.273h0a.273.273,0,0,1,.273-.272h1.069a.273.273,0,0,1,.272.272h0A.273.273,0,0,1,749.922,1375.844Z" transform="translate(1269.171 -7254.633)"/><rect class="d" width="4.67" height="4.67" transform="translate(2066.521 -5868.786) rotate(180)"/><rect class="e" width="2.138" height="4.67" transform="translate(2068.463 -5868.786) rotate(180)"/><path class="a" d="M870.271,1332.456a1.593,1.593,0,0,1,.536.081,1.037,1.037,0,0,1,.38.232,1.017,1.017,0,0,1,.233.363,1.621,1.621,0,0,1,.1.475,6.061,6.061,0,0,1,0,.618,1.626,1.626,0,0,1-.1.476,1.011,1.011,0,0,1-.232.363,1,1,0,0,1-.373.232,1.53,1.53,0,0,1-.524.081h-1.048a.106.106,0,0,1-.079-.033.109.109,0,0,1-.033-.079v-2.7a.116.116,0,0,1,.113-.113Zm.684,1.152a.837.837,0,0,0-.052-.248.562.562,0,0,0-.129-.2.59.59,0,0,0-.215-.134.9.9,0,0,0-.308-.048h-.559v1.878h.58a.823.823,0,0,0,.3-.048.572.572,0,0,0,.208-.131.552.552,0,0,0,.128-.2.866.866,0,0,0,.052-.251,5.576,5.576,0,0,0,0-.618Z" transform="translate(1159.146 -7215.386)"/><path class="a" d="M904.657,1334.859a.115.115,0,0,1,.113.113v.3a.107.107,0,0,1-.034.079.1.1,0,0,1-.079.033h-1.835a.107.107,0,0,1-.08-.033.109.109,0,0,1-.033-.079v-2.7a.116.116,0,0,1,.113-.113h1.8a.109.109,0,0,1,.079.034.1.1,0,0,1,.033.079v.3a.114.114,0,0,1-.113.113h-1.346v.664h1.255a.114.114,0,0,1,.113.113v.3a.1.1,0,0,1-.033.079.108.108,0,0,1-.079.034h-1.255v.692Z" transform="translate(1128.498 -7215.39)"/><path class="a" d="M934.129,1334.859a.109.109,0,0,1,.079.033.107.107,0,0,1,.033.079v.3a.114.114,0,0,1-.113.113H932.3a.1.1,0,0,1-.08-.033.107.107,0,0,1-.033-.079v-2.7a.1.1,0,0,1,.033-.079.106.106,0,0,1,.08-.034h.337a.107.107,0,0,1,.079.034.1.1,0,0,1,.033.079v2.286Z" transform="translate(1101.593 -7215.39)"/><path class="a" d="M960.383,1335.381a.113.113,0,0,1-.113-.113v-2.7a.1.1,0,0,1,.033-.079.107.107,0,0,1,.079-.034h.337a.108.108,0,0,1,.08.034.1.1,0,0,1,.033.079v2.7a.114.114,0,0,1-.113.113Z" transform="translate(1075.964 -7215.39)"/><path class="a" d="M973.02,1334.552l.7-1.99a.209.209,0,0,1,.044-.069.118.118,0,0,1,.093-.036h.317a.116.116,0,0,1,.113.113v.015a.107.107,0,0,1-.008.027l-.935,2.621a.305.305,0,0,1-.059.106.132.132,0,0,1-.1.035h-.334a.129.129,0,0,1-.1-.035.29.29,0,0,1-.059-.106l-.935-2.621a.107.107,0,0,1-.008-.027v-.015a.115.115,0,0,1,.112-.113h.317a.12.12,0,0,1,.094.036.226.226,0,0,1,.044.069Z" transform="translate(1065.486 -7215.386)"/><path class="a" d="M1007.787,1334.859a.113.113,0,0,1,.113.113v.3a.109.109,0,0,1-.033.079.106.106,0,0,1-.079.033h-1.835a.1.1,0,0,1-.079-.033.107.107,0,0,1-.034-.079v-2.7a.116.116,0,0,1,.113-.113h1.8a.116.116,0,0,1,.113.113v.3a.108.108,0,0,1-.034.079.1.1,0,0,1-.079.033H1006.4v.664h1.256a.114.114,0,0,1,.113.113v.3a.1.1,0,0,1-.033.079.108.108,0,0,1-.079.034H1006.4v.692Z" transform="translate(1034.373 -7215.39)"/><path class="a" d="M1036.624,1332.46a1.154,1.154,0,0,1,.792.242.854.854,0,0,1,.272.672.938.938,0,0,1-.14.52.826.826,0,0,1-.411.319l.576,1.031a.1.1,0,0,1,.013.045.092.092,0,0,1-.087.092h-.355a.168.168,0,0,1-.123-.039.276.276,0,0,1-.057-.073l-.546-.972H1036v.972a.107.107,0,0,1-.034.079.1.1,0,0,1-.079.033h-.338a.114.114,0,0,1-.113-.113v-2.7a.1.1,0,0,1,.033-.079.108.108,0,0,1,.079-.034Zm-.626,1.311h.6a.748.748,0,0,0,.38-.088.335.335,0,0,0,.141-.317.324.324,0,0,0-.141-.313.788.788,0,0,0-.38-.08h-.6Z" transform="translate(1007.358 -7215.39)"/><path class="a" d="M1066,1332.454a.116.116,0,0,1,.113.113.074.074,0,0,1-.009.037l-.988,1.74v.917a.109.109,0,0,1-.034.08.1.1,0,0,1-.079.033h-.334a.1.1,0,0,1-.08-.033.106.106,0,0,1-.033-.079v-.917l-.989-1.74a.073.073,0,0,1-.009-.037.116.116,0,0,1,.113-.113h.313a.175.175,0,0,1,.126.042.241.241,0,0,1,.05.063l.676,1.18.675-1.18a.253.253,0,0,1,.051-.063.167.167,0,0,1,.125-.042Z" transform="translate(981.693 -7215.384)"/><path class="i" d="M1114.769,684.47A28.229,28.229,0,0,0,1086.53,712.7c0,15.59,28.235,50.247,28.235,50.247s12.823-15.745,21.165-30.777c4.059-7.27,7.07-14.385,7.07-19.47A28.235,28.235,0,0,0,1114.769,684.47Zm0,41.125a13.289,13.289,0,1,1,2.877-.336A12.2,12.2,0,0,1,1114.769,725.595Z" transform="translate(960.712 -6624.16)"/><path class="i" d="M1135.99,798.1c-8.341,15.028-21.165,30.777-21.165,30.777s-28.235-34.657-28.235-50.247a28.206,28.206,0,0,1,10.438-21.923,70.32,70.32,0,0,0,5.6,16.592,13.176,13.176,0,0,0,12.2,18.221,12.218,12.218,0,0,0,2.877-.335A42.873,42.873,0,0,0,1135.99,798.1Z" transform="translate(960.66 -6690.089)"/><path class="i" d="M2438.424,1246.77A10.424,10.424,0,0,0,2428,1257.194c0,5.757,10.424,18.557,10.424,18.557s10.424-12.8,10.424-18.557a10.424,10.424,0,0,0-10.424-10.424Zm0,15.191a4.873,4.873,0,1,1,4.872-4.873A4.873,4.873,0,0,1,2438.424,1261.961Z" transform="translate(-263.636 -7137.333)"/><path class="i" d="M339.352,1396.1a5.972,5.972,0,0,0-5.972,5.972c0,3.3,5.972,10.63,5.972,10.63s5.972-7.332,5.972-10.63a5.972,5.972,0,0,0-5.972-5.972Zm0,8.7a2.791,2.791,0,1,1,2.792-2.8A2.791,2.791,0,0,1,339.352,1404.8Z" transform="translate(1648.128 -7273.616)"/><path class="i" d="M1048.89,1545.109H1042a1.178,1.178,0,0,1,1.066-.8c1.064-.175,2.906-.786,3.32-2.149.013-.045.025-.087.036-.135.326-1.453,2.7.445,2.7.445s.007.059.017.158C1049.19,1543.161,1049.329,1544.863,1048.89,1545.109Z" transform="translate(1001.369 -7406.294)"/><path d="M1057.44,1131.6s.36,4.5.786,9.9c.576,7.339,1.268,16.36,1.337,18.069.118,2.97.593,7.712.593,7.712a3.731,3.731,0,0,0,3.381.652,77.6,77.6,0,0,0,2.584-13.942l.026-.354c.535-7.3,1.365-22.662,1.365-22.662Z" transform="translate(987.276 -7031.659)"/><path d="M1057.44,1131.63s.36,4.5.786,9.9l7.895,12.494.026-.354c.535-7.3,1.365-22.662,1.365-22.662Z" transform="translate(987.276 -7031.527)"/><path d="M1076.28,1113.556s6.5,16.284,10.767,23.939,5.606,9.786,5.606,9.786,2.446-.979,2.67-1.646c0,0-1.634-14.773-4.494-18.375-1.616-2.035-3.515-8.142-3.6-10.277s-.578-6.362-.578-6.362Z" transform="translate(970.079 -7013.078)"/><path class="o" d="M1101.719,800.472s-4.4,2.154-6.929,1.355a6.01,6.01,0,0,1,1.715-1.4c-.087-.516-.155-.961-.195-1.345a12.627,12.627,0,0,1-.107-1.374l1.7-1.354,1.609-1.3A6.621,6.621,0,0,0,1101.719,800.472Z" transform="translate(953.188 -6724.602)"/><path class="l" d="M1066.149,869.216c.01.274-.564.584-.818.7a17.723,17.723,0,0,1-5.623,1.618,42.012,42.012,0,0,1-6.081-.273.4.4,0,0,1-.262-.107c-.068-.049-.116-2.923-.068-6.539,0-.147,0-.293.011-.437v-.049c.019-1.414.068-2.895.136-4.375a49.252,49.252,0,0,1,.818-8.125,8.82,8.82,0,0,1,2.748-4.385l.874-.78a4.148,4.148,0,0,0,2.729-.331c1.014-.5,2.122-1.054,2.3-.918,1.325.985,2.2,3.219,2.682,6.044a31.843,31.843,0,0,1,.4,5.36c0,.7-.019,1.423-.058,2.135a68.333,68.333,0,0,0,.136,9.15C1066.111,868.465,1066.14,868.9,1066.149,869.216Z" transform="translate(991.075 -6770.463)"/><path class="m" d="M1088.959,931.235c-21.293-.029-3.932-15.875-3.932-15.875l3.45-.77a31.855,31.855,0,0,1,.4,5.36c0,.7-.019,1.423-.059,2.134A68.909,68.909,0,0,0,1088.959,931.235Z" transform="translate(968.186 -6833.809)"/><rect class="d" width="13.24" height="13.24" transform="translate(2044.2 -5902.688) rotate(180)"/><rect class="e" width="6.062" height="13.24" transform="translate(2049.703 -5902.688) rotate(180)"/><path class="o" d="M989.909,1015.022l-.786-.253a1.662,1.662,0,0,0-2.416-1.007s-.757.4-.424.874.273.224.728.909a1.482,1.482,0,0,0,1.748.751l.655.018Z" transform="translate(1052.299 -6924.135)"/><path class="l" d="M1026.641,857a16.592,16.592,0,0,1-.315,16.531c-1.6,2.766-13.717.136-13.717.136s-.472-.853.792-1.747c0,0,8.063-1.365,9.024-1.594.853-.2.284-8.038,1.259-10.314A5.734,5.734,0,0,1,1026.641,857Z" transform="translate(1028.27 -6781.211)"/><path class="p" d="M1114.293,810.028a5.852,5.852,0,0,1-3.226,2.631,12.625,12.625,0,0,1-.107-1.374l1.7-1.354Z" transform="translate(938.431 -6738.171)"/><path class="o" d="M1093.567,752.292s4.194.7,4.587-1.922,1.2-4.291-1.461-4.846-3.331.365-3.676,1.206S1092.488,752.043,1093.567,752.292Z" transform="translate(955.051 -6679.205)"/><path d="M1089.774,734.886a4.342,4.342,0,0,0-3.9-4.069c-2.617-.385-2.4-2.281-2.1-2.627a29.555,29.555,0,0,1,5.417.54C1092.258,729.5,1090.228,734.365,1089.774,734.886Z" transform="translate(963.403 -6663.527)"/><path class="i" d="M1250.756,1514.922l-.2-.262-2.309,1.294c-.022.437-.033.952-.009,1.4a3.866,3.866,0,0,1-.055.907c-.048.229-.293,1.207-1.008,1.464-.812.291-.874.915.509.905h.723a1.922,1.922,0,0,0,1.835-1.422,3.257,3.257,0,0,1,.561-1.086,4.042,4.042,0,0,0,.931-1.268C1251.973,1516.049,1250.756,1514.922,1250.756,1514.922Z" transform="translate(814.638 -7381.817)"/><path class="m" d="M1510.621,1239.11l.455-.371-6.1-7.976-2.2-.093Z" transform="translate(580.829 -7122.458)"/><path class="m" d="M1616.055,1239.11l.377-.371-5.05-7.976-1.823-.093Z" transform="translate(483.364 -7122.458)"/><path class="l" d="M2054.543,1060.7a2.677,2.677,0,1,0-2.676,2.741A2.709,2.709,0,0,0,2054.543,1060.7Z" transform="translate(82.119 -6964.704)"/><path class="l" d="M1721.85,1474.066h27.215a.541.541,0,0,0,.537-.542v-2.572a.541.541,0,0,0-.537-.542h-24.041a.542.542,0,0,0-.538.542Z" transform="translate(380.868 -7341.433)"/><path d="M1549.187,1404.233a8.133,8.133,0,1,0-8.133,8.133A8.134,8.134,0,0,0,1549.187,1404.233Z" transform="translate(553.308 -7273.616)"/><path class="h" d="M1586.843,1445.877a4.147,4.147,0,1,0-4.146,4.147A4.147,4.147,0,0,0,1586.843,1445.877Z" transform="translate(511.665 -7315.259)"/><path class="l" d="M2016.7,1351.913a12.042,12.042,0,0,1,15.545,9.681,1.573,1.573,0,0,1-1.553,1.8h-.056a1,1,0,0,1-.992-.909,9.349,9.349,0,0,0-18.661.909H2008.3A12.061,12.061,0,0,1,2016.7,1351.913Z" transform="translate(119.429 -7232.775)"/><path class="l" d="M1961.66,1166.726l4.075,1.641c2.822-5.488,5.7-8.181,8.169-9.509,4.434-2.391,7.521-.366,6.481-2.249l-7.606-16.05a6.984,6.984,0,0,0-6.319-2.876,2.272,2.272,0,0,0-1.938,2.98,27.711,27.711,0,0,1,1.379,8.815A40.134,40.134,0,0,1,1961.66,1166.726Z" transform="translate(162 -7037.749)"/><path class="l" d="M1994.517,1060.318l3.07-1.172c.418,0,1.215.378,1.215-.04l-.455-7.5a.761.761,0,0,0-.759-.759h-1.979a2.4,2.4,0,0,0-1.974,2.3l-.524,7.557C1993.107,1061.125,1994.1,1060.318,1994.517,1060.318Z" transform="translate(133.303 -6958.232)"/><path class="m" d="M1.077,0H21.522A1.076,1.076,0,0,1,22.6,1.076v.738A1.076,1.076,0,0,1,21.521,2.89H1.076A1.076,1.076,0,0,1,0,1.814V1.076A1.076,1.076,0,0,1,1.077,0Z" transform="translate(2097.085 -5891.366) rotate(180)"/><circle cx="8.133" cy="8.133" r="8.133" transform="matrix(0.999, -0.042, 0.042, 0.999, 2131.306, -5877.165)"/><path class="h" d="M2098.68,1445.885a4.124,4.124,0,0,0,.478,1.933c.02.038.041.074.062.111a4.146,4.146,0,1,0,5.2-5.871.492.492,0,0,0-.048-.02,4.146,4.146,0,0,0-5.691,3.844Z" transform="translate(36.949 -7315.267)"/><path class="l" d="M1675.23,1280.07s-2.1,8.327,4.98,16.005l-17.42-1.264,2.222-16.811Z" transform="translate(434.777 -7165.833)"/><path class="l" d="M1438.36,1316.063a1.079,1.079,0,0,0,1.076,1.075h26.091a1.079,1.079,0,0,0,1.076-1.075l-.349-17.065-8.786-.538C1445.767,1298.46,1438.36,1304.361,1438.36,1316.063Z" transform="translate(639.608 -7184.506)"/><path class="k" d="M2049.19,1043.589a4.2,4.2,0,0,0,4.209,4.208v-8.416a4.209,4.209,0,0,0-4.209,4.209Z" transform="translate(82.12 -6947.748)"/><path d="M1970.121,1070.929c.017,0,.19-.034.207-.037l4.631-1.285a.445.445,0,0,0,.284-.509c-.027-.246-.2-.414-.382-.378l-4.641.906c-.183.036-.33.315-.373.556C1969.773,1070.585,1969.956,1070.929,1970.121,1070.929Z" transform="translate(154.55 -6974.513)"/><path class="l" d="M2062,1166.2c-.042.262-.083.51-.121.753l.036-.017a9.349,9.349,0,0,1,13.318,7.539,1,1,0,0,0,.992.91h.053a1.573,1.573,0,0,0,1.553-1.8,12.071,12.071,0,0,0-9.25-9.946l-.049-.011-7.606-16.05a6.97,6.97,0,0,0-2.68-2.235,31.778,31.778,0,0,1,4.041,18.562q-.087.969-.236,1.972C2062.039,1165.981,2062.022,1166.09,2062,1166.2Z" transform="translate(73.843 -7044.765)"/><path class="q" d="M1605.19,1255.169v2.534a.8.8,0,0,0,.8.8h16.673a.8.8,0,0,0,.8-.8v-2.534a.8.8,0,0,0-.8-.8h-16.673A.8.8,0,0,0,1605.19,1255.169Z" transform="translate(487.348 -7144.078)"/><path class="m" d="M1462,1373.1h25.1s1.531-9.294-4.118-12.432a8.432,8.432,0,0,0-4.931-.833C1472.183,1360.41,1464.8,1365.383,1462,1373.1Z" transform="translate(618.033 -7240.467)"/><path class="m" d="M2050,1096.41a4.21,4.21,0,0,0,4.139,3.434V1097.5A6.035,6.035,0,0,1,2050,1096.41Z" transform="translate(81.38 -6999.812)"/><path class="r" d="M1665.6,1258.523h12.194a.8.8,0,0,0,.8-.8v-2.534a.8.8,0,0,0-.8-.8h-8.354A20.442,20.442,0,0,1,1665.6,1258.523Z" transform="translate(432.214 -7144.097)"/><path class="k" d="M1462,1373.685h10.424c6.291-3.193,5.908-10.9,5.626-13.265C1472.183,1360.995,1464.8,1365.968,1462,1373.685Z" transform="translate(618.036 -7241.053)"/><path class="h" d="M2104.86,1451.261a4.146,4.146,0,1,0,5.2-5.871C2109.7,1447.184,2108.542,1450.511,2104.86,1451.261Z" transform="translate(31.308 -7318.599)"/><path class="m" d="M2062,1166.2c-.042.262-.083.51-.121.753l.036-.017c1.5-1.389,4.675-2.621,6.667-3.3l-.049-.011-7.607-16.05a6.969,6.969,0,0,0-2.679-2.235,31.78,31.78,0,0,1,4.041,18.562q-.088.969-.236,1.972C2062.039,1165.981,2062.022,1166.09,2062,1166.2Z" transform="translate(73.848 -7044.607)"/><rect class="s" width="12.995" height="10.714" transform="translate(2082.409 -5904.928)"/><rect class="t" width="12.994" height="10.714" transform="translate(2075.917 -5904.928)"/><path class="t" d="M1616.289,1160.363h-2.059l.182-.579-.182-.414h2.059Z" transform="translate(479.103 -7057.3)"/><path class="u" d="M1414.8,1086.313v3.611h12.994V1079.21h-2.3Z" transform="translate(661.117 -6984.138)"/><path class="v" d="M1414.79,1096.343h2.059l-.182-.579.182-.413h-2.059Z" transform="translate(661.129 -6998.833)"/><path class="t" d="M1414.79,1171.733h2.059l-.182-.579.182-.414h-2.059Z" transform="translate(661.129 -7067.684)"/><path class="o" d="M1722.223,912.765c-2.246.912-6.353-1.038-6.353-1.038a5.762,5.762,0,0,0,1.622-3.495c.014-.115.024-.232.031-.349l1.161-.412,1.99,1.354a15.541,15.541,0,0,1-.024,1.835c-.011.2-.027.423-.048.656A4.008,4.008,0,0,1,1722.223,912.765Z" transform="translate(386.336 -6827.262)"/><path class="w" d="M1737.622,908.918a15.49,15.49,0,0,1-.024,1.835,4.754,4.754,0,0,1-3.158-2.421c.014-.115.023-.232.03-.349l1.161-.412Z" transform="translate(369.388 -6827.345)"/><path class="o" d="M1735.792,865.108s-3.869-.126-3.757-2.534-.306-4.047,2.169-4.068,2.914.917,3.068,1.733S1736.8,865.079,1735.792,865.108Z" transform="translate(371.585 -6782.546)"/><path d="M1720.509,847.41a1.8,1.8,0,0,1,.285-1.329s-.281-.786.021-.961.459.495.592.369a3.289,3.289,0,0,0,.9-1.505c.181-.786,2.862-.222,3.179-.128s-1.781-3.818-4.044-2.891-2.434,2.089-2.173,3.031S1719.51,847.216,1720.509,847.41Z" transform="translate(383.319 -6766.396)"/><path d="M1692.08,1166.77s.268,4.726,1.345,6.072,21.7.824,21.7.824.087-3.03-.717-3.809-4.573-3.018-16.6-4.286Z" transform="translate(408.042 -7062.999)"/><path class="l" d="M1688.282,951.526c.335,4.059-.107,10.234.275,11.3.328.923,4.079.374,5.576.066.555-.115,1.223-.277,1.922-.47,1.933-.537,4.04-1.3,4.266-1.875a.411.411,0,0,0,.02-.066.454.454,0,0,0,0-.239c-.055-.215-.229-.443-.33-.839a2.437,2.437,0,0,1-.07-.486c-.035-.736-.033-1.59-.059-2.51l-.008-.254a3.411,3.411,0,0,0-.017-.349V955.7c-.032-1.136-.1-2.326-.175-3.509-.024-.368-.051-.735-.079-1.1-.01-.128-.02-.255-.03-.382-.02-.237-.039-.472-.061-.7a26.139,26.139,0,0,0-.7-4.456,7.14,7.14,0,0,0-2.562-3.55l-.714-.55a4.556,4.556,0,0,1-2.59-.309c-.921-.394-1.239-.675-1.4-.569C1689.415,942.046,1687.884,946.563,1688.282,951.526Z" transform="translate(411.57 -6857.559)"/><path class="i" d="M1870.91,1426.306s.183,2.942.751,2.985c.076.005,2.883.005,2.883.005l3.588-.021a1.166,1.166,0,0,0-1.072-1.048,4.871,4.871,0,0,1-3.441-2.306C1872.955,1424.463,1870.91,1426.306,1870.91,1426.306Z" transform="translate(244.832 -7300.318)"/><path d="M1862.219,1252.064a3.98,3.98,0,0,0,2.107.6,5.638,5.638,0,0,0,.99-.039,4.719,4.719,0,0,0,1.266-.323l3.808-15.979s-4.125-3.6-6.277-1.363a3.72,3.72,0,0,0-.724,1.459C1862.023,1240.826,1862.219,1252.064,1862.219,1252.064Z" transform="translate(252.773 -7125.885)"/><path class="m" d="M1757.66,1030.647s2.67,9.777,5.72,10.968a2.435,2.435,0,0,1-.07-.486c-.035-.736-.033-1.59-.059-2.51l-.008-.254a3.34,3.34,0,0,0-.017-.349v-.107c-.032-1.136-.1-2.326-.175-3.509-.024-.368-.051-.735-.079-1.1A6.441,6.441,0,0,0,1757.66,1030.647Z" transform="translate(348.195 -6939.774)"/><path class="o" d="M1939.412,1065.8a7.987,7.987,0,0,0,1.462,0c.3-.087,1.7-.927,2.212-.747s1.793,1.494,1.464,2.092a1.688,1.688,0,0,1-1.151-.553c-.553-.568-1.151-.175-1.091-.1s.927.418.778.568a2.537,2.537,0,0,1-1.554-.06,9.245,9.245,0,0,0-2.271.045Z" transform="translate(182.451 -6971.148)"/><path class="l" d="M1731.734,971.41s7.232,6.164,9.135,6.759,8.629,1.9,8.629,1.9.185,1.592-.446,2.189c0,0-8.641-.5-9.717-.729s-9.094-4.382-9.748-4.7S1729.036,970.9,1731.734,971.41Z" transform="translate(374.116 -6885.651)"/><path d="M1862.219,1274.975a3.982,3.982,0,0,0,2.107.6,5.662,5.662,0,0,0,.99-.039c-2.172-2.746-1.927-16.206-1.927-16.206C1862.023,1263.736,1862.219,1274.975,1862.219,1274.975Z" transform="translate(252.776 -7148.795)"/><path class="l" d="M1713.7,838.716v.037a.255.255,0,0,0,.114.225.149.149,0,0,0,.071.019h9.168c.1,0,.184-.11.184-.245v-.037c0-.135-.083-.245-.184-.245L1721,838.21a3.8,3.8,0,0,0-2.534-3.189h0a3.318,3.318,0,0,0-1.027-.161,3.712,3.712,0,0,0-3.582,3.535l-.005.069-.038.028A.256.256,0,0,0,1713.7,838.716Z" transform="translate(388.319 -6760.943)"/><path class="m" d="M1718.441,838.355c-.683-3.616,1.591-3.384,1.668-3.374a3.322,3.322,0,0,0-1.027-.161,3.713,3.713,0,0,0-3.582,3.535Z" transform="translate(386.674 -6760.905)"/><path class="x" d="M1644,739.827a.306.306,0,0,1-.158-.568c.007,0,.163-.1.464-.262a.306.306,0,0,1,.3.534c-.29.162-.445.254-.447.255A.3.3,0,0,1,1644,739.827Z" transform="translate(452.213 -6673.354)"/><path class="i" d="M1737.2,697.362h0a.306.306,0,0,1-.3-.308v-.2c0-.279,0-.566-.01-.854a.306.306,0,0,1,.612-.014c.007.292.01.584.01.868v.2A.306.306,0,0,1,1737.2,697.362Zm-.047-2.118a.306.306,0,0,1-.306-.291q-.025-.524-.063-1.048a.307.307,0,0,1,.612-.044c.025.355.047.713.065,1.064a.307.307,0,0,1-.291.321Zm-.153-2.113a.306.306,0,0,1-.3-.277q-.05-.524-.112-1.048a.308.308,0,1,1,.612-.072c.041.349.08.709.113,1.06a.306.306,0,0,1-.275.333A.177.177,0,0,1,1737,693.131Zm-.247-2.1a.307.307,0,0,1-.3-.262c-.048-.349-.1-.7-.157-1.04a.306.306,0,0,1,.6-.1c.057.349.11.7.16,1.054a.306.306,0,0,1-.262.345Zm-.34-2.089a.306.306,0,0,1-.3-.251c-.064-.342-.132-.689-.2-1.032a.306.306,0,0,1,.6-.124q.108.524.2,1.048a.307.307,0,0,1-.246.356A.3.3,0,0,1,1736.412,688.939Zm-.429-2.072a.308.308,0,0,1-.3-.238c-.078-.34-.161-.684-.246-1.022a.306.306,0,1,1,.592-.149c.087.342.175.69.251,1.035a.306.306,0,0,1-.23.366A.314.314,0,0,1,1735.983,686.867Zm-.519-2.051a.307.307,0,0,1-.294-.225c-.094-.337-.191-.677-.291-1.01a.306.306,0,1,1,.585-.175c.1.337.2.682.3,1.023a.305.305,0,0,1-.213.376A.3.3,0,0,1,1735.464,684.816Zm-.612-2.026a.306.306,0,0,1-.29-.211c-.108-.332-.221-.667-.336-1a.306.306,0,1,1,.577-.2c.116.333.231.673.34,1.008a.306.306,0,0,1-.2.385.3.3,0,0,1-.093.016Zm-.7-2a.306.306,0,0,1-.287-.2c-.122-.326-.25-.655-.381-.979a.306.306,0,1,1,.568-.229c.132.328.262.662.386.992a.306.306,0,0,1-.287.413Zm-.786-1.962a.305.305,0,0,1-.281-.185c-.139-.321-.282-.645-.426-.961a.306.306,0,0,1,.557-.254c.146.319.291.647.432.973a.3.3,0,0,1-.161.4.294.294,0,0,1-.121.026Zm-.88-1.922a.306.306,0,0,1-.275-.175c-.152-.313-.311-.629-.471-.939a.306.306,0,0,1,.543-.28c.163.315.323.635.477.952a.307.307,0,0,1-.274.437Zm-.97-1.879a.3.3,0,0,1-.268-.159c-.168-.307-.342-.612-.516-.915a.306.306,0,0,1,.53-.307c.175.3.35.617.524.928a.306.306,0,0,1-.268.453Zm-1.06-1.835a.3.3,0,0,1-.262-.146c-.182-.3-.37-.6-.559-.889a.306.306,0,1,1,.514-.332c.192.3.384.6.567.9a.306.306,0,0,1-.1.42.3.3,0,0,1-.159.048Zm-1.149-1.768a.3.3,0,0,1-.253-.133c-.2-.289-.4-.578-.6-.861a.306.306,0,1,1,.5-.357c.205.286.411.579.612.874a.305.305,0,0,1-.253.478Zm-1.234-1.717a.306.306,0,0,1-.244-.121c-.21-.277-.426-.556-.643-.829a.306.306,0,1,1,.478-.381c.221.277.437.56.654.841a.306.306,0,0,1-.244.49Zm-1.317-1.654a.306.306,0,0,1-.234-.109c-.223-.262-.453-.535-.684-.8a.306.306,0,1,1,.459-.4c.234.262.468.537.694.807a.306.306,0,0,1-.234.5Zm-1.4-1.587a.3.3,0,0,1-.225-.1c-.236-.255-.479-.511-.722-.762a.306.306,0,0,1,.437-.426c.247.254.493.515.732.773a.3.3,0,0,1-.224.513Zm-1.473-1.517a.3.3,0,0,1-.214-.087c-.247-.243-.5-.488-.759-.726a.306.306,0,1,1,.418-.447c.262.242.518.489.769.737a.3.3,0,0,1-.214.524Zm-1.545-1.443a.3.3,0,0,1-.2-.078c-.262-.232-.524-.464-.792-.688a.306.306,0,1,1,.4-.466c.269.228.539.463.8.7a.306.306,0,0,1-.2.534Zm-1.611-1.369a.3.3,0,0,1-.192-.068c-.269-.218-.547-.437-.824-.651a.306.306,0,1,1,.374-.484c.281.217.562.437.834.66a.306.306,0,0,1-.192.543Zm-1.673-1.292a.3.3,0,0,1-.181-.059c-.281-.206-.567-.412-.853-.612a.306.306,0,0,1,.35-.5c.289.2.58.412.864.621a.306.306,0,0,1-.182.552Zm-1.729-1.215a.3.3,0,0,1-.169-.052c-.289-.194-.585-.387-.879-.575a.306.306,0,0,1,.33-.516c.3.19.6.386.889.582a.306.306,0,0,1-.17.56Zm-1.781-1.136a.3.3,0,0,1-.159-.045c-.3-.182-.6-.363-.9-.537a.306.306,0,0,1,.308-.524c.3.175.611.36.914.543a.306.306,0,0,1-.159.567Zm-55.655-.155a.306.306,0,0,1-.141-.578c.3-.159.624-.322.949-.482a.306.306,0,1,1,.272.548c-.321.159-.637.32-.938.477a.3.3,0,0,1-.144.028Zm53.83-.908a.3.3,0,0,1-.147-.039c-.307-.169-.618-.338-.925-.5a.306.306,0,1,1,.285-.541c.311.163.625.334.936.506a.306.306,0,0,1-.148.573Zm-51.933-.032a.306.306,0,0,1-.131-.583c.316-.149.641-.3.966-.446a.306.306,0,1,1,.251.557c-.321.145-.642.294-.956.437a.3.3,0,0,1-.134.027Zm1.929-.874a.306.306,0,0,1-.122-.587c.324-.14.654-.279.979-.413a.306.306,0,0,1,.233.566c-.323.133-.65.271-.971.409a.311.311,0,0,1-.124.022Zm48.134-.087a.3.3,0,0,1-.137-.033c-.314-.156-.631-.312-.944-.46a.306.306,0,1,1,.262-.553c.317.151.639.308.956.467a.306.306,0,0,1-.137.579Zm-46.178-.723a.306.306,0,0,1-.112-.591c.33-.129.664-.262.991-.382a.306.306,0,1,1,.216.573c-.326.121-.656.249-.983.378a.321.321,0,0,1-.116.021Zm44.268-.185a.308.308,0,0,1-.126-.027c-.318-.143-.642-.285-.961-.421a.306.306,0,0,1,.24-.563c.324.138.653.281.975.426a.306.306,0,0,1-.126.584Zm-42.287-.56a.306.306,0,0,1-.1-.593c.333-.12.672-.238,1-.349a.306.306,0,0,1,.2.578c-.328.113-.663.23-.994.349a.3.3,0,0,1-.106.015Zm40.341-.262a.311.311,0,0,1-.114-.022c-.324-.13-.654-.262-.979-.38a.306.306,0,1,1,.215-.572c.33.124.664.253.992.384a.306.306,0,0,1-.114.59Zm-38.338-.418a.306.306,0,0,1-.094-.6c.336-.109.677-.217,1.013-.32a.306.306,0,1,1,.179.584c-.333.1-.671.209-1,.317a.294.294,0,0,1-.1.01Zm36.357-.33a.3.3,0,0,1-.1-.017c-.331-.116-.667-.23-1-.338a.306.306,0,1,1,.191-.581c.333.109.672.225,1.007.342a.306.306,0,0,1-.1.595Zm-34.337-.3a.306.306,0,0,1-.087-.6c.34-.1.684-.2,1.022-.289a.306.306,0,1,1,.162.59c-.336.093-.676.189-1.013.287A.286.286,0,0,1,1671.678,653.664Zm32.327-.363a.284.284,0,0,1-.087-.013c-.332-.1-.672-.2-1.008-.294a.306.306,0,1,1,.165-.589c.341.1.685.2,1.021.3a.306.306,0,0,1-.087.6Zm-30.286-.2a.306.306,0,0,1-.076-.6c.34-.087.688-.175,1.031-.257a.306.306,0,1,1,.143.595c-.341.081-.685.168-1.022.254a.324.324,0,0,1-.079.01Zm28.248-.377a.33.33,0,0,1-.077-.01c-.339-.087-.682-.175-1.021-.253a.306.306,0,1,1,.141-.6c.342.08.689.166,1.033.255a.306.306,0,0,1-.076.6Zm-26.194-.12a.306.306,0,0,1-.066-.6c.349-.078.7-.153,1.039-.224a.306.306,0,1,1,.124.6c-.339.07-.686.144-1.029.221a.3.3,0,0,1-.067.01Zm24.135-.365a.312.312,0,0,1-.064-.007c-.34-.073-.687-.143-1.031-.209a.306.306,0,0,1,.115-.6c.349.066.7.137,1.043.211a.306.306,0,0,1-.064.605Zm-22.063-.064a.306.306,0,0,1-.057-.606q.524-.1,1.049-.19a.306.306,0,0,1,.1.6c-.343.06-.69.122-1.035.188a.318.318,0,0,1-.06.007Zm19.987-.335a.33.33,0,0,1-.052,0c-.35-.059-.695-.115-1.039-.165a.306.306,0,0,1,.087-.605q.524.079,1.048.168a.306.306,0,0,1-.051.607Zm-17.9-.025a.307.307,0,1,1-.046-.612c.35-.054.7-.106,1.048-.154a.306.306,0,0,1,.088.606c-.344.048-.694.1-1.042.153a.3.3,0,0,1-.048.009Zm15.81-.286h-.039c-.345-.044-.7-.087-1.044-.122a.307.307,0,0,1,.065-.612c.35.038.708.08,1.056.124a.306.306,0,0,1-.039.612Zm-13.717,0a.306.306,0,0,1-.036-.612c.35-.043.708-.082,1.056-.118a.307.307,0,1,1,.063.612q-.524.054-1.048.117h-.032Zm2.1-.216a.306.306,0,1,1-.025-.612c.356-.03.712-.057,1.06-.08a.306.306,0,1,1,.04.612c-.343.023-.7.05-1.048.079Zm9.507-.006h-.026q-.524-.046-1.048-.08a.307.307,0,1,1,.041-.612c.349.024.709.051,1.06.081a.306.306,0,0,1-.026.612Zm-7.4-.135a.306.306,0,0,1-.015-.612c.355-.018.713-.031,1.063-.042a.306.306,0,0,1,.018.612c-.35.01-.7.024-1.048.041Zm5.286-.006h-.012q-.524-.025-1.049-.039a.306.306,0,0,1,.017-.612c.35.01.71.023,1.063.039a.306.306,0,0,1-.014.612Zm-3.172-.057a.306.306,0,1,1,0-.612q.529-.005,1.063,0a.306.306,0,0,1,0,.612h0q-.524-.005-1.049,0Z" transform="translate(437.642 -6592.689)"/><path class="x" d="M2544.114,1192.96h-.026a.306.306,0,0,1-.279-.33s.015-.181.029-.51a.306.306,0,1,1,.611.026c-.015.343-.031.524-.031.536A.3.3,0,0,1,2544.114,1192.96Z" transform="translate(-369.327 -7086.943)"/><path class="x" d="M1048.737,892.771h-.035l-.524-.058a.308.308,0,0,1,.067-.612l.524.059a.306.306,0,1,1-.035.612Z" transform="translate(995.982 -6813.208)"/><path class="i" d="M401.034,927.029h-.04a.3.3,0,0,1-.262-.342c.044-.341.094-.695.15-1.048a.306.306,0,0,1,.6.094c-.055.349-.1.7-.149,1.036a.307.307,0,0,1-.3.26Zm.324-2.084a.382.382,0,0,1-.054,0,.306.306,0,0,1-.247-.356c.062-.343.128-.694.2-1.041a.306.306,0,1,1,.6.121c-.069.343-.135.689-.2,1.028A.306.306,0,0,1,401.358,924.945Zm.415-2.064a.283.283,0,0,1-.066-.008.306.306,0,0,1-.232-.365c.076-.341.157-.688.24-1.03a.306.306,0,0,1,.594.145c-.082.339-.163.682-.237,1.019A.307.307,0,0,1,401.773,922.881Zm.5-2.044a.311.311,0,0,1-.079-.01.306.306,0,0,1-.217-.374c.087-.339.184-.682.28-1.02a.306.306,0,0,1,.588.168c-.1.334-.189.673-.278,1.008A.306.306,0,0,1,402.271,920.837Zm.578-2.023a.326.326,0,0,1-.087-.013.306.306,0,0,1-.2-.383c.1-.335.211-.675.321-1.007a.306.306,0,1,1,.581.191c-.108.329-.215.665-.317,1A.306.306,0,0,1,402.85,918.814Zm.656-2a.322.322,0,0,1-.1-.017.306.306,0,0,1-.187-.39c.116-.331.237-.666.36-.994a.306.306,0,0,1,.573.214c-.121.324-.241.655-.356.982A.3.3,0,0,1,403.506,916.817Zm.736-1.969a.3.3,0,0,1-.113-.022.3.3,0,0,1-.175-.4c.129-.327.262-.656.4-.979a.306.306,0,0,1,.564.238c-.135.319-.267.644-.4.967A.306.306,0,0,1,404.241,914.848Zm.815-1.938a.312.312,0,0,1-.124-.026.307.307,0,0,1-.156-.4c.143-.322.292-.645.437-.961a.306.306,0,1,1,.553.262c-.147.313-.293.633-.437.95A.305.305,0,0,1,405.057,912.91Zm.9-1.9a.307.307,0,0,1-.274-.442c.157-.315.319-.632.481-.942a.306.306,0,1,1,.542.284c-.16.306-.32.619-.475.93A.3.3,0,0,1,405.952,911.009Zm.976-1.861a.306.306,0,0,1-.267-.453c.175-.309.349-.619.524-.92a.306.306,0,1,1,.524.308c-.175.3-.349.6-.516.908A.307.307,0,0,1,406.928,909.148Zm1.059-1.815a.306.306,0,0,1-.262-.466c.185-.3.375-.6.564-.895a.306.306,0,0,1,.514.332c-.187.288-.374.585-.557.882A.305.305,0,0,1,407.987,907.333Zm1.141-1.764a.306.306,0,0,1-.253-.478c.2-.292.4-.584.605-.867a.306.306,0,0,1,.5.356c-.2.28-.4.567-.6.855a.3.3,0,0,1-.253.134Zm1.223-1.707a.306.306,0,0,1-.244-.49c.211-.28.429-.562.647-.836a.306.306,0,1,1,.479.38c-.215.271-.429.549-.638.825A.307.307,0,0,1,410.351,903.862Zm1.306-1.645a.3.3,0,0,1-.2-.071.3.3,0,0,1-.039-.431c.225-.269.456-.539.688-.8a.306.306,0,1,1,.46.4c-.229.262-.457.524-.678.792A.309.309,0,0,1,411.657,902.217Zm1.387-1.573a.306.306,0,0,1-.225-.514c.239-.262.484-.516.729-.767a.306.306,0,0,1,.437.427c-.24.246-.482.5-.717.756a.306.306,0,0,1-.224.094Zm1.465-1.5a.306.306,0,0,1-.213-.524c.252-.245.51-.491.767-.729a.306.306,0,1,1,.415.449c-.253.234-.507.475-.756.717a.3.3,0,0,1-.213.082Zm1.541-1.426a.306.306,0,0,1-.2-.536c.262-.231.534-.462.8-.687a.306.306,0,1,1,.391.47c-.266.221-.533.449-.792.676a.306.306,0,0,1-.2.072Zm1.615-1.343a.306.306,0,0,1-.19-.545c.276-.218.558-.437.84-.644a.306.306,0,1,1,.366.49c-.277.206-.556.419-.827.633a.3.3,0,0,1-.189.061Zm1.683-1.255a.306.306,0,0,1-.175-.556c.287-.2.58-.4.874-.6a.306.306,0,0,1,.339.509c-.287.191-.576.39-.859.59a.3.3,0,0,1-.179.052Zm1.747-1.166a.306.306,0,0,1-.163-.564c.294-.185.6-.371.9-.552a.306.306,0,0,1,.312.524c-.3.175-.6.361-.888.543a.3.3,0,0,1-.165.045Zm1.8-1.072a.306.306,0,0,1-.149-.573c.3-.175.618-.341.929-.505a.306.306,0,0,1,.286.541c-.307.162-.612.329-.916.5a.307.307,0,0,1-.151.035Zm1.857-.979a.306.306,0,0,1-.136-.58c.313-.155.633-.308.953-.458a.307.307,0,0,1,.262.555c-.315.147-.632.3-.939.451a.3.3,0,0,1-.142.028Zm1.9-.885a.306.306,0,0,1-.122-.586c.322-.141.649-.279.974-.411a.306.306,0,0,1,.231.566c-.32.13-.643.262-.961.405a.319.319,0,0,1-.123.021Zm1.944-.792a.306.306,0,0,1-.109-.591c.326-.124.66-.246.992-.364a.306.306,0,1,1,.2.577c-.328.116-.657.237-.979.359a.32.32,0,0,1-.11.015Zm1.978-.7a.306.306,0,0,1-.1-.6c.335-.109.674-.217,1.007-.318a.306.306,0,1,1,.175.585c-.329.1-.664.206-.994.315a.327.327,0,0,1-.094.01Zm2.01-.612a.306.306,0,0,1-.087-.6c.336-.094.68-.187,1.021-.274a.306.306,0,0,1,.152.592c-.336.087-.675.175-1.007.271a.3.3,0,0,1-.08.008Zm2.032-.524a.306.306,0,0,1-.07-.6c.34-.079.687-.157,1.03-.231a.306.306,0,1,1,.128.6c-.34.073-.682.149-1.019.229a.321.321,0,0,1-.073.005Zm2.052-.437a.306.306,0,0,1-.058-.605c.342-.066.692-.13,1.038-.19a.306.306,0,1,1,.1.6c-.342.059-.688.122-1.027.188a.341.341,0,0,1-.061,0Zm2.068-.358a.307.307,0,0,1-.046-.612q.524-.08,1.048-.151a.306.306,0,1,1,.082.606c-.344.046-.692.1-1.033.149a.287.287,0,0,1-.054,0Zm2.08-.281a.306.306,0,0,1-.036-.612q.524-.06,1.048-.114a.307.307,0,0,1,.06.612c-.345.034-.695.072-1.038.112Zm15.721-.024h-.031c-.349-.035-.7-.067-1.042-.1a.307.307,0,0,1,.053-.612c.343.031.7.063,1.048.1a.306.306,0,0,1-.03.612Zm-2.1-.182h-.023c-.344-.026-.7-.05-1.044-.072a.306.306,0,1,1,.038-.612c.349.022.705.046,1.048.073a.306.306,0,1,1-.023.612Zm-11.539,0a.306.306,0,0,1-.024-.612q.524-.042,1.048-.078a.306.306,0,1,1,.04.612c-.349.024-.7.05-1.041.078Zm9.443-.128h-.016c-.349-.017-.7-.033-1.048-.045a.306.306,0,0,1,.022-.612c.349.013.7.029,1.054.046a.306.306,0,1,1-.015.612Zm-7.348-.01a.306.306,0,1,1-.015-.612c.349-.017.7-.032,1.053-.045a.306.306,0,1,1,.022.612q-.524.017-1.048.044Zm5.248-.066h-.007q-.524-.012-1.048-.017a.306.306,0,1,1,.006-.612c.35,0,.7.01,1.055.017a.306.306,0,1,1-.007.612Zm-3.151-.007a.306.306,0,0,1-.006-.612c.349-.007.7-.011,1.055-.013h0a.306.306,0,0,1,0,.612c-.349,0-.7.006-1.048.012Z" transform="translate(1586.663 -6808.081)"/><path class="x" d="M399.16,1358.788h-.018a.306.306,0,0,1-.287-.323c0-.008.011-.191.045-.534a.307.307,0,1,1,.612.06c-.032.328-.043.508-.043.51A.306.306,0,0,1,399.16,1358.788Z" transform="translate(1588.375 -7238.528)"/><path d="M393.738,1582.524H160.262a.262.262,0,0,1-.262-.262h0a.262.262,0,0,1,.262-.262H393.738a.262.262,0,0,1,.262.262h0A.262.262,0,0,1,393.738,1582.524Z" transform="translate(1806.36 -7443.273)"/></g></svg>