<svg xmlns="http://www.w3.org/2000/svg" width="308" height="188" viewBox="0 0 308 188"><defs><style>.a{fill:#ebebeb;}.b{fill:#e0e0e0;}.c{fill:#f5f5f5;}.d{opacity:0.3;}.e{fill:#ff725e;}.f{fill:#fafafa;}.g{fill:#f45b55;}.h{fill:#fff;}.i{fill:#263238;}.j{fill:#ffbe9d;}.k{fill:#eb996e;}.l{fill:#455a64;}</style></defs><g transform="translate(-0.005 0)"><g transform="translate(0.005 0)"><rect class="a" width="26.041" height="38.633" transform="translate(262.294 134.185) rotate(-67.2)"/><path class="b" d="M662.494,289.649a3.279,3.279,0,0,1-.468.178l-1.357.468-5.012,1.6-16.607,5.157-.136.042-.07-.126-.164-.3-8.423-15.512c-1.044-1.97-1.9-3.57-2.508-4.721-.276-.538-.5-.964-.669-1.292a2.971,2.971,0,0,1-.211-.468,2.532,2.532,0,0,1,.276.431l.725,1.259c.632,1.137,1.516,2.723,2.606,4.679,2.185,3.987,5.18,9.438,8.488,15.442l.164.309-.206-.084L655.6,291.67l5.049-1.5,1.376-.388a2.425,2.425,0,0,1,.473-.136Z" transform="translate(-354.511 -164.149)"/><path class="b" d="M605.359,315.361c-.047-.084,4.015-2.251,9.069-4.834s9.186-4.609,9.232-4.52-4.02,2.251-9.073,4.834S605.4,315.44,605.359,315.361Z" transform="translate(-343.066 -180.823)"/><path class="b" d="M670,316c.094-.023,1.371,4.352,2.845,9.78s2.6,9.827,2.5,9.873-1.366-4.352-2.84-9.78S669.921,316,670,316Z" transform="translate(-377.455 -186.148)"/><rect class="c" width="19.363" height="28.731" transform="translate(36.097 171.83) rotate(-67.2)"/><path class="b" d="M165.434,379.342a1.757,1.757,0,0,1-.346.136l-1.006.332L160.338,381,147.98,384.85l-.1.033-.051-.094c-.037-.075-.08-.15-.126-.229l-6.242-11.535-1.872-3.514-.5-.959a2.387,2.387,0,0,1-.159-.342,1.716,1.716,0,0,1,.206.318l.538.936c.468.842,1.132,2.021,1.937,3.472l6.312,11.5c.042.08.084.159.126.229l-.154-.061,12.382-3.772,3.743-1.114,1.025-.29a1.757,1.757,0,0,1,.388-.084Z" transform="translate(-95.353 -213.948)"/><path class="b" d="M122.94,398.4c-.033-.065,2.985-1.675,6.743-3.6s6.855-3.425,6.855-3.36-2.985,1.671-6.743,3.594S122.968,398.457,122.94,398.4Z" transform="translate(-86.845 -226.306)"/><path class="b" d="M171,398.87c.066,0,1.015,3.238,2.11,7.272s1.933,7.323,1.872,7.342-1.02-3.238-2.115-7.272S170.946,398.889,171,398.87Z" transform="translate(-112.326 -230.261)"/><rect class="c" width="33.79" height="32.695" transform="translate(0 107.875) rotate(-21.62)"/><path class="b" d="M28.74,266.293l2.494-19.083L42.3,254.388l2.218-7.019,10.767,8.4Z" transform="translate(-15.294 -131.594)"/><path class="b" d="M93.66,268.73a2.429,2.429,0,1,1-1.3-1.339A2.433,2.433,0,0,1,93.66,268.73Z" transform="translate(-68.768 -160.162)"/><g class="d" transform="translate(3.305 98.745)"><path class="b" d="M89.588,275.026a.814.814,0,0,1-.056-.122c-.037-.094-.089-.206-.15-.351l-.557-1.366c-.468-1.2-1.184-2.939-2.078-5.147-1.773-4.431-4.305-10.763-7.337-18.324l.178.08L53.056,260.333c-.023.047.168-.393.089-.206v.1l.042.108.084.22.173.431.342.866c.229.571.468,1.146.679,1.713l1.343,3.388,2.592,6.551,4.731,11.989-.178-.075,19.214-7.538,5.428-2.115,1.441-.552.374-.14a.818.818,0,0,1,.136-.042l-.112.051-.356.15-1.4.576L82.3,277.974l-19.2,7.7-.131.056-.051-.131c-1.474-3.7-3.074-7.726-4.764-11.979q-1.268-3.191-2.6-6.551c-.44-1.118-.889-2.246-1.338-3.383-.229-.571-.468-1.142-.683-1.717l-.342-.866-.173-.431-.084-.215-.042-.112v-.08h0c-.08.182.108-.262.094-.215l26.546-10.5.131-.051.051.126,7.239,18.46,2,5.147.519,1.348c.051.145.094.257.126.342a.529.529,0,0,1,0,.1Z" transform="translate(-52.868 -249.5)"/></g><path class="a" d="M476.333,400.506l-1.7-1.226a4.937,4.937,0,0,1-1.914-2.883l-1.2-5.147a6.977,6.977,0,0,0-7.323-5.344l-.468-1.993a.936.936,0,0,0-1.128-.7h0a.936.936,0,0,0-.7,1.128l.468,1.956a6.972,6.972,0,0,0-4.431,8.142l1.146,4.941a4.927,4.927,0,0,1-.332,3.21l-1.062,2.279,6.911-1.647a2.913,2.913,0,0,0,5.339-1.24Z" transform="translate(-264.649 -221.917)"/><path class="c" d="M445.141,81.73l29.939,19.564-12.62,20.8L431.8,101.337Z" transform="translate(-229.398 -43.509)"/><path class="e" d="M506.11,117.75l21.675-2.05a1.942,1.942,0,0,1,2.04,1.362l6.224,20.248" transform="translate(-290.362 -79.52)"/><path class="b" d="M506.11,117.75l21.675-2.05a1.942,1.942,0,0,1,2.04,1.362l6.224,20.248" transform="translate(-290.362 -79.52)"/><path class="b" d="M477.6,157.049c0-.061,4.1-1.081,9.19-2.279s9.246-2.134,9.246-2.073-4.1,1.076-9.186,2.279S477.614,157.1,477.6,157.049Z" transform="translate(-275.228 -99.215)"/><path class="b" d="M540.182,185.535c-.061,0-.693-4.085-1.4-9.144s-1.245-9.167-1.184-9.172.688,4.08,1.4,9.144S540.243,185.526,540.182,185.535Z" transform="translate(-307.121 -106.95)"/><path class="b" d="M460.31,81.73l7.042,21.581,22.9-2.017Z" transform="translate(-244.562 -43.507)"/><path class="f" d="M461.94,75.605l6.135-9.335,26.293,17.014-6.2,9.986-19.841,1.661Z" transform="translate(-245.425 -35.278)"/><path class="b" d="M507.75,113.886s.047.122.126.351l.356,1.02c.3.908.744,2.218,1.31,3.893,1.123,3.364,2.733,8.184,4.679,14.038l-.1-.07,19.841-1.685-.094.056,3.687-5.938q1.278-2.05,2.518-4.048l.037.168-26.27-17.047h.108l-4.539,6.841c-.529.791-.936,1.4-1.221,1.825l-.323.468c-.07.108-.112.159-.112.159s.028-.056.094-.164.168-.271.3-.468l1.179-1.839,4.492-6.9.042-.066.065.042,26.317,16.972.1.066-.061.1-2.517,4.048-3.687,5.9-.033.051h-.061L514.137,133.3h-.08l-.023-.075-4.6-14.09c-.543-1.675-.969-2.99-1.259-3.9l-.323-1.02C507.778,114,507.75,113.886,507.75,113.886Z" transform="translate(-291.23 -73.553)"/><path class="b" d="M541.223,131.811c-.037.056-4.071-2.522-9.013-5.76s-8.919-5.905-8.891-5.962,4.071,2.522,9.013,5.76S541.261,131.745,541.223,131.811Z" transform="translate(-299.52 -81.86)"/><path class="b" d="M537.493,137.431c-.037.056-4.071-2.522-9.013-5.76s-8.919-5.905-8.891-5.962,4.071,2.522,9.017,5.76S537.531,137.375,537.493,137.431Z" transform="translate(-297.539 -84.851)"/><path class="b" d="M533.193,143.9c-.033.056-4.071-2.522-9.012-5.756s-8.919-5.91-8.891-5.966,4.076,2.522,9.017,5.76S533.231,143.845,533.193,143.9Z" transform="translate(-295.254 -88.295)"/><path class="b" d="M529.845,150.992c-.037.056-3.889-2.4-8.605-5.489s-8.507-5.615-8.47-5.695,3.889,2.4,8.605,5.489S529.882,150.935,529.845,150.992Z" transform="translate(-293.916 -92.356)"/><path class="b" d="M526.565,157.02a2.067,2.067,0,0,1-.431-.229L525,156.1l-3.683-2.34c-1.437-.936-2.723-1.773-3.65-2.4-.468-.314-.833-.576-1.086-.758a1.87,1.87,0,0,1-.379-.3,1.774,1.774,0,0,1,.43.225l1.128.693,3.687,2.34c1.437.936,2.723,1.769,3.645,2.4.468.314.833.571,1.086.758a1.872,1.872,0,0,1,.388.3Z" transform="translate(-295.746 -97.941)"/><path class="b" d="M523.23,162.487a10.732,10.732,0,0,1-1.965-1.16,10.589,10.589,0,0,1-1.834-1.366,10.729,10.729,0,0,1,1.965,1.16,10.586,10.586,0,0,1,1.834,1.366Z" transform="translate(-297.47 -103.082)"/><path class="a" d="M257.265,153.237l-4.6,6.851-1.792-.739-13.341,8.423-2.6-7.061s7.553-2.232,9.19-4.637.168-3.168.168-3.168l3.842-3.435Z" transform="translate(-146.29 -97.501)"/><path class="a" d="M225.994,91.556s-5.306-1.872-12.092-10.15-9.218-18.521-10.164-18.6-4.815-2.457-14.642,13.57-7.23,20.332-5.671,20.486,12.438-1.521,18.928,0,14.539,5.976,14.539,5.976Z" transform="translate(-118.111 -51.276)"/><path class="b" d="M274.842,132.536l-2.284,3.313-1.02,1.483a4.651,4.651,0,0,1-6.266,1.324l-11.193-5.47,8.662-14.717,10.954,7.618A4.647,4.647,0,0,1,274.842,132.536Z" transform="translate(-156.465 -80.999)"/><path class="b" d="M190.967,77.167c-5.25,8.69-7.955,16.668-6.05,17.824s7.716-4.955,12.962-13.645,7.955-16.673,6.05-17.824S196.213,68.477,190.967,77.167Z" transform="translate(-119.394 -51.669)"/><path class="a" d="M285.667,144.722a35.89,35.89,0,0,1-6.518-3.94,18.154,18.154,0,0,1,3.365,1.792A17.626,17.626,0,0,1,285.667,144.722Z" transform="translate(-169.792 -92.87)"/><path class="a" d="M289.087,140.38a15.3,15.3,0,0,1-3.032-1.727,13.966,13.966,0,0,1-2.808-2.073,15.045,15.045,0,0,1,3.032,1.731A14.678,14.678,0,0,1,289.087,140.38Z" transform="translate(-171.97 -90.633)"/><path class="a" d="M283.1,149.834c-.023.051-.388-.08-.964-.337-.29-.131-.632-.29-1.011-.468a12.2,12.2,0,0,1-1.16-.693,13.145,13.145,0,0,1-2.808-2.045,17.875,17.875,0,0,1,3.023,1.7c.407.243.781.51,1.137.711s.683.379.936.538C282.8,149.558,283.124,149.783,283.1,149.834Z" transform="translate(-168.734 -95.804)"/><path class="f" d="M206.99,89.5s-4.389-3.5-7.744,2.583,1.5,7.74,1.5,7.74A43.05,43.05,0,0,0,206.99,89.5Z" transform="translate(-126.707 -65.03)"/><path class="b" d="M210.621,75.63a6.7,6.7,0,0,1-.332,1.2c-.243.763-.59,1.872-1.058,3.233-.285.66-.594,1.4-.936,2.162l-.519,1.2c-.089.206-.178.416-.271.627s-.215.416-.323.627q-.674,1.259-1.4,2.634-.182.337-.365.688a6.846,6.846,0,0,1-.421.674l-.852,1.371-.884,1.366a6.729,6.729,0,0,1-.44.66l-.468.622-1.816,2.368c-.15.187-.285.379-.435.557l-.468.505-.884.973-1.582,1.741c-1.039.987-1.9,1.764-2.494,2.3a7.273,7.273,0,0,1-.959.8,7.75,7.75,0,0,1,.847-.936l2.405-2.4,1.535-1.759.856-.978c.15-.164.3-.337.468-.51a5.985,5.985,0,0,0,.426-.552l1.783-2.368.468-.622c.159-.206.285-.435.435-.655l.87-1.362.875-1.357c.136-.225.295-.435.416-.669l.37-.683c.468-.9.959-1.773,1.4-2.6.108-.211.229-.412.328-.618s.187-.416.276-.622l.533-1.189.964-2.129,1.179-3.173A7.826,7.826,0,0,1,210.621,75.63Z" transform="translate(-124.391 -58.185)"/><path class="a" d="M158.214,101.707c0,.07-3.439-.047-7.679-.253s-7.67-.431-7.665-.5,3.439.047,7.679.253S158.218,101.642,158.214,101.707Z" transform="translate(-97.45 -71.652)"/><path class="a" d="M162.693,71.008c-.028.061-4.015-1.872-8.891-4.352s-8.835-4.511-8.8-4.567,4.015,1.872,8.891,4.347S162.725,70.937,162.693,71.008Z" transform="translate(-98.51 -50.98)"/><path class="a" d="M191.533,51.915c-.065,0-.936-3-1.928-6.748s-1.755-6.8-1.689-6.818.936,3.009,1.928,6.752S191.6,51.9,191.533,51.915Z" transform="translate(-121.315 -38.35)"/><path class="a" d="M462.4,80.895a5.714,5.714,0,0,0-1.97-2.808,5.47,5.47,0,0,0-3.112-1.24,4.492,4.492,0,0,0-3.276,1.259,4.436,4.436,0,0,0-1.118,1.816,4.413,4.413,0,0,0-5.068-1.259,5.451,5.451,0,0,0-2.513,2.218,5.7,5.7,0,0,0-.936,3.3,6.926,6.926,0,0,0,1.582,4.062,9.77,9.77,0,0,0,3.875,2.55c2.405.936,5.559,2.082,5.559,2.082s2.115-2.232,4.066-3.926a9.827,9.827,0,0,0,2.808-3.7A6.968,6.968,0,0,0,462.4,80.895Z" transform="translate(-257.59 -58.831)"/><path class="a" d="M425.64,54.452a3.4,3.4,0,0,0-.566-1.947,3.22,3.22,0,0,0-1.507-1.3,2.653,2.653,0,0,0-2.087.07,2.7,2.7,0,0,0-.987.833,2.574,2.574,0,0,0-.636-.936,2.634,2.634,0,0,0-1.956-.721,3.215,3.215,0,0,0-1.825.721,3.388,3.388,0,0,0-1.146,1.675,4.118,4.118,0,0,0,.1,2.578,5.784,5.784,0,0,0,1.685,2.171c1.165.987,2.714,2.237,2.714,2.237s1.61-.842,3.028-1.4a5.737,5.737,0,0,0,2.279-1.535A4.132,4.132,0,0,0,425.64,54.452Z" transform="translate(-241.852 -44.789)"/><path class="a" d="M240.4,383.527a3.36,3.36,0,0,0-1.348-1.516,3.276,3.276,0,0,0-1.919-.524,2.6,2.6,0,0,0-2.387,2.106,2.6,2.6,0,0,0-.987-.59,2.658,2.658,0,0,0-2.078.187,3.247,3.247,0,0,0-1.334,1.479,3.378,3.378,0,0,0-.314,2,4.09,4.09,0,0,0,1.2,2.288,5.826,5.826,0,0,0,2.452,1.235c1.479.388,3.411.852,3.411.852s1.09-1.455,2.129-2.583a5.816,5.816,0,0,0,1.4-2.34,4.122,4.122,0,0,0-.234-2.6Z" transform="translate(-143.675 -221.011)"/><path class="b" d="M622.617,181.678a15.721,15.721,0,0,0-.276-2.457,9.689,9.689,0,0,0-1.02-2.7,9.972,9.972,0,0,0-11.8-4.679,9.261,9.261,0,0,0-2.564,1.259,11.827,11.827,0,0,0-1.16.912,11.515,11.515,0,0,0-1.015,1.114,9.887,9.887,0,0,0-.468,11.727,11.058,11.058,0,0,0,.936,1.189,11.553,11.553,0,0,0,1.09,1.006A9.46,9.46,0,0,0,608.8,190.5a10,10,0,0,0,5.2.641,9.827,9.827,0,0,0,4.263-1.685,9.975,9.975,0,0,0,2.658-2.723,9.529,9.529,0,0,0,1.226-2.611,15.7,15.7,0,0,0,.468-2.429s0,.056,0,.164a3.07,3.07,0,0,1-.028.468,5.067,5.067,0,0,1-.094.777,7.441,7.441,0,0,1-.234,1.044,9.6,9.6,0,0,1-1.2,2.672,10.129,10.129,0,0,1-12.368,3.931,9.752,9.752,0,0,1-2.536-1.483,12.89,12.89,0,0,1-1.123-1.029,12.2,12.2,0,0,1-.936-1.221,10.164,10.164,0,0,1,.468-12.087,11.676,11.676,0,0,1,1.048-1.146,11.873,11.873,0,0,1,1.2-.936,9.475,9.475,0,0,1,2.644-1.287,10.154,10.154,0,0,1,12.031,4.881,9.5,9.5,0,0,1,.987,2.756,7.241,7.241,0,0,1,.15,1.058,4.272,4.272,0,0,1,.033.781c0,.2,0,.356,0,.468A.253.253,0,0,1,622.617,181.678Z" transform="translate(-341.456 -109.004)"/><path class="b" d="M612.193,191.457a10.042,10.042,0,0,1-3.9-.758,9.827,9.827,0,0,1-2.592-1.516,8.8,8.8,0,0,1-.936-.842l-.206-.2-.183-.211a9.741,9.741,0,0,1-.814-1.058,10.407,10.407,0,0,1,.468-12.358,9.9,9.9,0,0,1,.889-.983l.178-.178.234-.2a9.7,9.7,0,0,1,1.006-.772,9.855,9.855,0,0,1,2.7-1.31,10.519,10.519,0,0,1,5.5-.22,10.384,10.384,0,0,1,6.809,5.217,9.7,9.7,0,0,1,1.011,2.808,6.214,6.214,0,0,1,.145.973v.1a4.578,4.578,0,0,1,.033.81v.468a1.8,1.8,0,0,1,0,.182v.15l-.028.468a5.615,5.615,0,0,1-.1.81v.1a7.326,7.326,0,0,1-.22.969,9.777,9.777,0,0,1-1.226,2.723,10.4,10.4,0,0,1-7.192,4.679A11.858,11.858,0,0,1,612.193,191.457Zm0-20.121a9.05,9.05,0,0,0-2.915.468,8.938,8.938,0,0,0-2.5,1.226,8.124,8.124,0,0,0-.936.707l-.4.365a8.71,8.71,0,0,0-.763.889,9.658,9.658,0,0,0-.468,11.455,9.238,9.238,0,0,0,.749.973l.168.2.192.192a8.178,8.178,0,0,0,.856.753,9.016,9.016,0,0,0,2.405,1.4,9.723,9.723,0,0,0,11.839-3.673,9.4,9.4,0,0,0,1.2-2.546,11.393,11.393,0,0,0,.421-2.157.5.5,0,0,1,.028-.22c.028-.056,0-.126,0-.22a11.442,11.442,0,0,0-.253-2.181,9.55,9.55,0,0,0-1-2.635,9.827,9.827,0,0,0-2.382-2.85,9.709,9.709,0,0,0-4.024-1.965,10.688,10.688,0,0,0-2.2-.2Z" transform="translate(-341.149 -108.741)"/><path class="b" d="M638.288,209.149c.061-.056,2.176,2.124,4.721,4.876s4.558,5.026,4.492,5.086-2.176-2.124-4.722-4.876S638.228,209.21,638.288,209.149Z" transform="translate(-360.586 -129.266)"/><path class="b" d="M647.348,219.058h-.08c-.094,0-.313,0-4.881-4.951s-4.562-5.147-4.558-5.25v-.1l.07-.066c.2-.187.215-.2,1.759,1.4.889.936,2.059,2.162,3.276,3.5s2.377,2.592,3.229,3.556c1.465,1.661,1.451,1.675,1.249,1.872Z" transform="translate(-360.342 -128.979)"/><path class="a" d="M131.829,157.533l-1.947.781-6.635-4.211-1.558-3.893s-3.088,1.025-.693,5.98S122.489,160,122.489,160s-6.387,2.588-6.7,3.36c-.225.557,2.148,6.986,3.463,10.458a4.015,4.015,0,0,0,4.151,2.7,2.893,2.893,0,0,0,.725-.182c1.6-.641,9.232-5.2,9.232-5.2l3.369-1.352Z" transform="translate(-83.035 -97.896)"/><path class="a" d="M110.261,120.44l4.141,13.818-3.336,1.338-5.236-13.07Z" transform="translate(-56.31 -64.112)"/><path class="c" d="M552.374,370.03l-2.3.379-6.167-6.163-.753-4.586s-3.589.365-2.181,6.3.7,4.483.7,4.483-7.539,1.273-8.058,2.036c-.374.547.655,8.077,1.245,12.166a4.466,4.466,0,0,0,3.846,3.917,3.521,3.521,0,0,0,.833,0c1.872-.309,11.231-3.425,11.231-3.425l3.968-.655Z" transform="translate(-304.946 -209.399)"/><path class="c" d="M535.587,338.46l1.179,15.952-3.935.65-2.541-15.4Z" transform="translate(-281.693 -180.174)"/><path class="a" d="M295.946,400.316a5.877,5.877,0,0,0,4.993-4.113,5.522,5.522,0,1,0-10.482-3.407,5.873,5.873,0,0,0,1.671,6.313c-8.465-1.366-10.908,7.529-10.908,7.529l19.083,6.186S303.578,404.088,295.946,400.316Z" transform="translate(-170.885 -224.824)"/></g><g transform="translate(32.187 15.278)"><rect class="e" width="246.713" height="60.121" rx="30.06" transform="translate(0 76.101)"/><g class="d" transform="translate(0 76.101)"><rect width="246.713" height="60.121" rx="30.06"/></g><rect class="g" width="246.713" height="60.121" rx="30.06" transform="translate(0 71.173)"/><g class="d" transform="translate(167.953 71.178)"><path d="M484.41,223.11s-1.352.028-2.036,0h-6.551l-3.023,5.564c.7,1.474,1.605,3.116,3.2,3.444a4.707,4.707,0,0,0,2.372-.3,16.228,16.228,0,0,0,5.227-2.728,5.564,5.564,0,0,0,2.068-2.808A2.847,2.847,0,0,0,484.41,223.11Z" transform="translate(-472.8 -223.11)"/></g><path class="h" d="M192.46,284.294l1.254-2.808a10.762,10.762,0,0,0,6.425,2.157c3.028,0,4.31-1.086,4.31-2.532,0-4.211-11.572-1.446-11.572-8.68,0-3.14,2.5-5.812,7.843-5.812a12.286,12.286,0,0,1,6.481,1.727l-1.142,2.808a10.8,10.8,0,0,0-5.367-1.549c-3,0-4.211,1.17-4.211,2.644,0,4.141,11.539,1.446,11.539,8.591,0,3.116-2.527,5.788-7.866,5.788C197.107,286.634,194.074,285.684,192.46,284.294Z" transform="translate(-156.017 -175.082)"/><path class="h" d="M246.892,277.05V291.9h-3.308v-1.872a6.083,6.083,0,0,1-4.787,2.087c-3.809,0-6.4-2.087-6.4-6.551V277.05h3.477v8.011c0,2.7,1.282,3.977,3.477,3.977,2.419,0,4.062-1.5,4.062-4.478v-7.51Z" transform="translate(-177.159 -180.631)"/><path class="h" d="M288.89,277.9a7.237,7.237,0,0,1-7.538,7.623,6.141,6.141,0,0,1-4.923-2.115v1.919H273.12V264.69H276.6v7.595a6.158,6.158,0,0,1,4.754-1.975A7.208,7.208,0,0,1,288.89,277.9Zm-3.533,0a4.414,4.414,0,1,0-4.394,4.647,4.307,4.307,0,0,0,4.394-4.647Z" transform="translate(-198.786 -174.055)"/><path class="h" d="M310.27,290.253l1.334-2.644a9.949,9.949,0,0,0,5.171,1.474c2.2,0,3.116-.608,3.116-1.638,0-2.836-9.176-.168-9.176-6.083,0-2.808,2.532-4.642,6.551-4.642A11.84,11.84,0,0,1,322.829,278l-1.334,2.644a8.109,8.109,0,0,0-4.258-1.114c-2.11,0-3.112.693-3.112,1.666,0,3,9.176.337,9.176,6.149,0,2.78-2.56,4.59-6.729,4.59A11.9,11.9,0,0,1,310.27,290.253Z" transform="translate(-218.52 -180.456)"/><path class="h" d="M341.89,284.29c0-4.45,3.336-7.59,8.034-7.59,2.892,0,5.2,1.193,6.341,3.449L353.6,281.7a4.212,4.212,0,0,0-3.7-2.054,4.647,4.647,0,0,0,0,9.289,4.212,4.212,0,0,0,3.7-2.059l2.667,1.558a6.753,6.753,0,0,1-6.341,3.477C345.217,291.913,341.89,288.74,341.89,284.29Z" transform="translate(-235.314 -180.445)"/><path class="h" d="M387.61,276.7v3.308a4.36,4.36,0,0,0-.8-.084c-2.644,0-4.314,1.558-4.314,4.59v7.2H379V276.864h3.313v2.171C383.328,277.477,385.135,276.7,387.61,276.7Z" transform="translate(-255.03 -180.445)"/><path class="h" d="M402.69,264.994a2.12,2.12,0,0,1,2.227-2.087,2.069,2.069,0,0,1,2.223,2,2.227,2.227,0,0,1-4.45.084Zm.468,4.53h3.477v14.852h-3.472Z" transform="translate(-267.618 -173.105)"/><path class="h" d="M436.649,277.9a7.237,7.237,0,0,1-7.538,7.623,6.141,6.141,0,0,1-4.923-2.115v1.919H420.88V264.69h3.477v7.595a6.158,6.158,0,0,1,4.754-1.975A7.213,7.213,0,0,1,436.649,277.9Zm-3.533,0a4.394,4.394,0,1,1-.014,0Z" transform="translate(-277.267 -174.055)"/><path class="h" d="M474.174,285.4H462.522c.416,2.167,2.223,3.561,4.81,3.561a5.311,5.311,0,0,0,4.029-1.614l1.872,2.143a7.544,7.544,0,0,1-5.98,2.419c-4.979,0-8.2-3.2-8.2-7.623a7.382,7.382,0,0,1,7.674-7.59c4.338,0,7.51,3.032,7.51,7.674C474.23,284.65,474.2,285.071,474.174,285.4Zm-11.7-2.307H470.9a4.038,4.038,0,0,0-4.211-3.617,4.1,4.1,0,0,0-4.193,3.617Z" transform="translate(-297.541 -180.445)"/><path class="h" d="M497.25,284.682a2.157,2.157,0,0,1,2.255-2.143,2.12,2.12,0,0,1,2.195,2.143,2.143,2.143,0,0,1-2.195,2.171,2.176,2.176,0,0,1-2.255-2.171Zm.2-17.492h4.118l-.688,13.013h-2.761Z" transform="translate(-317.846 -175.385)"/><g class="d" transform="translate(59.494 71.178)"><path d="M254.263,229.114c-.707-1.736-1.834-4.853-3.308-6,0,0-9.438.159-9.485,0l4.385,15.7a8.147,8.147,0,0,1,2.569,4.123,10.109,10.109,0,0,0,1.872,4.127c1.044,1.1,3.112,1.4,4.02.192,1.025-1.371-.089-3.276-.122-4.984s1.048-3.215,1.488-4.867C256.435,234.64,255.34,231.757,254.263,229.114Z" transform="translate(-241.47 -223.11)"/></g><path class="h" d="M545.578,282.876l-1.376-1.582a4.941,4.941,0,0,1-1.212-3.243v-5.278a6.977,6.977,0,0,0-5.915-6.888v-2.05a.936.936,0,0,0-.936-.936h0a.936.936,0,0,0-.936.936v2.012a6.977,6.977,0,0,0-6.167,6.926v5.072a4.941,4.941,0,0,1-1.053,3.051l-1.554,1.975h7.108A2.939,2.939,0,0,0,538.273,284a2.971,2.971,0,0,0,.753-1.137Z" transform="translate(-333.254 -173.103)"/><path class="i" d="M366.929,93.653a14.534,14.534,0,0,0,1.324-5.147,4.932,4.932,0,0,0-2.34-4.478c-1.451-.707-3.2-.3-4.726-.791-1.872-.608-3.131-2.457-4.02-4.286s-1.614-3.814-3.06-5.208a6.42,6.42,0,0,0-7.323-.987A10.908,10.908,0,0,0,341.1,71c-2.522,0-5.386.29-7.089,2.153-1.32,1.441-2.134,3.276-3.776,4.31-2.265,1.46-5.236.37-7.922.552a1.557,1.557,0,0,0-1.4.7,1.675,1.675,0,0,0,.257,1.352l2.213,4.277a4.141,4.141,0,0,1-3.6,0,12.237,12.237,0,0,0,3.43,7.59,1.028,1.028,0,0,0-1.4.59,2.616,2.616,0,0,0,.075,1.717,12.592,12.592,0,0,0,17.346,7.763l14.857.66a3.772,3.772,0,0,0,2.63,2.293c1.619-1.277,1.872-1.975,1.872-1.975,1.048.725.234.37,1.048.725,1.872.819,4.548-.3,4.9-2.363a4.347,4.347,0,0,1,.936-2.288,7.69,7.69,0,0,1,2.129-1.268,6.111,6.111,0,0,0,2.63-2.864A4.4,4.4,0,0,1,366.929,93.653Z" transform="translate(-223.535 -71)"/><path class="j" d="M342.228,91.241A14.277,14.277,0,0,1,355.456,77.11l.739-.051c7.983-.117,12.545,6.593,12.443,14.576l1.184,36.766L351.6,129.7l-.693-11.961s-7.726-.627-8.381-8.259C342.209,105.808,342.176,98.162,342.228,91.241Z" transform="translate(-235.47 -74.223)"/><path class="i" d="M350.43,118.506a1.1,1.1,0,0,0,1.132,1.025,1.053,1.053,0,0,0,1.053-1.067,1.09,1.09,0,0,0-1.132-1.025,1.043,1.043,0,0,0-1.053,1.067Z" transform="translate(-239.86 -95.708)"/><path class="i" d="M347.15,112.13c.145.136.936-.538,2.1-.622s2.078.44,2.195.29c.061-.07-.1-.318-.491-.562a3.032,3.032,0,0,0-1.774-.407,2.873,2.873,0,0,0-1.656.674C347.183,111.807,347.066,112.074,347.15,112.13Z" transform="translate(-238.103 -92.187)"/><path class="i" d="M360.345,122.842a7.632,7.632,0,0,0-1.933-.206c-.3,0-.59-.047-.655-.248a1.526,1.526,0,0,1,.131-.9l.721-2.34a39.559,39.559,0,0,0,1.554-6.116,39.512,39.512,0,0,0-2.04,5.976q-.356,1.235-.683,2.34a1.76,1.76,0,0,0-.07,1.189.758.758,0,0,0,.529.4,1.81,1.81,0,0,0,.51.033A7.181,7.181,0,0,0,360.345,122.842Z" transform="translate(-243.508 -93.362)"/><path class="i" d="M346.359,106c.267.253,1.24-.089,2.433-.173s2.213.037,2.424-.253c.094-.145-.08-.4-.538-.627a3.963,3.963,0,0,0-2.007-.314,3.917,3.917,0,0,0-1.909.66C346.359,105.595,346.237,105.88,346.359,106Z" transform="translate(-237.672 -88.885)"/><path class="j" d="M397.11,120.048c.126-.066,5.147-1.937,5.349,3.276s-5.082,4.375-5.1,4.211S397.11,120.048,397.11,120.048Z" transform="translate(-264.653 -96.895)"/><path class="k" d="M399.9,127.5c.023,0,.1.061.253.126a.936.936,0,0,0,.683,0,2.26,2.26,0,0,0,.959-2.068,3.023,3.023,0,0,0-.309-1.3,1.048,1.048,0,0,0-.716-.669.468.468,0,0,0-.524.271c-.066.15-.028.253-.056.262s-.117-.084-.084-.3a.585.585,0,0,1,.192-.337.688.688,0,0,1,.5-.154,1.268,1.268,0,0,1,.987.772,3.084,3.084,0,0,1,.374,1.446,2.356,2.356,0,0,1-1.235,2.316.978.978,0,0,1-.842-.1C399.915,127.628,399.883,127.515,399.9,127.5Z" transform="translate(-266.135 -98.845)"/><path class="i" d="M364.37,84.1a12.247,12.247,0,0,0-2.036-4.211c-2.737-3.8-8.989-5.583-12.541-5.264s-7.234,2.948-10.543,4.268c-2.167.866-3.809,2.854-2.981,4.394a12.733,12.733,0,0,1-4.015.852s-.126,1.951.959,2.471l3.416,2.237c4.553.6,12.545-3.879,14.085-5.288a24.132,24.132,0,0,1,4.712-3.379c-1.451,3.8,3.276,2.962,3.145,4.436-1.446,5.349,2.92,7.323,2.92,7.323l.108,4.679c-.1,1.2.416,2.12,1.614,2.04h0a9.414,9.414,0,0,0,1.521-3.243A45.168,45.168,0,0,0,364.37,84.1Z" transform="translate(-230.177 -72.911)"/><path class="k" d="M360.67,159.834a18.591,18.591,0,0,0,9.794-3.664s-1.951,5.681-9.64,5.536Z" transform="translate(-245.293 -116.316)"/><path class="i" d="M374,117.006a1.1,1.1,0,0,0,1.132,1.025,1.043,1.043,0,0,0,1.053-1.067,1.1,1.1,0,0,0-1.132-1.025A1.053,1.053,0,0,0,374,117.006Z" transform="translate(-252.381 -94.91)"/><path class="i" d="M371.24,111.143c.145.15,1.067-.43,2.34-.384s2.209.674,2.34.538c.07-.066-.075-.328-.468-.613a3.519,3.519,0,0,0-1.872-.608,3.341,3.341,0,0,0-1.872.468C371.31,110.824,371.17,111.077,371.24,111.143Z" transform="translate(-250.903 -91.789)"/><path class="i" d="M370.994,103.516c.112.323,1.287.178,2.667.356s2.494.562,2.681.276c.084-.136-.108-.44-.557-.753a4.679,4.679,0,0,0-4.076-.468C371.2,103.114,370.947,103.366,370.994,103.516Z" transform="translate(-250.778 -87.845)"/><path class="k" d="M363.58,137.7a21.3,21.3,0,0,1,3.018-.772l.744-.234h0a2.634,2.634,0,0,1,.168,2.213,2.139,2.139,0,0,1-1.446.992,1.54,1.54,0,0,1-1.235-.2,2.479,2.479,0,0,1-1.249-2" transform="translate(-246.844 -105.951)"/><path class="i" d="M365.488,139.762a2.494,2.494,0,0,0,1.109-.468,2.087,2.087,0,0,0,.707-1.048,2.606,2.606,0,0,0,0-1.549l-.028-.084.14.08c-1.123.248-2.138.468-2.873.6a6.033,6.033,0,0,1-1.2.178,6.837,6.837,0,0,1,1.165-.346c.725-.182,1.736-.421,2.859-.674l.108-.023.033.1.028.094a2.752,2.752,0,0,1,0,1.694,2.195,2.195,0,0,1-.819,1.118,1.834,1.834,0,0,1-.875.328C365.6,139.8,365.483,139.776,365.488,139.762Z" transform="translate(-246.716 -105.813)"/><path class="l" d="M399.411,103.506a.936.936,0,0,1-.314-.08,1.835,1.835,0,0,1-.73-.585,2.727,2.727,0,0,1-.538-1.371,8.283,8.283,0,0,1,.08-1.951,5.278,5.278,0,0,0-.1-2.284,2.171,2.171,0,0,0-.707-1.015,5.312,5.312,0,0,0-1.17-.688,8.189,8.189,0,0,1-1.3-.7,2.77,2.77,0,0,1-.973-1.226,17.776,17.776,0,0,1-.622-3.149,3.589,3.589,0,0,0-.618-1.432,2.036,2.036,0,0,0-1.245-.763c-.468-.112-1-.131-1.5-.229a2.274,2.274,0,0,1-1.324-.707,3.1,3.1,0,0,1-.594-1.3c-.112-.445-.178-.88-.267-1.287a5.01,5.01,0,0,0-.393-1.128,4.754,4.754,0,0,0-.627-.9,4.909,4.909,0,0,0-2.878-1.577,7.584,7.584,0,0,0-1.24-.028,3.341,3.341,0,0,1,1.254-.066,4.9,4.9,0,0,1,3,1.554,4.679,4.679,0,0,1,.665.936,4.972,4.972,0,0,1,.426,1.17c.094.412.164.847.276,1.273a2.925,2.925,0,0,0,.557,1.2,1.993,1.993,0,0,0,1.2.627c.468.094.987.108,1.507.225a2.307,2.307,0,0,1,1.4.847A3.875,3.875,0,0,1,393.3,90.4a18.431,18.431,0,0,0,.6,3.112,2.527,2.527,0,0,0,.889,1.128,7.68,7.68,0,0,0,1.263.688,5.84,5.84,0,0,1,1.212.721,2.419,2.419,0,0,1,.753,1.118,5.32,5.32,0,0,1,.084,2.368,8.2,8.2,0,0,0-.117,1.914,2.709,2.709,0,0,0,.468,1.334A1.872,1.872,0,0,0,399.411,103.506Z" transform="translate(-256.801 -76.328)"/><path class="l" d="M328.82,82.725a.935.935,0,0,1,.234.15l.655.468a11.453,11.453,0,0,0,2.578,1.334,6.294,6.294,0,0,0,4.188.084,4.366,4.366,0,0,0,2-1.437,15.124,15.124,0,0,0,1.371-2.34,7.281,7.281,0,0,1,1.689-2.265,7.1,7.1,0,0,1,2.246-1.3,8.521,8.521,0,0,1,4.338-.318,11.554,11.554,0,0,1,2.808.87c.318.14.557.262.716.351a1.254,1.254,0,0,1,.239.145,1.109,1.109,0,0,1-.257-.1c-.168-.075-.412-.182-.735-.314a12.878,12.878,0,0,0-2.808-.786,8.5,8.5,0,0,0-4.211.36,6.949,6.949,0,0,0-2.167,1.263,7.019,7.019,0,0,0-1.61,2.162,14.555,14.555,0,0,1-1.4,2.391,4.5,4.5,0,0,1-2.143,1.483,6.392,6.392,0,0,1-4.324-.131,10.87,10.87,0,0,1-2.574-1.4c-.281-.206-.468-.374-.627-.468A1.355,1.355,0,0,1,328.82,82.725Z" transform="translate(-228.364 -74.171)"/><path class="l" d="M324.6,104.127c.028-.033.388.285,1.034.683a9.359,9.359,0,0,0,2.742,1.114,9.242,9.242,0,0,0,2.953.173c.758-.08,1.217-.211,1.231-.168s-.108.061-.314.131a5.615,5.615,0,0,1-.894.206,8.081,8.081,0,0,1-3.032-.1,8.174,8.174,0,0,1-2.78-1.207,5.761,5.761,0,0,1-.716-.576C324.664,104.23,324.584,104.141,324.6,104.127Z" transform="translate(-226.134 -88.625)"/><path class="l" d="M334,113.47c.028-.066.824.262,1.872.431s1.872.131,1.9.2a5.246,5.246,0,0,1-3.743-.632Z" transform="translate(-231.132 -93.592)"/><path class="l" d="M325.84,169.984l-15.021,4.137-16.209,11.7,4.324,7.393,76.419.131s-2.808-10.215-3.7-13.35c-1.38-4.731-3.252-6.083-4.96-7.8a8.138,8.138,0,0,0-2.728-1.605c-3.023-.66-17.01-3.8-19.733-3.744,0,0-3.14,6.49-9.719,6.425S325.84,169.984,325.84,169.984Z" transform="translate(-210.135 -121.997)"/><path class="i" d="M427.54,189.55c.047,0,.187-.618.632-1.54a12.494,12.494,0,0,1,2.316-3.238,29.088,29.088,0,0,1,3.037-2.634,11.886,11.886,0,0,0,1.3-1.058,8.964,8.964,0,0,0-1.4.9,21.462,21.462,0,0,0-3.116,2.6,11.152,11.152,0,0,0-2.3,3.35,6.552,6.552,0,0,0-.388,1.17,1.251,1.251,0,0,0-.075.449Z" transform="translate(-280.814 -129.569)"/><path class="i" d="M329.062,204.251a8.426,8.426,0,0,0,.051-1.586c0-.983-.066-2.34-.178-3.828s-.267-2.845-.407-3.814a8.117,8.117,0,0,0-.29-1.563,10.066,10.066,0,0,0,.1,1.586c.089,1.062.2,2.368.323,3.809s.187,2.751.257,3.814a9.957,9.957,0,0,0,.145,1.582Z" transform="translate(-228.073 -136.156)"/><g class="d" transform="translate(92.86 64.772)"><path d="M316.257,214.689a8,8,0,0,0,3.411-1.741,3.237,3.237,0,0,0,.861-3.528,11.085,11.085,0,0,0,10.229,6.355L312.63,216a15.5,15.5,0,0,1,3.626-1.315Z" transform="translate(-312.63 -209.42)"/></g><path class="j" d="M482.767,219.65a15.3,15.3,0,0,0-2.742-2.967,2.653,2.653,0,0,0-2.7.028l-.548.491s-2.854-1.277-4.211-.295c0,0-2.714-1.282-4.01.187,0,0-2.092-1.362-2.976-.173a4.848,4.848,0,0,0-.37,4.211c.426,1.02,1.231,4.553,1.872,4.614,0,0,1.666.178,1.872-.725s.318-1.334.318-1.334.636,3.187,1.4,3.346,2.232.075,2.279-1.324c0,0,.711,1.053,1.4.749s1.554-.819,1.479-1.685-.089-1.731-.089-1.731.384,1.263,1.011.987,1.263-.215,1.619-1.282,1.231-3.112,1.231-3.112Z" transform="translate(-300.646 -148.326)"/><path class="k" d="M487.38,223.858a8.3,8.3,0,0,0-.271-.9,4.988,4.988,0,0,1,.786-4.24c.337-.468.608-.711.58-.744s-.342.168-.735.622a4.525,4.525,0,0,0-.819,4.417,1.975,1.975,0,0,0,.459.842Z" transform="translate(-312.229 -149.199)"/><path class="k" d="M480.215,217.6a4.337,4.337,0,0,0-.365,1.254,12.391,12.391,0,0,0,.421,6.256,4.455,4.455,0,0,0,.529,1.193,22.735,22.735,0,0,1-.866-4.314A24.331,24.331,0,0,1,480.215,217.6Z" transform="translate(-308.492 -149)"/><path class="k" d="M472.364,218.05a10.064,10.064,0,0,0-.042,3.369,10.244,10.244,0,0,0,.8,3.276c.08,0-.323-1.474-.529-3.308S472.443,218.055,472.364,218.05Z" transform="translate(-304.545 -149.24)"/><path class="j" d="M448.5,218.857a1.057,1.057,0,0,1,.721-.58,2.312,2.312,0,0,1,2.068.552A7.956,7.956,0,0,1,452.8,220.7l-4.043-.028C448.79,220.045,448.271,219.432,448.5,218.857Z" transform="translate(-291.919 -149.33)"/><path class="j" d="M229.316,216.157a8.119,8.119,0,0,1,3.786-6.083h0a6.724,6.724,0,0,1,5.615-.557l7.8,2.714c.421.468,13.294-4.511,13.294-4.511l4.319,7.384-24.6-.037a57.681,57.681,0,0,0,4.3,4.4l1.671,5.55-.164,5.021c-.884.407-2.2-1.142-2.2-1.142l-.772,1.4.257,1.362s2.274,5.522,2.195,6.752a.7.7,0,0,1-.716.7,1.656,1.656,0,0,1-1.582-.936l-3.233-6.284a10.283,10.283,0,0,1-3.379-1.432c-.875-.824-2.181-2.4-2.181-2.4l-1.591-.225a.842.842,0,0,1-.547-.108,2.971,2.971,0,0,1-1.61-2.153l-.81-4.211A24.32,24.32,0,0,1,229.316,216.157Z" transform="translate(-175.378 -143.744)"/><path class="k" d="M245.26,249.12a10.88,10.88,0,0,0,2.658,4.857c.061-.047-.683-1.044-1.4-2.382S245.33,249.1,245.26,249.12Z" transform="translate(-183.995 -165.77)"/><path class="k" d="M237.224,248.14c-.084.033.211.683.716,1.366a4.281,4.281,0,0,0,1.02,1.151,4.941,4.941,0,0,0-.81-1.306,9.329,9.329,0,0,0-.927-1.212Z" transform="translate(-179.719 -165.249)"/><path class="k" d="M256.469,249.814a13.255,13.255,0,0,0-.44-1.535c-.285-.936-.655-2.251-1.015-3.706-.182-.73-.346-1.4-.468-2.059a5.278,5.278,0,0,1-.168-1.68,2.644,2.644,0,0,1,.594-1.4,1,1,0,0,0-.328.285,2.34,2.34,0,0,0-.468,1.1,5.03,5.03,0,0,0,.117,1.755c.126.641.285,1.338.468,2.073.365,1.46.763,2.766,1.095,3.7a8.076,8.076,0,0,0,.613,1.469Z" transform="translate(-188.716 -160.615)"/><path class="k" d="M255.5,241.68c-.033.028.234.332.543.889a5.616,5.616,0,0,1,.7,2.34,7.148,7.148,0,0,0,.117,1.4,2.064,2.064,0,0,0,.59,1.02,2.19,2.19,0,0,0,.875.594c.028-.037-.318-.257-.739-.721a2.026,2.026,0,0,1-.491-.936A8.1,8.1,0,0,1,257,244.9a5.148,5.148,0,0,0-.8-2.424,2.466,2.466,0,0,0-.7-.8Z" transform="translate(-189.431 -161.812)"/><path class="k" d="M247.733,218.969c.047-.061-.866-.819-1.788-1.947s-1.511-2.167-1.6-2.1a3.088,3.088,0,0,0,.323.7,10.341,10.341,0,0,0,1.072,1.563A6.663,6.663,0,0,0,247.733,218.969Z" transform="translate(-183.512 -147.576)"/><g class="d" transform="translate(140.666 64.276)"><path d="M373.467,177.057l.3-7.047-4.951,7.038Z" transform="translate(-368.82 -170.01)"/></g><path class="i" d="M424.532,213.944a37.1,37.1,0,0,1,.112-4.174,36.425,36.425,0,0,1,.351-4.16,35.127,35.127,0,0,1-.108,4.174,34.3,34.3,0,0,1-.356,4.16Z" transform="translate(-279.216 -142.621)"/><path class="h" d="M383.3,170.81a1.226,1.226,0,0,1,.126.468,2.035,2.035,0,0,1-.342,1.3,2.943,2.943,0,0,1-1.717,1.259,9.126,9.126,0,0,1-2.808.239,11.406,11.406,0,0,0-1.628.084,3.973,3.973,0,0,0-1.624.58,3.374,3.374,0,0,0-1.165,1.4,9.532,9.532,0,0,0-.6,1.9c-.15.674-.285,1.371-.5,2.078a5.756,5.756,0,0,1-5.147,4.132,6.083,6.083,0,0,1-4.4-1.568,6.687,6.687,0,0,1-1.376-1.769,3.865,3.865,0,0,0-1.343-1.54,3.191,3.191,0,0,0-1.9-.332,15.856,15.856,0,0,0-1.872.318,9.537,9.537,0,0,1-1.783.243,4.628,4.628,0,0,1-1.647-.262,5.615,5.615,0,0,1-2.34-1.572,5.452,5.452,0,0,1-1.1-1.839,4.68,4.68,0,0,1-.211-.753c-.023-.229-.061-.416-.061-.571v-.356a.537.537,0,0,1,0-.117,5.652,5.652,0,0,0,.351,1.764,5.386,5.386,0,0,0,1.114,1.778,5.447,5.447,0,0,0,2.312,1.5,4.525,4.525,0,0,0,1.586.239,9.407,9.407,0,0,0,1.745-.253,16.379,16.379,0,0,1,1.872-.337,3.4,3.4,0,0,1,2.026.351A4.081,4.081,0,0,1,362.3,180.8a6.593,6.593,0,0,0,1.338,1.713,5.877,5.877,0,0,0,4.211,1.5,5.662,5.662,0,0,0,3.945-2.045A8.977,8.977,0,0,0,373.31,178a9.357,9.357,0,0,1,.622-1.951,3.626,3.626,0,0,1,1.245-1.488,4.113,4.113,0,0,1,1.713-.6,11.1,11.1,0,0,1,1.652-.066,9.494,9.494,0,0,0,2.808-.2,2.887,2.887,0,0,0,1.675-1.184,2.017,2.017,0,0,0,.37-1.249,3.454,3.454,0,0,0-.094-.454Z" transform="translate(-239.529 -124.105)"/><path class="h" d="M350.689,201.377a1.491,1.491,0,0,1-.1-.318l-.257-.936a11.075,11.075,0,0,0-1.4-3.205,5.352,5.352,0,0,0-.744-.875,4.563,4.563,0,0,0-1.015-.707,5.208,5.208,0,0,0-2.667-.468,18.3,18.3,0,0,0-3.028.529,12.755,12.755,0,0,1-3.313.431,4.553,4.553,0,0,1-3.121-1.165,4.609,4.609,0,0,1-1.235-2.859,14.616,14.616,0,0,1,.065-2.808,13.791,13.791,0,0,0,.061-2.419,4.4,4.4,0,0,0-1.46-3.06,3.308,3.308,0,0,0-1.132-.576h.084a1.228,1.228,0,0,1,.248.051,2.653,2.653,0,0,1,.861.44,4.45,4.45,0,0,1,1.572,3.116,13.541,13.541,0,0,1-.033,2.452,14.73,14.73,0,0,0-.042,2.775A3.889,3.889,0,0,0,338.2,195.6a12.508,12.508,0,0,0,3.276-.421,18.175,18.175,0,0,1,3.065-.519,5.442,5.442,0,0,1,2.775.515,4.711,4.711,0,0,1,1.053.753,5.9,5.9,0,0,1,.758.936,10.58,10.58,0,0,1,1.334,3.276c.1.4.168.721.211.936a1.645,1.645,0,0,1,.019.3Z" transform="translate(-229.706 -130.559)"/><path class="h" d="M413.584,208.218a10.385,10.385,0,0,0-2.045-.781,7.375,7.375,0,0,0-2.34-.173,6.9,6.9,0,0,0-2.737.838,7.281,7.281,0,0,0-2.185,1.872,6.738,6.738,0,0,0-1.118,2.064,2.9,2.9,0,0,0-.1,1.558,4.4,4.4,0,0,0,.2.547.9.9,0,0,1-.1-.117,1.758,1.758,0,0,1-.192-.407,2.873,2.873,0,0,1,.028-1.628,6.705,6.705,0,0,1,1.109-2.153,7.3,7.3,0,0,1,2.241-1.937,6.949,6.949,0,0,1,2.84-.852,7.211,7.211,0,0,1,2.405.229,6.753,6.753,0,0,1,1.511.613c.168.094.29.178.374.234S413.588,208.208,413.584,208.218Z" transform="translate(-267.7 -143.376)"/><path class="h" d="M436.09,178.04a1.293,1.293,0,0,1-.285-.58,3.341,3.341,0,0,1-.066-1.558,3.407,3.407,0,0,1,.646-1.427c.253-.314.468-.468.468-.43a4.324,4.324,0,0,0-.777,4Z" transform="translate(-285.144 -125.823)"/><path class="h" d="M442.186,202.41a.8.8,0,0,1-.052.206,3.564,3.564,0,0,1-.215.562,5.465,5.465,0,0,1-1.343,1.759A5.723,5.723,0,0,1,437.6,206.3a10.679,10.679,0,0,1-3.973-.552,8.89,8.89,0,0,0-2.017-.309,5.639,5.639,0,0,0-1.872.29,6.387,6.387,0,0,0-2.658,1.736,6.116,6.116,0,0,0-1.165,1.82c-.2.468-.248.763-.276.758a.594.594,0,0,1,.028-.211,4.067,4.067,0,0,1,.159-.58,5.854,5.854,0,0,1,1.123-1.9,6.509,6.509,0,0,1,2.719-1.834,5.657,5.657,0,0,1,1.933-.314,9.359,9.359,0,0,1,2.068.309,10.68,10.68,0,0,0,3.889.566,5.615,5.615,0,0,0,2.892-1.268,5.728,5.728,0,0,0,1.371-1.671A4.125,4.125,0,0,0,442.186,202.41Z" transform="translate(-279.793 -140.918)"/><path class="h" d="M315.212,209.978a.661.661,0,0,1-.164,0,2.431,2.431,0,0,1-.468,0,4.586,4.586,0,0,1-1.685-.44,4.97,4.97,0,0,1-1.965-1.671,4.722,4.722,0,0,1-.641-1.4,12.776,12.776,0,0,1-.276-1.614,5.206,5.206,0,0,0-.936-2.878,3.669,3.669,0,0,0-2.162-1.132,11.8,11.8,0,0,0-1.7-.173,4.379,4.379,0,0,1-.636-.037,2.574,2.574,0,0,1,.636-.056,9.131,9.131,0,0,1,1.731.1,3.767,3.767,0,0,1,2.3,1.156,3.552,3.552,0,0,1,.707,1.38,10.614,10.614,0,0,1,.285,1.61,13.245,13.245,0,0,0,.267,1.582,4.407,4.407,0,0,0,.6,1.338,4.923,4.923,0,0,0,1.872,1.642,5.821,5.821,0,0,0,2.237.6Z" transform="translate(-215.5 -139.937)"/></g><g transform="translate(143.552 130.195)"><path class="a" d="M360.035,361.287A12.273,12.273,0,0,1,361.4,365.5h2.5l10.543-.182-.08.187s1.722-8.086,2.036-10.491c.257-1.984,1.483-6.729,0-8.825a2.185,2.185,0,0,0-2.41-.8,1.717,1.717,0,0,0-1.212,1.324s-.126-2.808-2.138-2.845-2.082,1.53-2.082,1.53-.552-3.205-2.808-3.177a2.152,2.152,0,0,0-1.872,1.558v-6.083a2.34,2.34,0,0,0-2.181-2.34,2.27,2.27,0,0,0-2.34,2.237l-.136,14.076-3.421-4.389c-.894-1.137-3.028-.576-3.276.4,0,0-.618,1.287.66,3.182C354.069,352.274,360.035,361.287,360.035,361.287Z" transform="translate(-352.233 -326.659)"/><path class="i" d="M359.878,361.145s-.061-.075-.164-.225l-.468-.674-1.755-2.616-2.775-4.155-1.731-2.6a5.2,5.2,0,0,1-.763-1.549,2.915,2.915,0,0,1,0-1.83h0a1.488,1.488,0,0,1,.753-.8,2.626,2.626,0,0,1,1.1-.281,2.069,2.069,0,0,1,1.142.267,2.2,2.2,0,0,1,.248.178c.075.07.145.15.211.225l.365.468,3.056,3.907-.182.061c.047-3.931.1-8.24.15-12.826v-.861a4.14,4.14,0,0,1,.061-.889,2.4,2.4,0,0,1,1.025-1.483,2.34,2.34,0,0,1,3.276.749,2.484,2.484,0,0,1,.342.884,5.262,5.262,0,0,1,.047.936v5.582l-.239-.033a2.34,2.34,0,0,1,1.034-1.343,2.438,2.438,0,0,1,.683-.267,1.264,1.264,0,0,1,.374-.028,3.114,3.114,0,0,1,.365.042,2.377,2.377,0,0,1,1.245.716,5.26,5.26,0,0,1,1.174,2.508h-.239a1.755,1.755,0,0,1,1.039-1.441,2.5,2.5,0,0,1,.875-.2,2.337,2.337,0,0,1,.468,0l.225.028.215.065a2.152,2.152,0,0,1,1.249,1.2,4.824,4.824,0,0,1,.416,1.652l-.234-.023a1.872,1.872,0,0,1,1.132-1.352,2.288,2.288,0,0,1,1.75.037,2.232,2.232,0,0,1,.73.5,3.2,3.2,0,0,1,.468.721,5.615,5.615,0,0,1,.426,1.633,24.921,24.921,0,0,1-.6,6.331c-.323,2-.683,3.945-1.044,5.774s-.739,3.561-1.081,5.2l-.168-.051.075-.187.084.122-10.543.154.056-.061h0v.061h-2.574v-.042a12.66,12.66,0,0,0-.842-3.154c-.14-.346-.262-.6-.351-.777a2.685,2.685,0,0,1-.122-.262,8.078,8.078,0,0,1,.519,1.02,12.166,12.166,0,0,1,.889,3.163l-.047-.042h2.513l-.061.061h0v-.056h.056l10.538-.215h.136l-.051.126-.075.187-.168-.051q.5-2.457,1.058-5.2c.356-1.83.749-3.743,1.025-5.765a27.179,27.179,0,0,0,.585-6.275,5.32,5.32,0,0,0-.407-1.558,2.863,2.863,0,0,0-.468-.66,2.186,2.186,0,0,0-.65-.468,2.078,2.078,0,0,0-1.572-.028,1.6,1.6,0,0,0-.992,1.189l-.168.81-.066-.833a4.632,4.632,0,0,0-.393-1.558,1.937,1.937,0,0,0-1.109-1.081,2.466,2.466,0,0,0-1.586.094,1.511,1.511,0,0,0-.894,1.231l-.075.791-.168-.777a5.067,5.067,0,0,0-1.114-2.382,1.872,1.872,0,0,0-2.363-.421,2.087,2.087,0,0,0-.936,1.2l-.239.739V338.02a5.028,5.028,0,0,0-.037-.889,2.339,2.339,0,0,0-.313-.8,2.171,2.171,0,0,0-1.348-.973,2.148,2.148,0,0,0-2.541,1.633,3.746,3.746,0,0,0-.056.838v.866c-.061,4.581-.122,8.891-.178,12.826v.295l-.178-.234-3.018-3.9a2.962,2.962,0,0,0-.767-.824,1.938,1.938,0,0,0-1.044-.248,2.532,2.532,0,0,0-1.025.257,1.306,1.306,0,0,0-.674.707h0a2.747,2.747,0,0,0,0,1.713,5.069,5.069,0,0,0,.735,1.507l1.717,2.611,2.737,4.179,1.717,2.639c.192.3.337.529.445.688A.732.732,0,0,1,359.878,361.145Z" transform="translate(-352.075 -326.518)"/><rect class="a" width="16.832" height="3.762" rx="1.881" transform="translate(7.339 38.656)"/><path class="i" d="M382.633,402.939a1.616,1.616,0,0,0,.374-.065,1.872,1.872,0,0,0,.936-.552,1.815,1.815,0,0,0,.379-.669,2.278,2.278,0,0,0,.051-.936,1.745,1.745,0,0,0-1.483-1.451H369.447a1.727,1.727,0,0,0-1.493.884,1.821,1.821,0,0,0-.206.856,1.713,1.713,0,0,0,1.535,1.773h1.736l6.05.028,4.08.037,1.109.023a.195.195,0,1,1,0,.047H381.15l-4.08.037-6.05.028H369.26a1.952,1.952,0,0,1-1.54-1.044,2,2,0,0,1,1.727-2.948c5.26,0,10,0,13.467.061a1.872,1.872,0,0,1,1.591,1.6,2.339,2.339,0,0,1-.07.969,1.872,1.872,0,0,1-.426.7,1.788,1.788,0,0,1-.973.533,1.282,1.282,0,0,1-.4.084Z" transform="translate(-360.273 -360.521)"/><path class="i" d="M376.652,358.141a30.592,30.592,0,0,1,0-5.451A30.592,30.592,0,0,1,376.652,358.141Z" transform="translate(-365.087 -335.886)"/><path class="i" d="M386.682,359.863a10.865,10.865,0,0,1,0-3.243A10.865,10.865,0,0,1,386.682,359.863Z" transform="translate(-370.423 -337.977)"/><path class="i" d="M395.856,362.777a10.5,10.5,0,0,1,0-3.247A10.9,10.9,0,0,1,395.856,362.777Z" transform="translate(-375.302 -339.526)"/><path class="i" d="M359.55,331.928a16.7,16.7,0,0,1-2.574-1.175,16.378,16.378,0,0,1-2.466-1.4,33.323,33.323,0,0,1,5.04,2.574Z" transform="translate(-353.371 -323.468)"/><path class="i" d="M368.883,323.953a55.512,55.512,0,0,1-1.123-7.173,26.087,26.087,0,0,1,.683,3.57A27.449,27.449,0,0,1,368.883,323.953Z" transform="translate(-360.421 -316.78)"/><path class="i" d="M376.23,327.33a18.557,18.557,0,0,1,1.591-2.48,17.871,17.871,0,0,1,1.788-2.34,35.246,35.246,0,0,1-3.379,4.824Z" transform="translate(-364.927 -319.829)"/></g></g></svg>